Mallanna.ufo
<glyph name="exclam" format="1">
  <advance width="143"/>
  <unicode hex="0021"/>
  <outline>
    <contour>
      <point x="98" y="33" type="curve" smooth="yes" name="hr00"/>
      <point x="98" y="61"/>
      <point x="76" y="80"/>
      <point x="48" y="80" type="curve" smooth="yes"/>
      <point x="19" y="80"/>
      <point x="0" y="61"/>
      <point x="0" y="33" type="curve" smooth="yes"/>
      <point x="0" y="4"/>
      <point x="23" y="-13"/>
      <point x="48" y="-13" type="curve" smooth="yes"/>
      <point x="75" y="-13"/>
      <point x="98" y="8"/>
    </contour>
    <contour>
      <point x="75" y="484" type="line" smooth="yes"/>
      <point x="75" y="500"/>
      <point x="65" y="508"/>
      <point x="45" y="508" type="curve" smooth="yes"/>
      <point x="27" y="508"/>
      <point x="18" y="500"/>
      <point x="18" y="483" type="curve" smooth="yes"/>
      <point x="18" y="125" type="line" smooth="yes"/>
      <point x="18" y="112"/>
      <point x="27" y="105"/>
      <point x="46" y="105" type="curve" smooth="yes"/>
      <point x="65" y="105"/>
      <point x="75" y="111"/>
      <point x="75" y="124" type="curve" smooth="yes"/>
    </contour>
  </outline>
</glyph>
<glyph name="quotedbl" format="1">
  <advance width="344"/>
  <unicode hex="0022"/>
  <outline>
    <contour>
      <point x="269" y="536" type="line" name="hr00"/>
      <point x="294" y="836" type="line"/>
      <point x="225" y="836" type="line"/>
      <point x="225" y="536" type="line"/>
    </contour>
    <contour>
      <point x="107" y="536" type="line"/>
      <point x="132" y="836" type="line"/>
      <point x="62" y="836" type="line"/>
      <point x="62" y="536" type="line"/>
    </contour>
  </outline>
</glyph>
<glyph name="numbersign" format="1">
  <advance width="467"/>
  <unicode hex="0023"/>
  <outline>
    <contour>
      <point x="255" y="202" type="line" name="hr00"/>
      <point x="170" y="202" type="line"/>
      <point x="190" y="339" type="line"/>
      <point x="275" y="339" type="line"/>
    </contour>
    <contour>
      <point x="142" y="-2" type="line"/>
      <point x="163" y="148" type="line"/>
      <point x="248" y="148" type="line"/>
      <point x="228" y="-2" type="line"/>
      <point x="283" y="-2" type="line"/>
      <point x="305" y="148" type="line"/>
      <point x="377" y="148" type="line"/>
      <point x="377" y="202" type="line"/>
      <point x="311" y="202" type="line"/>
      <point x="330" y="339" type="line"/>
      <point x="398" y="339" type="line"/>
      <point x="398" y="393" type="line"/>
      <point x="338" y="393" type="line"/>
      <point x="359" y="544" type="line"/>
      <point x="304" y="544" type="line"/>
      <point x="283" y="393" type="line"/>
      <point x="197" y="393" type="line"/>
      <point x="217" y="544" type="line"/>
      <point x="163" y="544" type="line"/>
      <point x="142" y="393" type="line"/>
      <point x="55" y="393" type="line"/>
      <point x="55" y="339" type="line"/>
      <point x="134" y="339" type="line"/>
      <point x="115" y="202" type="line"/>
      <point x="37" y="202" type="line"/>
      <point x="37" y="148" type="line"/>
      <point x="107" y="148" type="line"/>
      <point x="86" y="-2" type="line"/>
    </contour>
  </outline>
</glyph>
<glyph name="dollar" format="1">
  <advance width="508"/>
  <unicode hex="0024"/>
  <outline>
    <contour>
      <point x="276" y="-84" type="line" name="hr00"/>
      <point x="276" y="-8" type="line"/>
      <point x="317" y="-3"/>
      <point x="349" y="15"/>
      <point x="375" y="48" type="curve" smooth="yes"/>
      <point x="397" y="76"/>
      <point x="410" y="109"/>
      <point x="410" y="146" type="curve" smooth="yes"/>
      <point x="410" y="229"/>
      <point x="362" y="280"/>
      <point x="259" y="308" type="curve" smooth="yes"/>
      <point x="227" y="317"/>
      <point x="204" y="325"/>
      <point x="191" y="334" type="curve" smooth="yes"/>
      <point x="170" y="349"/>
      <point x="160" y="370"/>
      <point x="160" y="399" type="curve" smooth="yes"/>
      <point x="160" y="428"/>
      <point x="169" y="451"/>
      <point x="186" y="468" type="curve" smooth="yes"/>
      <point x="201" y="482"/>
      <point x="222" y="489"/>
      <point x="247" y="489" type="curve" smooth="yes"/>
      <point x="276" y="489"/>
      <point x="300" y="480"/>
      <point x="319" y="461" type="curve" smooth="yes"/>
      <point x="334" y="445"/>
      <point x="342" y="424"/>
      <point x="342" y="399" type="curve" smooth="yes"/>
      <point x="342" y="394" type="line"/>
      <point x="404" y="394" type="line"/>
      <point x="404" y="425"/>
      <point x="396" y="454"/>
      <point x="380" y="480" type="curve" smooth="yes"/>
      <point x="357" y="516"/>
      <point x="322" y="537"/>
      <point x="276" y="544" type="curve"/>
      <point x="276" y="607" type="line"/>
      <point x="214" y="607" type="line"/>
      <point x="214" y="541" type="line"/>
      <point x="146" y="528"/>
      <point x="97" y="471"/>
      <point x="97" y="399" type="curve" smooth="yes"/>
      <point x="97" y="350"/>
      <point x="114" y="312"/>
      <point x="152" y="286" type="curve" smooth="yes"/>
      <point x="172" y="272"/>
      <point x="202" y="262"/>
      <point x="240" y="253" type="curve" smooth="yes"/>
      <point x="271" y="245"/>
      <point x="293" y="236"/>
      <point x="307" y="225" type="curve"/>
      <point x="334" y="208"/>
      <point x="347" y="181"/>
      <point x="347" y="146" type="curve" smooth="yes"/>
      <point x="347" y="85"/>
      <point x="309" y="45"/>
      <point x="248" y="45" type="curve" smooth="yes"/>
      <point x="222" y="45"/>
      <point x="199" y="52"/>
      <point x="180" y="66" type="curve" smooth="yes"/>
      <point x="155" y="83"/>
      <point x="143" y="112"/>
      <point x="143" y="152" type="curve"/>
      <point x="81" y="152" type="line"/>
      <point x="81" y="139" type="line" smooth="yes"/>
      <point x="81" y="103"/>
      <point x="94" y="71"/>
      <point x="119" y="42" type="curve" smooth="yes"/>
      <point x="145" y="13"/>
      <point x="177" y="-3"/>
      <point x="214" y="-8" type="curve"/>
      <point x="214" y="-84" type="line"/>
    </contour>
  </outline>
</glyph>
<glyph name="percent" format="1">
  <advance width="613"/>
  <unicode hex="0025"/>
  <outline>
    <contour>
      <point x="493" y="148" type="curve" smooth="yes" name="hr00"/>
      <point x="493" y="69"/>
      <point x="478" y="44"/>
      <point x="422" y="44" type="curve" smooth="yes"/>
      <point x="382" y="44"/>
      <point x="363" y="80"/>
      <point x="363" y="137" type="curve" smooth="yes"/>
      <point x="363" y="206"/>
      <point x="383" y="230"/>
      <point x="432" y="230" type="curve" smooth="yes"/>
      <point x="471" y="230"/>
      <point x="493" y="196"/>
    </contour>
    <contour>
      <point x="184" y="398" type="curve" smooth="yes"/>
      <point x="184" y="317"/>
      <point x="168" y="287"/>
      <point x="109" y="287" type="curve" smooth="yes"/>
      <point x="69" y="287"/>
      <point x="48" y="326"/>
      <point x="48" y="379" type="curve" smooth="yes"/>
      <point x="48" y="446"/>
      <point x="71" y="475"/>
      <point x="118" y="475" type="curve" smooth="yes"/>
      <point x="159" y="475"/>
      <point x="184" y="443"/>
    </contour>
    <contour>
      <point x="544" y="140" type="curve" smooth="yes"/>
      <point x="544" y="231"/>
      <point x="506" y="276"/>
      <point x="430" y="276" type="curve" smooth="yes"/>
      <point x="389" y="276"/>
      <point x="357" y="261"/>
      <point x="337" y="230" type="curve" smooth="yes"/>
      <point x="321" y="205"/>
      <point x="315" y="172"/>
      <point x="315" y="132" type="curve" smooth="yes"/>
      <point x="315" y="48"/>
      <point x="359" y="-2"/>
      <point x="430" y="-2" type="curve" smooth="yes"/>
      <point x="501" y="-2"/>
      <point x="544" y="47"/>
    </contour>
    <contour>
      <point x="439" y="497" type="line" smooth="yes"/>
      <point x="442" y="502"/>
      <point x="443" y="507"/>
      <point x="443" y="511" type="curve" smooth="yes"/>
      <point x="443" y="528"/>
      <point x="435" y="536"/>
      <point x="418" y="536" type="curve" smooth="yes"/>
      <point x="409" y="536"/>
      <point x="402" y="531"/>
      <point x="395" y="522" type="curve"/>
      <point x="97" y="16" type="line"/>
      <point x="92" y="5"/>
      <point x="100" y="-13"/>
      <point x="121" y="-13" type="curve" smooth="yes"/>
      <point x="131" y="-13"/>
      <point x="138" y="-8"/>
      <point x="143" y="1" type="curve" smooth="yes"/>
    </contour>
    <contour>
      <point x="230" y="385" type="curve" smooth="yes"/>
      <point x="230" y="470"/>
      <point x="186" y="521"/>
      <point x="114" y="521" type="curve" smooth="yes"/>
      <point x="73" y="521"/>
      <point x="43" y="505"/>
      <point x="23" y="474" type="curve" smooth="yes"/>
      <point x="8" y="450"/>
      <point x="0" y="418"/>
      <point x="0" y="378" type="curve" smooth="yes"/>
      <point x="0" y="291"/>
      <point x="45" y="243"/>
      <point x="114" y="243" type="curve" smooth="yes"/>
      <point x="191" y="243"/>
      <point x="230" y="290"/>
    </contour>
  </outline>
</glyph>
<glyph name="ampersand" format="1">
  <advance width="617"/>
  <unicode hex="0026"/>
  <outline>
    <contour>
      <point x="273" y="526" type="curve" smooth="yes" name="hr00"/>
      <point x="318" y="526"/>
      <point x="353" y="493"/>
      <point x="353" y="454" type="curve" smooth="yes"/>
      <point x="353" y="435"/>
      <point x="345" y="418"/>
      <point x="330" y="402" type="curve"/>
      <point x="316" y="391"/>
      <point x="292" y="378"/>
      <point x="259" y="364" type="curve"/>
      <point x="244" y="377"/>
      <point x="232" y="388"/>
      <point x="223" y="395" type="curve"/>
      <point x="203" y="418"/>
      <point x="193" y="439"/>
      <point x="193" y="459" type="curve" smooth="yes"/>
      <point x="193" y="494"/>
      <point x="226" y="526"/>
    </contour>
    <contour>
      <point x="380" y="164" type="line"/>
      <point x="362" y="133"/>
      <point x="346" y="109"/>
      <point x="331" y="93" type="curve" smooth="yes"/>
      <point x="305" y="67"/>
      <point x="275" y="54"/>
      <point x="242" y="54" type="curve" smooth="yes"/>
      <point x="212" y="54"/>
      <point x="185" y="65"/>
      <point x="160" y="86" type="curve" smooth="yes"/>
      <point x="135" y="107"/>
      <point x="123" y="135"/>
      <point x="123" y="169" type="curve" smooth="yes"/>
      <point x="123" y="204"/>
      <point x="138" y="236"/>
      <point x="183" y="268" type="curve" smooth="yes"/>
      <point x="196" y="277"/>
      <point x="225" y="290"/>
      <point x="240" y="297" type="curve"/>
    </contour>
    <contour>
      <point x="409" y="220" type="line"/>
      <point x="305" y="321" type="line"/>
      <point x="328" y="328"/>
      <point x="350" y="341"/>
      <point x="370" y="359" type="curve" smooth="yes"/>
      <point x="401" y="385"/>
      <point x="416" y="416"/>
      <point x="416" y="452" type="curve" smooth="yes"/>
      <point x="416" y="489"/>
      <point x="402" y="520"/>
      <point x="373" y="546" type="curve" smooth="yes"/>
      <point x="345" y="571"/>
      <point x="312" y="585"/>
      <point x="274" y="585" type="curve" smooth="yes"/>
      <point x="234" y="585"/>
      <point x="200" y="573"/>
      <point x="172" y="548" type="curve" smooth="yes"/>
      <point x="144" y="523"/>
      <point x="130" y="493"/>
      <point x="130" y="457" type="curve" smooth="yes"/>
      <point x="130" y="432"/>
      <point x="137" y="409"/>
      <point x="152" y="387" type="curve" smooth="yes"/>
      <point x="161" y="374"/>
      <point x="175" y="359"/>
      <point x="194" y="340" type="curve"/>
      <point x="156" y="323"/>
      <point x="126" y="302"/>
      <point x="104" y="278" type="curve" smooth="yes"/>
      <point x="75" y="247"/>
      <point x="60" y="212"/>
      <point x="60" y="171" type="curve" smooth="yes"/>
      <point x="60" y="125"/>
      <point x="78" y="86"/>
      <point x="112" y="52" type="curve" smooth="yes"/>
      <point x="150" y="15"/>
      <point x="194" y="-5"/>
      <point x="247" y="-5" type="curve" smooth="yes"/>
      <point x="296" y="-5"/>
      <point x="336" y="13"/>
      <point x="371" y="47" type="curve" smooth="yes"/>
      <point x="389" y="65"/>
      <point x="408" y="88"/>
      <point x="426" y="121" type="curve"/>
      <point x="560" y="-6" type="line"/>
      <point x="605" y="37" type="line"/>
      <point x="455" y="176" type="line"/>
      <point x="566" y="378" type="line"/>
      <point x="496" y="378" type="line"/>
    </contour>
  </outline>
</glyph>
<glyph name="quotesingle" format="1">
  <advance width="188"/>
  <unicode hex="0027"/>
  <outline>
    <contour>
      <point x="107" y="536" type="line" name="hr00"/>
      <point x="129" y="836" type="line"/>
      <point x="68" y="836" type="line"/>
      <point x="68" y="536" type="line"/>
    </contour>
  </outline>
</glyph>
<glyph name="parenleft" format="1">
  <advance width="194"/>
  <unicode hex="0028"/>
  <outline>
    <contour>
      <point x="116" y="-30" type="line" name="hr00"/>
      <point x="95" y="3"/>
      <point x="85" y="58"/>
      <point x="85" y="134" type="curve" smooth="yes"/>
      <point x="85" y="325" type="line" smooth="yes"/>
      <point x="85" y="412"/>
      <point x="107" y="477"/>
      <point x="135" y="505" type="curve" smooth="yes"/>
      <point x="144" y="513"/>
      <point x="157" y="521"/>
      <point x="172" y="529" type="curve" smooth="yes"/>
      <point x="182" y="535"/>
      <point x="187" y="543"/>
      <point x="187" y="552" type="curve" smooth="yes"/>
      <point x="187" y="567"/>
      <point x="179" y="574"/>
      <point x="163" y="574" type="curve" smooth="yes"/>
      <point x="142" y="574"/>
      <point x="95" y="546"/>
      <point x="70" y="498" type="curve" smooth="yes"/>
      <point x="46" y="451"/>
      <point x="34" y="383"/>
      <point x="34" y="302" type="curve" smooth="yes"/>
      <point x="34" y="153" type="line" smooth="yes"/>
      <point x="34" y="89"/>
      <point x="43" y="6"/>
      <point x="68" y="-43" type="curve" smooth="yes"/>
      <point x="81" y="-68"/>
      <point x="99" y="-89"/>
      <point x="121" y="-105" type="curve" smooth="yes"/>
      <point x="137" y="-117"/>
      <point x="151" y="-122"/>
      <point x="163" y="-122" type="curve" smooth="yes"/>
      <point x="179" y="-122"/>
      <point x="187" y="-115"/>
      <point x="187" y="-100" type="curve"/>
    </contour>
  </outline>
</glyph>
<glyph name="parenright" format="1">
  <advance width="195"/>
  <unicode hex="0029"/>
  <outline>
    <contour>
      <point x="165" y="302" type="line" smooth="yes" name="hr00"/>
      <point x="165" y="387"/>
      <point x="152" y="451"/>
      <point x="128" y="495" type="curve" smooth="yes"/>
      <point x="114" y="520"/>
      <point x="98" y="542"/>
      <point x="77" y="559" type="curve"/>
      <point x="62" y="569"/>
      <point x="48" y="574"/>
      <point x="37" y="574" type="curve" smooth="yes"/>
      <point x="20" y="574"/>
      <point x="11" y="567"/>
      <point x="11" y="552" type="curve" smooth="yes"/>
      <point x="11" y="542"/>
      <point x="18" y="533"/>
      <point x="31" y="526" type="curve" smooth="yes"/>
      <point x="45" y="519"/>
      <point x="56" y="512"/>
      <point x="64" y="505" type="curve" smooth="yes"/>
      <point x="92" y="477"/>
      <point x="116" y="405"/>
      <point x="116" y="325" type="curve" smooth="yes"/>
      <point x="116" y="134" type="line" smooth="yes"/>
      <point x="116" y="40"/>
      <point x="98" y="-22"/>
      <point x="63" y="-53" type="curve" smooth="yes"/>
      <point x="28" y="-84"/>
      <point x="11" y="-100"/>
      <point x="11" y="-101" type="curve" smooth="yes"/>
      <point x="11" y="-115"/>
      <point x="19" y="-122"/>
      <point x="36" y="-122" type="curve" smooth="yes"/>
      <point x="51" y="-122"/>
      <point x="69" y="-111"/>
      <point x="91" y="-90" type="curve" smooth="yes"/>
      <point x="108" y="-75"/>
      <point x="122" y="-58"/>
      <point x="132" y="-39" type="curve" smooth="yes"/>
      <point x="156" y="9"/>
      <point x="165" y="85"/>
      <point x="165" y="153" type="curve" smooth="yes"/>
    </contour>
  </outline>
</glyph>
<glyph name="asterisk" format="1">
  <advance width="673"/>
  <unicode hex="002A"/>
  <outline>
    <contour>
      <point x="245" y="179" type="line" name="hr00"/>
      <point x="176" y="-11" type="line"/>
      <point x="353" y="109" type="line"/>
      <point x="530" y="-8" type="line"/>
      <point x="460" y="179" type="line"/>
      <point x="638" y="307" type="line"/>
      <point x="422" y="307" type="line"/>
      <point x="353" y="490" type="line"/>
      <point x="287" y="307" type="line"/>
      <point x="62" y="307" type="line"/>
    </contour>
  </outline>
</glyph>
<glyph name="plus" format="1">
  <advance width="525"/>
  <unicode hex="002B"/>
  <outline>
    <contour>
      <point x="468" y="266" type="line" name="hr00"/>
      <point x="296" y="266" type="line"/>
      <point x="296" y="444" type="line"/>
      <point x="233" y="444" type="line"/>
      <point x="233" y="266" type="line"/>
      <point x="62" y="266" type="line"/>
      <point x="62" y="199" type="line"/>
      <point x="233" y="199" type="line"/>
      <point x="233" y="15" type="line"/>
      <point x="296" y="15" type="line"/>
      <point x="296" y="199" type="line"/>
      <point x="468" y="199" type="line"/>
    </contour>
  </outline>
</glyph>
<glyph name="comma" format="1">
  <advance width="191"/>
  <unicode hex="002C"/>
  <outline>
    <contour>
      <point x="119" y="29" type="curve" smooth="yes" name="hr00"/>
      <point x="119" y="59"/>
      <point x="103" y="74"/>
      <point x="72" y="74" type="curve" smooth="yes"/>
      <point x="43" y="74"/>
      <point x="29" y="60"/>
      <point x="29" y="33" type="curve" smooth="yes"/>
      <point x="29" y="2"/>
      <point x="43" y="-12"/>
      <point x="70" y="-9" type="curve"/>
      <point x="69" y="-20"/>
      <point x="64" y="-32"/>
      <point x="52" y="-44" type="curve" smooth="yes"/>
      <point x="30" y="-66"/>
      <point x="19" y="-76"/>
      <point x="19" y="-77" type="curve" smooth="yes"/>
      <point x="19" y="-94"/>
      <point x="39" y="-104"/>
      <point x="52" y="-95" type="curve"/>
      <point x="99" y="-71"/>
      <point x="119" y="-27"/>
    </contour>
  </outline>
</glyph>
<glyph name="hyphen" format="1">
  <advance width="419"/>
  <unicode hex="002D"/>
  <outline>
    <contour>
      <point x="55" y="243" type="line" smooth="yes" name="hr00"/>
      <point x="36" y="243"/>
      <point x="27" y="234"/>
      <point x="27" y="215" type="curve" smooth="yes"/>
      <point x="27" y="200"/>
      <point x="35" y="193"/>
      <point x="50" y="193" type="curve" smooth="yes"/>
      <point x="348" y="193" type="line" smooth="yes"/>
      <point x="361" y="193"/>
      <point x="367" y="201"/>
      <point x="367" y="217" type="curve" smooth="yes"/>
      <point x="367" y="234"/>
      <point x="362" y="243"/>
      <point x="351" y="243" type="curve" smooth="yes"/>
    </contour>
  </outline>
</glyph>
<glyph name="period" format="1">
  <advance width="181"/>
  <unicode hex="002E"/>
  <outline>
    <contour>
      <point x="134" y="33" type="curve" smooth="yes" name="hr00"/>
      <point x="134" y="61"/>
      <point x="112" y="80"/>
      <point x="84" y="80" type="curve" smooth="yes"/>
      <point x="55" y="80"/>
      <point x="36" y="61"/>
      <point x="36" y="33" type="curve" smooth="yes"/>
      <point x="36" y="4"/>
      <point x="59" y="-13"/>
      <point x="84" y="-13" type="curve" smooth="yes"/>
      <point x="111" y="-13"/>
      <point x="134" y="8"/>
    </contour>
  </outline>
</glyph>
<glyph name="slash" format="1">
  <advance width="202"/>
  <unicode hex="002F"/>
  <outline>
    <contour>
      <point x="222" y="539" type="line" name="hr00"/>
      <point x="222" y="554"/>
      <point x="212" y="562"/>
      <point x="192" y="562" type="curve" smooth="yes"/>
      <point x="175" y="562"/>
      <point x="167" y="554"/>
      <point x="167" y="538" type="curve"/>
      <point x="-47" y="-111" type="line"/>
      <point x="-47" y="-125"/>
      <point x="-38" y="-132"/>
      <point x="-19" y="-132" type="curve" smooth="yes"/>
      <point x="-1" y="-132"/>
      <point x="8" y="-126"/>
      <point x="8" y="-114" type="curve"/>
    </contour>
  </outline>
</glyph>
<glyph name="zero" format="1">
  <advance width="516"/>
  <unicode hex="0030"/>
  <outline>
    <contour>
      <point x="406" y="276" type="curve" smooth="yes" name="hr00"/>
      <point x="406" y="185"/>
      <point x="394" y="122"/>
      <point x="369" y="87" type="curve" smooth="yes"/>
      <point x="345" y="53"/>
      <point x="303" y="36"/>
      <point x="242" y="36" type="curve" smooth="yes"/>
      <point x="182" y="36"/>
      <point x="140" y="57"/>
      <point x="116" y="98" type="curve" smooth="yes"/>
      <point x="96" y="134"/>
      <point x="86" y="192"/>
      <point x="86" y="272" type="curve" smooth="yes"/>
      <point x="86" y="366"/>
      <point x="98" y="433"/>
      <point x="121" y="472" type="curve" smooth="yes"/>
      <point x="144" y="511"/>
      <point x="185" y="531"/>
      <point x="242" y="531" type="curve" smooth="yes"/>
      <point x="299" y="531"/>
      <point x="341" y="512"/>
      <point x="367" y="474" type="curve" smooth="yes"/>
      <point x="393" y="437"/>
      <point x="406" y="371"/>
    </contour>
    <contour>
      <point x="461" y="285" type="curve" smooth="yes"/>
      <point x="461" y="484"/>
      <point x="389" y="584"/>
      <point x="245" y="584" type="curve" smooth="yes"/>
      <point x="101" y="584"/>
      <point x="27" y="495"/>
      <point x="27" y="280" type="curve" smooth="yes"/>
      <point x="27" y="171"/>
      <point x="47" y="93"/>
      <point x="86" y="48" type="curve" smooth="yes"/>
      <point x="121" y="7"/>
      <point x="174" y="-13"/>
      <point x="245" y="-13" type="curve" smooth="yes"/>
      <point x="389" y="-13"/>
      <point x="461" y="86"/>
    </contour>
  </outline>
</glyph>
<glyph name="one" format="1">
  <advance width="291"/>
  <unicode hex="0031"/>
  <outline>
    <contour>
      <point x="199" y="549" type="line" smooth="yes" name="hr00"/>
      <point x="199" y="564"/>
      <point x="192" y="572"/>
      <point x="177" y="572" type="curve" smooth="yes"/>
      <point x="162" y="572"/>
      <point x="154" y="564"/>
      <point x="150" y="549" type="curve" smooth="yes"/>
      <point x="139" y="508" type="line"/>
      <point x="128" y="483"/>
      <point x="99" y="470"/>
      <point x="70" y="470" type="curve" smooth="yes"/>
      <point x="53" y="470"/>
      <point x="45" y="464"/>
      <point x="45" y="451" type="curve" smooth="yes"/>
      <point x="45" y="428"/>
      <point x="55" y="417"/>
      <point x="75" y="417" type="curve" smooth="yes"/>
      <point x="146" y="417" type="line"/>
      <point x="146" y="16" type="line" smooth="yes"/>
      <point x="146" y="-3"/>
      <point x="156" y="-14"/>
      <point x="177" y="-13" type="curve" smooth="yes"/>
      <point x="192" y="-13"/>
      <point x="199" y="-3"/>
      <point x="199" y="13" type="curve" smooth="yes"/>
    </contour>
  </outline>
</glyph>
<glyph name="two" format="1">
  <advance width="547"/>
  <unicode hex="0032"/>
  <outline>
    <contour>
      <point x="496" y="16" type="curve" smooth="yes" name="hr00"/>
      <point x="496" y="35"/>
      <point x="485" y="44"/>
      <point x="462" y="44" type="curve" smooth="yes"/>
      <point x="88" y="44" type="line"/>
      <point x="88" y="107"/>
      <point x="106" y="154"/>
      <point x="143" y="182" type="curve" smooth="yes"/>
      <point x="168" y="201"/>
      <point x="212" y="214"/>
      <point x="276" y="231" type="curve" smooth="yes"/>
      <point x="342" y="248"/>
      <point x="388" y="266"/>
      <point x="412" y="282" type="curve" smooth="yes"/>
      <point x="456" y="312"/>
      <point x="477" y="357"/>
      <point x="477" y="415" type="curve" smooth="yes"/>
      <point x="477" y="464"/>
      <point x="456" y="504"/>
      <point x="415" y="533" type="curve" smooth="yes"/>
      <point x="381" y="558"/>
      <point x="336" y="570"/>
      <point x="281" y="570" type="curve" smooth="yes"/>
      <point x="205" y="570"/>
      <point x="151" y="559"/>
      <point x="120" y="538" type="curve" smooth="yes"/>
      <point x="69" y="503"/>
      <point x="43" y="447"/>
      <point x="43" y="370" type="curve" smooth="yes"/>
      <point x="43" y="349"/>
      <point x="52" y="338"/>
      <point x="71" y="338" type="curve" smooth="yes"/>
      <point x="89" y="338"/>
      <point x="98" y="347"/>
      <point x="98" y="364" type="curve" smooth="yes"/>
      <point x="98" y="412"/>
      <point x="109" y="448"/>
      <point x="130" y="472" type="curve" smooth="yes"/>
      <point x="159" y="505"/>
      <point x="207" y="521"/>
      <point x="275" y="521" type="curve" smooth="yes"/>
      <point x="376" y="521"/>
      <point x="427" y="484"/>
      <point x="427" y="409" type="curve" smooth="yes"/>
      <point x="427" y="370"/>
      <point x="409" y="341"/>
      <point x="372" y="318" type="curve" smooth="yes"/>
      <point x="352" y="306"/>
      <point x="313" y="290"/>
      <point x="252" y="275" type="curve" smooth="yes"/>
      <point x="191" y="260"/>
      <point x="150" y="247"/>
      <point x="130" y="236" type="curve" smooth="yes"/>
      <point x="62" y="196"/>
      <point x="26" y="127"/>
      <point x="28" y="30" type="curve" smooth="yes"/>
      <point x="29" y="-13" type="line"/>
      <point x="471" y="-13" type="line" smooth="yes"/>
      <point x="488" y="-13"/>
      <point x="496" y="-3"/>
    </contour>
  </outline>
</glyph>
<glyph name="three" format="1">
  <advance width="513"/>
  <unicode hex="0033"/>
  <outline>
    <contour>
      <point x="461" y="171" type="curve" smooth="yes" name="hr00"/>
      <point x="461" y="246"/>
      <point x="432" y="294"/>
      <point x="374" y="316" type="curve"/>
      <point x="421" y="347"/>
      <point x="444" y="389"/>
      <point x="444" y="440" type="curve" smooth="yes"/>
      <point x="444" y="537"/>
      <point x="367" y="585"/>
      <point x="252" y="585" type="curve" smooth="yes"/>
      <point x="217" y="585"/>
      <point x="185" y="582"/>
      <point x="158" y="576" type="curve"/>
      <point x="125" y="565"/>
      <point x="97" y="544"/>
      <point x="73" y="513" type="curve" smooth="yes"/>
      <point x="50" y="483"/>
      <point x="38" y="450"/>
      <point x="38" y="415" type="curve" smooth="yes"/>
      <point x="38" y="392"/>
      <point x="47" y="380"/>
      <point x="66" y="380" type="curve" smooth="yes"/>
      <point x="81" y="380"/>
      <point x="90" y="388"/>
      <point x="93" y="403" type="curve" smooth="yes"/>
      <point x="103" y="449" type="line"/>
      <point x="124" y="508"/>
      <point x="174" y="537"/>
      <point x="255" y="537" type="curve" smooth="yes"/>
      <point x="336" y="537"/>
      <point x="389" y="501"/>
      <point x="389" y="434" type="curve" smooth="yes"/>
      <point x="389" y="405"/>
      <point x="375" y="382"/>
      <point x="349" y="362" type="curve" smooth="yes"/>
      <point x="324" y="344"/>
      <point x="297" y="334"/>
      <point x="266" y="334" type="curve" smooth="yes"/>
      <point x="201" y="334" type="line" smooth="yes"/>
      <point x="182" y="334"/>
      <point x="172" y="324"/>
      <point x="172" y="305" type="curve" smooth="yes"/>
      <point x="172" y="288"/>
      <point x="179" y="279"/>
      <point x="194" y="279" type="curve" smooth="yes"/>
      <point x="290" y="279" type="line" smooth="yes"/>
      <point x="366" y="279"/>
      <point x="404" y="243"/>
      <point x="404" y="171" type="curve" smooth="yes"/>
      <point x="404" y="84"/>
      <point x="348" y="41"/>
      <point x="235" y="41" type="curve" smooth="yes"/>
      <point x="135" y="41"/>
      <point x="82" y="91"/>
      <point x="82" y="190" type="curve"/>
      <point x="80" y="204"/>
      <point x="72" y="211"/>
      <point x="57" y="211" type="curve" smooth="yes"/>
      <point x="37" y="211"/>
      <point x="27" y="201"/>
      <point x="27" y="180" type="curve" smooth="yes"/>
      <point x="27" y="131"/>
      <point x="45" y="89"/>
      <point x="78" y="52" type="curve" smooth="yes"/>
      <point x="116" y="10"/>
      <point x="167" y="-13"/>
      <point x="232" y="-13" type="curve" smooth="yes"/>
      <point x="379" y="-13"/>
      <point x="461" y="59"/>
    </contour>
  </outline>
</glyph>
<glyph name="four" format="1">
  <advance width="531"/>
  <unicode hex="0034"/>
  <outline>
    <contour>
      <point x="99" y="193" type="line" name="hr00"/>
      <point x="332" y="491" type="line"/>
      <point x="332" y="193" type="line"/>
    </contour>
    <contour>
      <point x="387" y="193" type="line"/>
      <point x="387" y="538" type="line" smooth="yes"/>
      <point x="387" y="558"/>
      <point x="377" y="568"/>
      <point x="357" y="568" type="curve" smooth="yes"/>
      <point x="338" y="568"/>
      <point x="318" y="559"/>
      <point x="301" y="537" type="curve" smooth="yes"/>
      <point x="40" y="206" type="line" smooth="yes"/>
      <point x="32" y="195"/>
      <point x="27" y="184"/>
      <point x="27" y="169" type="curve" smooth="yes"/>
      <point x="27" y="148"/>
      <point x="38" y="138"/>
      <point x="61" y="138" type="curve" smooth="yes"/>
      <point x="332" y="138" type="line"/>
      <point x="332" y="8" type="line" smooth="yes"/>
      <point x="332" y="-6"/>
      <point x="341" y="-13"/>
      <point x="359" y="-13" type="curve" smooth="yes"/>
      <point x="378" y="-13"/>
      <point x="387" y="-5"/>
      <point x="387" y="11" type="curve" smooth="yes"/>
      <point x="387" y="138" type="line"/>
      <point x="447" y="138" type="line" smooth="yes"/>
      <point x="468" y="138"/>
      <point x="478" y="148"/>
      <point x="478" y="169" type="curve"/>
      <point x="475" y="185"/>
      <point x="467" y="193"/>
      <point x="453" y="193" type="curve" smooth="yes"/>
    </contour>
  </outline>
</glyph>
<glyph name="five" format="1">
  <advance width="517"/>
  <unicode hex="0035"/>
  <outline>
    <contour>
      <point x="467" y="186" type="curve" smooth="yes" name="hr00"/>
      <point x="467" y="333"/>
      <point x="398" y="406"/>
      <point x="260" y="406" type="curve" smooth="yes"/>
      <point x="188" y="406"/>
      <point x="134" y="391"/>
      <point x="98" y="360" type="curve"/>
      <point x="119" y="509" type="line"/>
      <point x="410" y="509" type="line" smooth="yes"/>
      <point x="429" y="509"/>
      <point x="438" y="518"/>
      <point x="438" y="536" type="curve" smooth="yes"/>
      <point x="438" y="553"/>
      <point x="428" y="562"/>
      <point x="407" y="562" type="curve" smooth="yes"/>
      <point x="68" y="562" type="line"/>
      <point x="35" y="315" type="line" smooth="yes"/>
      <point x="31" y="288"/>
      <point x="43" y="274"/>
      <point x="69" y="274" type="curve"/>
      <point x="80" y="275"/>
      <point x="89" y="280"/>
      <point x="98" y="290" type="curve" smooth="yes"/>
      <point x="111" y="305"/>
      <point x="121" y="315"/>
      <point x="127" y="318" type="curve"/>
      <point x="158" y="343"/>
      <point x="197" y="352"/>
      <point x="252" y="352" type="curve" smooth="yes"/>
      <point x="361" y="352"/>
      <point x="415" y="299"/>
      <point x="415" y="193" type="curve" smooth="yes"/>
      <point x="415" y="98"/>
      <point x="345" y="36"/>
      <point x="233" y="36" type="curve" smooth="yes"/>
      <point x="162" y="36"/>
      <point x="112" y="64"/>
      <point x="95" y="122" type="curve" smooth="yes"/>
      <point x="82" y="166" type="line"/>
      <point x="75" y="177"/>
      <point x="66" y="183"/>
      <point x="53" y="183" type="curve" smooth="yes"/>
      <point x="36" y="183"/>
      <point x="28" y="173"/>
      <point x="28" y="154" type="curve" smooth="yes"/>
      <point x="28" y="109"/>
      <point x="46" y="69"/>
      <point x="83" y="36" type="curve" smooth="yes"/>
      <point x="120" y="3"/>
      <point x="170" y="-13"/>
      <point x="231" y="-13" type="curve" smooth="yes"/>
      <point x="302" y="-13"/>
      <point x="363" y="5"/>
      <point x="402" y="37" type="curve" smooth="yes"/>
      <point x="446" y="72"/>
      <point x="467" y="123"/>
    </contour>
  </outline>
</glyph>
<glyph name="six" format="1">
  <advance width="517"/>
  <unicode hex="0036"/>
  <outline>
    <contour>
      <point x="411" y="184" type="curve" smooth="yes" name="hr00"/>
      <point x="411" y="91"/>
      <point x="350" y="36"/>
      <point x="250" y="36" type="curve" smooth="yes"/>
      <point x="146" y="36"/>
      <point x="94" y="84"/>
      <point x="94" y="180" type="curve" smooth="yes"/>
      <point x="94" y="221"/>
      <point x="100" y="250"/>
      <point x="113" y="268" type="curve" smooth="yes"/>
      <point x="143" y="311"/>
      <point x="193" y="333"/>
      <point x="264" y="333" type="curve" smooth="yes"/>
      <point x="312" y="333"/>
      <point x="348" y="318"/>
      <point x="373" y="289" type="curve" smooth="yes"/>
      <point x="398" y="260"/>
      <point x="411" y="225"/>
    </contour>
    <contour>
      <point x="464" y="183" type="curve" smooth="yes"/>
      <point x="464" y="244"/>
      <point x="446" y="293"/>
      <point x="410" y="330" type="curve" smooth="yes"/>
      <point x="375" y="367"/>
      <point x="329" y="385"/>
      <point x="274" y="385" type="curve" smooth="yes"/>
      <point x="177" y="385"/>
      <point x="112" y="357"/>
      <point x="79" y="300" type="curve"/>
      <point x="79" y="453"/>
      <point x="139" y="529"/>
      <point x="258" y="529" type="curve" smooth="yes"/>
      <point x="305" y="529"/>
      <point x="340" y="519"/>
      <point x="361" y="500" type="curve" smooth="yes"/>
      <point x="370" y="491"/>
      <point x="379" y="471"/>
      <point x="389" y="440" type="curve"/>
      <point x="398" y="419"/>
      <point x="409" y="408"/>
      <point x="422" y="408" type="curve" smooth="yes"/>
      <point x="437" y="409"/>
      <point x="445" y="417"/>
      <point x="445" y="432" type="curve" smooth="yes"/>
      <point x="445" y="467"/>
      <point x="431" y="499"/>
      <point x="402" y="528" type="curve" smooth="yes"/>
      <point x="367" y="561"/>
      <point x="321" y="578"/>
      <point x="264" y="578" type="curve" smooth="yes"/>
      <point x="184" y="578"/>
      <point x="126" y="555"/>
      <point x="89" y="509" type="curve" smooth="yes"/>
      <point x="48" y="457"/>
      <point x="27" y="382"/>
      <point x="27" y="285" type="curve" smooth="yes"/>
      <point x="27" y="86"/>
      <point x="96" y="-13"/>
      <point x="235" y="-13" type="curve" smooth="yes"/>
      <point x="388" y="-13"/>
      <point x="464" y="52"/>
    </contour>
  </outline>
</glyph>
<glyph name="seven" format="1">
  <advance width="519"/>
  <unicode hex="0037"/>
  <outline>
    <contour>
      <point x="456" y="479" type="curve" smooth="yes" name="hr00"/>
      <point x="463" y="487"/>
      <point x="467" y="498"/>
      <point x="467" y="511" type="curve" smooth="yes"/>
      <point x="467" y="535"/>
      <point x="457" y="547"/>
      <point x="438" y="547" type="curve" smooth="yes"/>
      <point x="48" y="547" type="line" smooth="yes"/>
      <point x="34" y="547"/>
      <point x="27" y="538"/>
      <point x="27" y="521" type="curve" smooth="yes"/>
      <point x="27" y="503"/>
      <point x="36" y="494"/>
      <point x="53" y="494" type="curve" smooth="yes"/>
      <point x="398" y="494" type="line"/>
      <point x="288" y="368"/>
      <point x="210" y="210"/>
      <point x="167" y="20" type="curve" smooth="yes"/>
      <point x="162" y="-2"/>
      <point x="173" y="-13"/>
      <point x="196" y="-13" type="curve"/>
      <point x="213" y="-11"/>
      <point x="222" y="-4"/>
      <point x="224" y="8" type="curve" smooth="yes"/>
      <point x="235" y="93"/>
      <point x="267" y="184"/>
      <point x="317" y="279" type="curve" smooth="yes"/>
      <point x="361" y="361"/>
      <point x="407" y="428"/>
    </contour>
  </outline>
</glyph>
<glyph name="eight" format="1">
  <advance width="516"/>
  <unicode hex="0038"/>
  <outline>
    <contour>
      <point x="409" y="172" type="curve" smooth="yes" name="hr00"/>
      <point x="409" y="93"/>
      <point x="348" y="40"/>
      <point x="241" y="40" type="curve" smooth="yes"/>
      <point x="197" y="40"/>
      <point x="160" y="51"/>
      <point x="130" y="75" type="curve" smooth="yes"/>
      <point x="101" y="98"/>
      <point x="86" y="128"/>
      <point x="86" y="162" type="curve" smooth="yes"/>
      <point x="86" y="207"/>
      <point x="98" y="238"/>
      <point x="121" y="257" type="curve"/>
      <point x="147" y="274"/>
      <point x="187" y="283"/>
      <point x="240" y="283" type="curve" smooth="yes"/>
      <point x="296" y="283"/>
      <point x="335" y="279"/>
      <point x="356" y="270" type="curve" smooth="yes"/>
      <point x="391" y="256"/>
      <point x="409" y="223"/>
    </contour>
    <contour>
      <point x="387" y="430" type="curve" smooth="yes"/>
      <point x="387" y="365"/>
      <point x="338" y="333"/>
      <point x="241" y="333" type="curve" smooth="yes"/>
      <point x="150" y="333"/>
      <point x="104" y="366"/>
      <point x="104" y="432" type="curve" smooth="yes"/>
      <point x="104" y="491"/>
      <point x="154" y="536"/>
      <point x="257" y="536" type="curve" smooth="yes"/>
      <point x="344" y="536"/>
      <point x="387" y="501"/>
    </contour>
    <contour>
      <point x="461" y="172" type="curve" smooth="yes"/>
      <point x="461" y="245"/>
      <point x="435" y="295"/>
      <point x="382" y="321" type="curve"/>
      <point x="423" y="348"/>
      <point x="444" y="385"/>
      <point x="444" y="434" type="curve" smooth="yes"/>
      <point x="444" y="534"/>
      <point x="367" y="584"/>
      <point x="250" y="584" type="curve" smooth="yes"/>
      <point x="117" y="584"/>
      <point x="51" y="531"/>
      <point x="51" y="424" type="curve" smooth="yes"/>
      <point x="51" y="378"/>
      <point x="71" y="341"/>
      <point x="112" y="313" type="curve"/>
      <point x="55" y="288"/>
      <point x="27" y="242"/>
      <point x="27" y="175" type="curve" smooth="yes"/>
      <point x="27" y="60"/>
      <point x="108" y="-13"/>
      <point x="241" y="-13" type="curve" smooth="yes"/>
      <point x="308" y="-13"/>
      <point x="361" y="4"/>
      <point x="401" y="38" type="curve" smooth="yes"/>
      <point x="441" y="72"/>
      <point x="461" y="117"/>
    </contour>
  </outline>
</glyph>
<glyph name="nine" format="1">
  <advance width="524"/>
  <unicode hex="0039"/>
  <outline>
    <contour>
      <point x="404" y="376" type="curve" smooth="yes" name="hr00"/>
      <point x="404" y="288"/>
      <point x="339" y="234"/>
      <point x="232" y="234" type="curve" smooth="yes"/>
      <point x="130" y="234"/>
      <point x="79" y="285"/>
      <point x="79" y="386" type="curve" smooth="yes"/>
      <point x="79" y="431"/>
      <point x="94" y="467"/>
      <point x="121" y="495" type="curve" smooth="yes"/>
      <point x="148" y="522"/>
      <point x="186" y="537"/>
      <point x="237" y="537" type="curve" smooth="yes"/>
      <point x="348" y="537"/>
      <point x="404" y="483"/>
    </contour>
    <contour>
      <point x="470" y="307" type="curve" smooth="yes"/>
      <point x="470" y="492"/>
      <point x="394" y="585"/>
      <point x="241" y="585" type="curve" smooth="yes"/>
      <point x="100" y="585"/>
      <point x="27" y="500"/>
      <point x="27" y="379" type="curve" smooth="yes"/>
      <point x="27" y="332"/>
      <point x="39" y="290"/>
      <point x="66" y="254" type="curve" smooth="yes"/>
      <point x="102" y="206"/>
      <point x="154" y="184"/>
      <point x="220" y="184" type="curve" smooth="yes"/>
      <point x="322" y="184"/>
      <point x="387" y="212"/>
      <point x="416" y="268" type="curve"/>
      <point x="416" y="200"/>
      <point x="401" y="146"/>
      <point x="374" y="105" type="curve" smooth="yes"/>
      <point x="343" y="59"/>
      <point x="299" y="36"/>
      <point x="241" y="36" type="curve" smooth="yes"/>
      <point x="159" y="36"/>
      <point x="111" y="66"/>
      <point x="97" y="126" type="curve" smooth="yes"/>
      <point x="92" y="149"/>
      <point x="82" y="160"/>
      <point x="65" y="160" type="curve" smooth="yes"/>
      <point x="50" y="160"/>
      <point x="42" y="151"/>
      <point x="42" y="132" type="curve" smooth="yes"/>
      <point x="42" y="103"/>
      <point x="56" y="76"/>
      <point x="82" y="47" type="curve" smooth="yes"/>
      <point x="118" y="8"/>
      <point x="166" y="-13"/>
      <point x="229" y="-13" type="curve" smooth="yes"/>
      <point x="308" y="-13"/>
      <point x="366" y="9"/>
      <point x="404" y="54" type="curve" smooth="yes"/>
      <point x="448" y="106"/>
      <point x="470" y="190"/>
    </contour>
  </outline>
</glyph>
<glyph name="colon" format="1">
  <advance width="158"/>
  <unicode hex="003A"/>
  <outline>
    <contour>
      <point x="134" y="33" type="curve" smooth="yes" name="hr00"/>
      <point x="134" y="61"/>
      <point x="112" y="80"/>
      <point x="84" y="80" type="curve" smooth="yes"/>
      <point x="55" y="80"/>
      <point x="36" y="61"/>
      <point x="36" y="33" type="curve" smooth="yes"/>
      <point x="36" y="4"/>
      <point x="59" y="-13"/>
      <point x="84" y="-13" type="curve" smooth="yes"/>
      <point x="111" y="-13"/>
      <point x="134" y="8"/>
    </contour>
    <contour>
      <point x="134" y="349" type="curve" smooth="yes"/>
      <point x="134" y="374"/>
      <point x="112" y="395"/>
      <point x="84" y="395" type="curve" smooth="yes"/>
      <point x="52" y="395"/>
      <point x="36" y="380"/>
      <point x="36" y="349" type="curve" smooth="yes"/>
      <point x="36" y="321"/>
      <point x="59" y="302"/>
      <point x="84" y="302" type="curve" smooth="yes"/>
      <point x="111" y="302"/>
      <point x="134" y="324"/>
    </contour>
  </outline>
</glyph>
<glyph name="semicolon" format="1">
  <advance width="149"/>
  <unicode hex="003B"/>
  <outline>
    <contour>
      <point x="128" y="29" type="curve" smooth="yes" name="hr00"/>
      <point x="128" y="59"/>
      <point x="112" y="74"/>
      <point x="81" y="74" type="curve" smooth="yes"/>
      <point x="52" y="74"/>
      <point x="38" y="60"/>
      <point x="38" y="33" type="curve" smooth="yes"/>
      <point x="38" y="2"/>
      <point x="52" y="-12"/>
      <point x="79" y="-9" type="curve"/>
      <point x="78" y="-20"/>
      <point x="73" y="-32"/>
      <point x="61" y="-44" type="curve" smooth="yes"/>
      <point x="39" y="-66"/>
      <point x="28" y="-76"/>
      <point x="28" y="-77" type="curve" smooth="yes"/>
      <point x="28" y="-94"/>
      <point x="48" y="-104"/>
      <point x="61" y="-95" type="curve"/>
      <point x="108" y="-71"/>
      <point x="128" y="-27"/>
    </contour>
    <contour>
      <point x="134" y="349" type="curve" smooth="yes"/>
      <point x="134" y="374"/>
      <point x="114" y="395"/>
      <point x="85" y="395" type="curve" smooth="yes"/>
      <point x="54" y="395"/>
      <point x="38" y="380"/>
      <point x="38" y="349" type="curve" smooth="yes"/>
      <point x="38" y="321"/>
      <point x="60" y="302"/>
      <point x="85" y="302" type="curve" smooth="yes"/>
      <point x="112" y="302"/>
      <point x="134" y="324"/>
    </contour>
  </outline>
</glyph>
<glyph name="less" format="1">
  <advance width="717"/>
  <unicode hex="003C"/>
  <outline>
    <contour>
      <point x="628" y="491" type="line" name="hr00"/>
      <point x="110" y="277" type="line"/>
      <point x="110" y="237" type="line"/>
      <point x="628" y="24" type="line"/>
      <point x="628" y="86" type="line"/>
      <point x="208" y="256" type="line"/>
      <point x="628" y="428" type="line"/>
    </contour>
  </outline>
</glyph>
<glyph name="equal" format="1">
  <advance width="450"/>
  <unicode hex="003D"/>
  <outline>
    <contour>
      <point x="55" y="151" type="line" smooth="yes" name="hr00"/>
      <point x="36" y="151"/>
      <point x="27" y="141"/>
      <point x="27" y="122" type="curve" smooth="yes"/>
      <point x="27" y="108"/>
      <point x="35" y="101"/>
      <point x="50" y="101" type="curve" smooth="yes"/>
      <point x="374" y="101" type="line" smooth="yes"/>
      <point x="387" y="101"/>
      <point x="394" y="109"/>
      <point x="394" y="125" type="curve" smooth="yes"/>
      <point x="394" y="142"/>
      <point x="389" y="151"/>
      <point x="379" y="151" type="curve" smooth="yes"/>
    </contour>
    <contour>
      <point x="55" y="333" type="line" smooth="yes"/>
      <point x="36" y="333"/>
      <point x="27" y="324"/>
      <point x="27" y="307" type="curve" smooth="yes"/>
      <point x="27" y="293"/>
      <point x="35" y="286"/>
      <point x="50" y="286" type="curve" smooth="yes"/>
      <point x="374" y="286" type="line" smooth="yes"/>
      <point x="387" y="286"/>
      <point x="394" y="294"/>
      <point x="394" y="310" type="curve" smooth="yes"/>
      <point x="394" y="325"/>
      <point x="389" y="333"/>
      <point x="379" y="333" type="curve" smooth="yes"/>
    </contour>
  </outline>
</glyph>
<glyph name="greater" format="1">
  <advance width="717"/>
  <unicode hex="003E"/>
  <outline>
    <contour>
      <point x="110" y="491" type="line" name="hr00"/>
      <point x="110" y="428" type="line"/>
      <point x="531" y="256" type="line"/>
      <point x="110" y="86" type="line"/>
      <point x="110" y="24" type="line"/>
      <point x="628" y="237" type="line"/>
      <point x="628" y="277" type="line"/>
    </contour>
  </outline>
</glyph>
<glyph name="question" format="1">
  <advance width="485"/>
  <unicode hex="003F"/>
  <outline>
    <contour>
      <point x="295" y="29" type="curve" smooth="yes" name="hr00"/>
      <point x="295" y="58"/>
      <point x="281" y="72"/>
      <point x="253" y="72" type="curve" smooth="yes"/>
      <point x="224" y="72"/>
      <point x="210" y="58"/>
      <point x="210" y="29" type="curve" smooth="yes"/>
      <point x="210" y="1"/>
      <point x="224" y="-13"/>
      <point x="252" y="-13" type="curve" smooth="yes"/>
      <point x="277" y="-13"/>
      <point x="295" y="4"/>
    </contour>
    <contour>
      <point x="454" y="425" type="curve" smooth="yes"/>
      <point x="454" y="473"/>
      <point x="440" y="510"/>
      <point x="414" y="539" type="curve" smooth="yes"/>
      <point x="378" y="577"/>
      <point x="324" y="597"/>
      <point x="249" y="597" type="curve" smooth="yes"/>
      <point x="121" y="597"/>
      <point x="51" y="512"/>
      <point x="51" y="384" type="curve" smooth="yes"/>
      <point x="51" y="367"/>
      <point x="61" y="346"/>
      <point x="74" y="346" type="curve" smooth="yes"/>
      <point x="94" y="346"/>
      <point x="104" y="356"/>
      <point x="104" y="377" type="curve" smooth="yes"/>
      <point x="104" y="480"/>
      <point x="146" y="541"/>
      <point x="257" y="541" type="curve" smooth="yes"/>
      <point x="362" y="541"/>
      <point x="407" y="502"/>
      <point x="407" y="414" type="curve" smooth="yes"/>
      <point x="407" y="376"/>
      <point x="391" y="349"/>
      <point x="360" y="332" type="curve" smooth="yes"/>
      <point x="343" y="322"/>
      <point x="317" y="308"/>
      <point x="280" y="291" type="curve"/>
      <point x="245" y="263"/>
      <point x="226" y="205"/>
      <point x="226" y="141" type="curve" smooth="yes"/>
      <point x="226" y="124"/>
      <point x="233" y="108"/>
      <point x="252" y="108" type="curve" smooth="yes"/>
      <point x="271" y="108"/>
      <point x="280" y="118"/>
      <point x="280" y="138" type="curve"/>
      <point x="277" y="170" type="line"/>
      <point x="277" y="219"/>
      <point x="306" y="254"/>
      <point x="365" y="276" type="curve" smooth="yes"/>
      <point x="424" y="298"/>
      <point x="454" y="348"/>
    </contour>
  </outline>
</glyph>
<glyph name="A" format="1">
  <advance width="549"/>
  <unicode hex="0041"/>
  <outline>
    <contour>
      <point x="380" y="232" type="line" name="hr00"/>
      <point x="165" y="232" type="line"/>
      <point x="273" y="486" type="line"/>
    </contour>
    <contour>
      <point x="64" y="-1" type="line"/>
      <point x="145" y="183" type="line"/>
      <point x="401" y="183" type="line"/>
      <point x="480" y="-1" type="line"/>
      <point x="539" y="-1" type="line"/>
      <point x="303" y="546" type="line"/>
      <point x="243" y="546" type="line"/>
      <point x="9" y="-1" type="line"/>
    </contour>
  </outline>
</glyph>
<glyph name="B" format="1">
  <advance width="425"/>
  <unicode hex="0042"/>
  <outline>
    <contour>
      <point x="182" y="498" type="line" smooth="yes" name="hr00"/>
      <point x="236" y="498"/>
      <point x="273" y="486"/>
      <point x="294" y="463" type="curve" smooth="yes"/>
      <point x="310" y="444"/>
      <point x="317" y="427"/>
      <point x="317" y="403" type="curve" smooth="yes"/>
      <point x="317" y="370"/>
      <point x="300" y="341"/>
      <point x="269" y="325" type="curve" smooth="yes"/>
      <point x="238" y="309"/>
      <point x="221" y="309"/>
      <point x="178" y="309" type="curve" smooth="yes"/>
      <point x="108" y="309" type="line"/>
      <point x="108" y="498" type="line"/>
    </contour>
    <contour>
      <point x="176" y="261" type="line" smooth="yes"/>
      <point x="239" y="261"/>
      <point x="255" y="259"/>
      <point x="282" y="248" type="curve" smooth="yes"/>
      <point x="321" y="233"/>
      <point x="348" y="196"/>
      <point x="348" y="155" type="curve" smooth="yes"/>
      <point x="348" y="114"/>
      <point x="323" y="75"/>
      <point x="291" y="62" type="curve" smooth="yes"/>
      <point x="259" y="49"/>
      <point x="238" y="47"/>
      <point x="185" y="47" type="curve" smooth="yes"/>
      <point x="108" y="47" type="line"/>
      <point x="108" y="261" type="line"/>
    </contour>
    <contour>
      <point x="205" y="-1" type="line" smooth="yes"/>
      <point x="262" y="-1"/>
      <point x="299" y="4"/>
      <point x="339" y="29" type="curve" smooth="yes"/>
      <point x="379" y="54"/>
      <point x="401" y="104"/>
      <point x="401" y="155" type="curve" smooth="yes"/>
      <point x="401" y="216"/>
      <point x="366" y="266"/>
      <point x="309" y="290" type="curve"/>
      <point x="327" y="305"/>
      <point x="340" y="318"/>
      <point x="348" y="328" type="curve" smooth="yes"/>
      <point x="363" y="347"/>
      <point x="370" y="371"/>
      <point x="370" y="400" type="curve" smooth="yes"/>
      <point x="370" y="488"/>
      <point x="306" y="546"/>
      <point x="191" y="546" type="curve" smooth="yes"/>
      <point x="54" y="546" type="line"/>
      <point x="54" y="-1" type="line"/>
    </contour>
  </outline>
</glyph>
<glyph name="C" format="1">
  <advance width="602"/>
  <unicode hex="0043"/>
  <outline>
    <contour>
      <point x="509" y="141" type="line" name="hr00"/>
      <point x="460" y="76"/>
      <point x="390" y="37"/>
      <point x="317" y="37" type="curve" smooth="yes"/>
      <point x="256" y="37"/>
      <point x="202" y="60"/>
      <point x="155" y="106" type="curve" smooth="yes"/>
      <point x="108" y="153"/>
      <point x="85" y="208"/>
      <point x="85" y="271" type="curve" smooth="yes"/>
      <point x="85" y="333"/>
      <point x="108" y="388"/>
      <point x="153" y="435" type="curve" smooth="yes"/>
      <point x="198" y="482"/>
      <point x="253" y="506"/>
      <point x="316" y="506" type="curve" smooth="yes"/>
      <point x="345" y="506"/>
      <point x="373" y="501"/>
      <point x="401" y="490" type="curve" smooth="yes"/>
      <point x="446" y="473"/>
      <point x="481" y="445"/>
      <point x="507" y="407" type="curve"/>
      <point x="567" y="407" type="line"/>
      <point x="554" y="440"/>
      <point x="527" y="471"/>
      <point x="486" y="500" type="curve" smooth="yes"/>
      <point x="436" y="537"/>
      <point x="380" y="555"/>
      <point x="317" y="555" type="curve" smooth="yes"/>
      <point x="238" y="555"/>
      <point x="170" y="528"/>
      <point x="114" y="473" type="curve" smooth="yes"/>
      <point x="59" y="419"/>
      <point x="31" y="352"/>
      <point x="31" y="271" type="curve" smooth="yes"/>
      <point x="31" y="192"/>
      <point x="59" y="125"/>
      <point x="116" y="71" type="curve" smooth="yes"/>
      <point x="173" y="17"/>
      <point x="240" y="-10"/>
      <point x="317" y="-10" type="curve" smooth="yes"/>
      <point x="366" y="-10"/>
      <point x="412" y="1"/>
      <point x="455" y="25" type="curve" smooth="yes"/>
      <point x="504" y="52"/>
      <point x="542" y="92"/>
      <point x="569" y="141" type="curve"/>
    </contour>
  </outline>
</glyph>
<glyph name="E" format="1">
  <advance width="397"/>
  <unicode hex="0045"/>
  <outline>
    <contour>
      <point x="350" y="-1" type="line" name="hr00"/>
      <point x="350" y="47" type="line"/>
      <point x="105" y="47" type="line"/>
      <point x="105" y="251" type="line"/>
      <point x="342" y="251" type="line"/>
      <point x="342" y="299" type="line"/>
      <point x="105" y="299" type="line"/>
      <point x="105" y="498" type="line"/>
      <point x="350" y="498" type="line"/>
      <point x="350" y="546" type="line"/>
      <point x="51" y="546" type="line"/>
      <point x="51" y="-1" type="line"/>
    </contour>
  </outline>
</glyph>
<glyph name="F" format="1">
  <advance width="359"/>
  <unicode hex="0046"/>
  <outline>
    <contour>
      <point x="105" y="-1" type="line" name="hr00"/>
      <point x="105" y="249" type="line"/>
      <point x="319" y="249" type="line"/>
      <point x="319" y="298" type="line"/>
      <point x="105" y="298" type="line"/>
      <point x="105" y="498" type="line"/>
      <point x="328" y="498" type="line"/>
      <point x="328" y="546" type="line"/>
      <point x="51" y="546" type="line"/>
      <point x="51" y="-1" type="line"/>
    </contour>
  </outline>
</glyph>
<glyph name="G" format="1">
  <advance width="647"/>
  <unicode hex="0047"/>
  <outline>
    <contour>
      <point x="240" y="201" type="line" name="hr00"/>
      <point x="546" y="201" type="line"/>
      <point x="536" y="158"/>
      <point x="512" y="122"/>
      <point x="474" y="91" type="curve" smooth="yes"/>
      <point x="429" y="55"/>
      <point x="380" y="37"/>
      <point x="326" y="37" type="curve" smooth="yes"/>
      <point x="256" y="37"/>
      <point x="197" y="61"/>
      <point x="150" y="108" type="curve" smooth="yes"/>
      <point x="105" y="154"/>
      <point x="83" y="208"/>
      <point x="83" y="271" type="curve" smooth="yes"/>
      <point x="83" y="334"/>
      <point x="106" y="389"/>
      <point x="152" y="436" type="curve" smooth="yes"/>
      <point x="198" y="483"/>
      <point x="255" y="507"/>
      <point x="323" y="507" type="curve" smooth="yes"/>
      <point x="365" y="507"/>
      <point x="405" y="497"/>
      <point x="444" y="475" type="curve" smooth="yes"/>
      <point x="477" y="457"/>
      <point x="501" y="431"/>
      <point x="518" y="401" type="curve"/>
      <point x="581" y="401" type="line"/>
      <point x="568" y="436"/>
      <point x="540" y="470"/>
      <point x="499" y="500" type="curve" smooth="yes"/>
      <point x="447" y="538"/>
      <point x="388" y="556"/>
      <point x="322" y="556" type="curve" smooth="yes"/>
      <point x="237" y="556"/>
      <point x="168" y="525"/>
      <point x="111" y="467" type="curve" smooth="yes"/>
      <point x="57" y="411"/>
      <point x="29" y="347"/>
      <point x="29" y="272" type="curve" smooth="yes"/>
      <point x="29" y="195"/>
      <point x="58" y="129"/>
      <point x="115" y="73" type="curve" smooth="yes"/>
      <point x="172" y="18"/>
      <point x="242" y="-10"/>
      <point x="323" y="-10" type="curve" smooth="yes"/>
      <point x="396" y="-10"/>
      <point x="461" y="11"/>
      <point x="519" y="57" type="curve" smooth="yes"/>
      <point x="582" y="107"/>
      <point x="613" y="172"/>
      <point x="613" y="249" type="curve"/>
      <point x="240" y="249" type="line"/>
    </contour>
  </outline>
</glyph>
<glyph name="H" format="1">
  <advance width="504"/>
  <unicode hex="0048"/>
  <outline>
    <contour>
      <point x="110" y="-1" type="line" name="hr00"/>
      <point x="110" y="255" type="line"/>
      <point x="395" y="255" type="line"/>
      <point x="395" y="-1" type="line"/>
      <point x="449" y="-1" type="line"/>
      <point x="449" y="546" type="line"/>
      <point x="395" y="546" type="line"/>
      <point x="395" y="305" type="line"/>
      <point x="110" y="305" type="line"/>
      <point x="110" y="546" type="line"/>
      <point x="56" y="546" type="line"/>
      <point x="56" y="-1" type="line"/>
    </contour>
  </outline>
</glyph>
<glyph name="I" format="1">
  <advance width="166"/>
  <unicode hex="0049"/>
  <outline>
    <contour>
      <point x="110" y="-1" type="line" name="hr00"/>
      <point x="110" y="546" type="line"/>
      <point x="56" y="546" type="line"/>
      <point x="56" y="-1" type="line"/>
    </contour>
  </outline>
</glyph>
<glyph name="J" format="1">
  <advance width="358"/>
  <unicode hex="004A"/>
  <outline>
    <contour>
      <point x="243" y="546" type="line" name="hr00"/>
      <point x="243" y="169" type="line" smooth="yes"/>
      <point x="243" y="130"/>
      <point x="239" y="102"/>
      <point x="230" y="85" type="curve"/>
      <point x="217" y="53"/>
      <point x="192" y="37"/>
      <point x="153" y="37" type="curve" smooth="yes"/>
      <point x="128" y="37"/>
      <point x="106" y="45"/>
      <point x="88" y="61" type="curve" smooth="yes"/>
      <point x="67" y="78"/>
      <point x="57" y="101"/>
      <point x="57" y="128" type="curve"/>
      <point x="4" y="128" type="line"/>
      <point x="4" y="83"/>
      <point x="21" y="48"/>
      <point x="55" y="21" type="curve" smooth="yes"/>
      <point x="82" y="0"/>
      <point x="115" y="-10"/>
      <point x="152" y="-10" type="curve" smooth="yes"/>
      <point x="212" y="-10"/>
      <point x="262" y="19"/>
      <point x="282" y="68" type="curve" smooth="yes"/>
      <point x="295" y="101"/>
      <point x="297" y="124"/>
      <point x="297" y="172" type="curve" smooth="yes"/>
      <point x="297" y="546" type="line"/>
    </contour>
  </outline>
</glyph>
<glyph name="K" format="1">
  <advance width="437"/>
  <unicode hex="004B"/>
  <outline>
    <contour>
      <point x="113" y="-1" type="line" name="hr00"/>
      <point x="113" y="148" type="line"/>
      <point x="184" y="237" type="line"/>
      <point x="368" y="-1" type="line"/>
      <point x="436" y="-1" type="line"/>
      <point x="219" y="278" type="line"/>
      <point x="435" y="546" type="line"/>
      <point x="366" y="546" type="line"/>
      <point x="113" y="230" type="line"/>
      <point x="113" y="546" type="line"/>
      <point x="59" y="546" type="line"/>
      <point x="59" y="-1" type="line"/>
    </contour>
  </outline>
</glyph>
<glyph name="L" format="1">
  <advance width="342"/>
  <unicode hex="004C"/>
  <outline>
    <contour>
      <point x="339" y="-1" type="line" name="hr00"/>
      <point x="339" y="47" type="line"/>
      <point x="113" y="47" type="line"/>
      <point x="113" y="546" type="line"/>
      <point x="59" y="546" type="line"/>
      <point x="59" y="-1" type="line"/>
    </contour>
  </outline>
</glyph>
<glyph name="M" format="1">
  <advance width="680"/>
  <unicode hex="004D"/>
  <outline>
    <contour>
      <point x="110" y="-1" type="line" name="hr00"/>
      <point x="111" y="490" type="line"/>
      <point x="316" y="-1" type="line"/>
      <point x="362" y="-1" type="line"/>
      <point x="570" y="489" type="line"/>
      <point x="570" y="-1" type="line"/>
      <point x="624" y="-1" type="line"/>
      <point x="624" y="546" type="line"/>
      <point x="540" y="546" type="line"/>
      <point x="340" y="78" type="line"/>
      <point x="140" y="546" type="line"/>
      <point x="56" y="546" type="line"/>
      <point x="56" y="-1" type="line"/>
    </contour>
  </outline>
</glyph>
<glyph name="N" format="1">
  <advance width="549"/>
  <unicode hex="004E"/>
  <outline>
    <contour>
      <point x="109" y="7" type="line" name="hr00"/>
      <point x="110" y="490" type="line"/>
      <point x="437" y="7" type="line"/>
      <point x="491" y="7" type="line"/>
      <point x="491" y="555" type="line"/>
      <point x="438" y="555" type="line"/>
      <point x="435" y="99" type="line"/>
      <point x="129" y="555" type="line"/>
      <point x="55" y="555" type="line"/>
      <point x="55" y="7" type="line"/>
    </contour>
  </outline>
</glyph>
<glyph name="O" format="1">
  <advance width="643"/>
  <unicode hex="004F"/>
  <outline>
    <contour>
      <point x="85" y="269" type="curve" smooth="yes" name="hr00"/>
      <point x="85" y="336"/>
      <point x="108" y="393"/>
      <point x="155" y="438" type="curve" smooth="yes"/>
      <point x="202" y="484"/>
      <point x="257" y="507"/>
      <point x="321" y="507" type="curve" smooth="yes"/>
      <point x="385" y="507"/>
      <point x="439" y="484"/>
      <point x="486" y="437" type="curve" smooth="yes"/>
      <point x="533" y="390"/>
      <point x="556" y="336"/>
      <point x="556" y="271" type="curve" smooth="yes"/>
      <point x="556" y="207"/>
      <point x="533" y="152"/>
      <point x="486" y="106" type="curve" smooth="yes"/>
      <point x="440" y="60"/>
      <point x="385" y="37"/>
      <point x="321" y="37" type="curve" smooth="yes"/>
      <point x="256" y="37"/>
      <point x="201" y="59"/>
      <point x="154" y="106" type="curve" smooth="yes"/>
      <point x="107" y="153"/>
      <point x="85" y="207"/>
    </contour>
    <contour>
      <point x="31" y="269" type="curve" smooth="yes"/>
      <point x="31" y="192"/>
      <point x="60" y="126"/>
      <point x="117" y="71" type="curve" smooth="yes"/>
      <point x="174" y="17"/>
      <point x="242" y="-10"/>
      <point x="321" y="-10" type="curve" smooth="yes"/>
      <point x="399" y="-10"/>
      <point x="467" y="17"/>
      <point x="524" y="71" type="curve" smooth="yes"/>
      <point x="582" y="126"/>
      <point x="611" y="193"/>
      <point x="611" y="272" type="curve" smooth="yes"/>
      <point x="611" y="352"/>
      <point x="582" y="419"/>
      <point x="524" y="474" type="curve" smooth="yes"/>
      <point x="467" y="529"/>
      <point x="399" y="556"/>
      <point x="321" y="556" type="curve" smooth="yes"/>
      <point x="244" y="556"/>
      <point x="178" y="530"/>
      <point x="121" y="477" type="curve" smooth="yes"/>
      <point x="61" y="422"/>
      <point x="31" y="352"/>
    </contour>
  </outline>
</glyph>
<glyph name="P" format="1">
  <advance width="439"/>
  <unicode hex="0050"/>
  <outline>
    <contour>
      <point x="189" y="506" type="line" smooth="yes" name="hr00"/>
      <point x="248" y="506"/>
      <point x="271" y="504"/>
      <point x="299" y="491" type="curve" smooth="yes"/>
      <point x="342" y="471"/>
      <point x="363" y="434"/>
      <point x="363" y="391" type="curve" smooth="yes"/>
      <point x="363" y="346"/>
      <point x="342" y="313"/>
      <point x="299" y="291" type="curve" smooth="yes"/>
      <point x="271" y="277"/>
      <point x="256" y="276"/>
      <point x="209" y="276" type="curve" smooth="yes"/>
      <point x="189" y="276" type="line"/>
      <point x="109" y="276" type="line"/>
      <point x="109" y="506" type="line"/>
    </contour>
    <contour>
      <point x="109" y="7" type="line"/>
      <point x="109" y="228" type="line"/>
      <point x="207" y="228" type="line" smooth="yes"/>
      <point x="282" y="228"/>
      <point x="316" y="239"/>
      <point x="348" y="260" type="curve" smooth="yes"/>
      <point x="391" y="289"/>
      <point x="416" y="334"/>
      <point x="416" y="391" type="curve" smooth="yes"/>
      <point x="416" y="447"/>
      <point x="392" y="494"/>
      <point x="348" y="523" type="curve" smooth="yes"/>
      <point x="316" y="544"/>
      <point x="279" y="555"/>
      <point x="207" y="555" type="curve" smooth="yes"/>
      <point x="55" y="555" type="line"/>
      <point x="55" y="7" type="line"/>
    </contour>
  </outline>
</glyph>
<glyph name="Q" format="1">
  <advance width="645"/>
  <unicode hex="0051"/>
  <outline>
    <contour>
      <point x="92" y="205" type="curve" name="hr00"/>
      <point x="88" y="225"/>
      <point x="83" y="241"/>
      <point x="83" y="268" type="curve" smooth="yes"/>
      <point x="83" y="337"/>
      <point x="107" y="397"/>
      <point x="159" y="444" type="curve" smooth="yes"/>
      <point x="205" y="487"/>
      <point x="261" y="507"/>
      <point x="326" y="507" type="curve" smooth="yes"/>
      <point x="391" y="507"/>
      <point x="447" y="484"/>
      <point x="494" y="438" type="curve" smooth="yes"/>
      <point x="541" y="393"/>
      <point x="565" y="336"/>
      <point x="565" y="269" type="curve" smooth="yes"/>
      <point x="565" y="212"/>
      <point x="541" y="152"/>
      <point x="489" y="103" type="curve"/>
      <point x="458" y="130"/>
      <point x="433" y="150"/>
      <point x="416" y="161" type="curve" smooth="yes"/>
      <point x="387" y="181"/>
      <point x="358" y="195"/>
      <point x="327" y="205" type="curve" smooth="yes"/>
      <point x="292" y="216"/>
      <point x="252" y="223"/>
      <point x="208" y="223" type="curve" smooth="yes"/>
      <point x="182" y="223"/>
      <point x="159" y="221"/>
      <point x="138" y="216" type="curve"/>
      <point x="127" y="215"/>
      <point x="112" y="211"/>
    </contour>
    <contour>
      <point x="115" y="157" type="curve"/>
      <point x="143" y="170"/>
      <point x="159" y="174"/>
      <point x="200" y="174" type="curve" smooth="yes"/>
      <point x="260" y="174"/>
      <point x="324" y="159"/>
      <point x="372" y="130" type="curve" smooth="yes"/>
      <point x="379" y="125"/>
      <point x="392" y="116"/>
      <point x="411" y="101" type="curve" smooth="yes"/>
      <point x="419" y="94"/>
      <point x="431" y="85"/>
      <point x="447" y="74" type="curve"/>
      <point x="411" y="49"/>
      <point x="374" y="37"/>
      <point x="326" y="37" type="curve" smooth="yes"/>
      <point x="282" y="37"/>
      <point x="241" y="48"/>
      <point x="204" y="69" type="curve" smooth="yes"/>
      <point x="164" y="91"/>
      <point x="134" y="120"/>
    </contour>
    <contour>
      <point x="609" y="37" type="line"/>
      <point x="594" y="37"/>
      <point x="582" y="38"/>
      <point x="573" y="41" type="curve" smooth="yes"/>
      <point x="558" y="46"/>
      <point x="543" y="55"/>
      <point x="528" y="68" type="curve"/>
      <point x="589" y="124"/>
      <point x="620" y="195"/>
      <point x="620" y="268" type="curve" smooth="yes"/>
      <point x="620" y="349"/>
      <point x="592" y="418"/>
      <point x="535" y="473" type="curve" smooth="yes"/>
      <point x="479" y="528"/>
      <point x="409" y="556"/>
      <point x="324" y="556" type="curve" smooth="yes"/>
      <point x="236" y="556"/>
      <point x="164" y="526"/>
      <point x="108" y="467" type="curve" smooth="yes"/>
      <point x="55" y="412"/>
      <point x="29" y="346"/>
      <point x="29" y="270" type="curve" smooth="yes"/>
      <point x="29" y="192"/>
      <point x="58" y="126"/>
      <point x="115" y="71" type="curve" smooth="yes"/>
      <point x="172" y="17"/>
      <point x="242" y="-10"/>
      <point x="323" y="-10" type="curve" smooth="yes"/>
      <point x="382" y="-10"/>
      <point x="440" y="3"/>
      <point x="488" y="36" type="curve"/>
      <point x="508" y="19"/>
      <point x="524" y="7"/>
      <point x="535" y="2" type="curve" smooth="yes"/>
      <point x="555" y="-6"/>
      <point x="580" y="-10"/>
      <point x="609" y="-10" type="curve"/>
    </contour>
  </outline>
</glyph>
<glyph name="R" format="1">
  <advance width="449"/>
  <unicode hex="0052"/>
  <outline>
    <contour>
      <point x="105" y="-1" type="line" name="hr00"/>
      <point x="105" y="498" type="line"/>
      <point x="202" y="498" type="line" smooth="yes"/>
      <point x="246" y="498"/>
      <point x="277" y="493"/>
      <point x="310" y="476" type="curve" smooth="yes"/>
      <point x="345" y="459"/>
      <point x="368" y="414"/>
      <point x="368" y="371" type="curve" smooth="yes"/>
      <point x="368" y="319"/>
      <point x="334" y="270"/>
      <point x="277" y="254" type="curve" smooth="yes"/>
      <point x="260" y="249"/>
      <point x="221" y="246"/>
      <point x="160" y="246" type="curve"/>
      <point x="346" y="-1" type="line"/>
      <point x="414" y="-1" type="line"/>
      <point x="258" y="203" type="line"/>
      <point x="309" y="203"/>
      <point x="350" y="221"/>
      <point x="381" y="256" type="curve" smooth="yes"/>
      <point x="408" y="287"/>
      <point x="422" y="325"/>
      <point x="422" y="369" type="curve" smooth="yes"/>
      <point x="422" y="438"/>
      <point x="383" y="497"/>
      <point x="325" y="525" type="curve" smooth="yes"/>
      <point x="296" y="539"/>
      <point x="258" y="546"/>
      <point x="190" y="546" type="curve" smooth="yes"/>
      <point x="51" y="546" type="line"/>
      <point x="51" y="-1" type="line"/>
    </contour>
  </outline>
</glyph>
<glyph name="S" format="1">
  <advance width="367"/>
  <unicode hex="0053"/>
  <outline>
    <contour>
      <point x="14" y="151" type="line" name="hr00"/>
      <point x="14" y="96"/>
      <point x="33" y="53"/>
      <point x="71" y="24" type="curve" smooth="yes"/>
      <point x="102" y="0"/>
      <point x="139" y="-10"/>
      <point x="183" y="-10" type="curve" smooth="yes"/>
      <point x="230" y="-10"/>
      <point x="269" y="6"/>
      <point x="300" y="37" type="curve" smooth="yes"/>
      <point x="331" y="68"/>
      <point x="347" y="106"/>
      <point x="347" y="149" type="curve" smooth="yes"/>
      <point x="347" y="225"/>
      <point x="302" y="283"/>
      <point x="214" y="307" type="curve" smooth="yes"/>
      <point x="167" y="320"/>
      <point x="136" y="333"/>
      <point x="121" y="343" type="curve" smooth="yes"/>
      <point x="96" y="358"/>
      <point x="83" y="381"/>
      <point x="83" y="410" type="curve" smooth="yes"/>
      <point x="83" y="462"/>
      <point x="122" y="507"/>
      <point x="183" y="507" type="curve" smooth="yes"/>
      <point x="235" y="507"/>
      <point x="281" y="463"/>
      <point x="281" y="407" type="curve"/>
      <point x="334" y="407" type="line"/>
      <point x="334" y="448"/>
      <point x="320" y="483"/>
      <point x="291" y="512" type="curve" smooth="yes"/>
      <point x="262" y="541"/>
      <point x="226" y="556"/>
      <point x="183" y="556" type="curve" smooth="yes"/>
      <point x="138" y="556"/>
      <point x="101" y="542"/>
      <point x="72" y="514" type="curve" smooth="yes"/>
      <point x="43" y="486"/>
      <point x="29" y="451"/>
      <point x="29" y="409" type="curve" smooth="yes"/>
      <point x="29" y="362"/>
      <point x="46" y="326"/>
      <point x="81" y="301" type="curve" smooth="yes"/>
      <point x="97" y="290"/>
      <point x="127" y="277"/>
      <point x="170" y="264" type="curve" smooth="yes"/>
      <point x="205" y="254"/>
      <point x="231" y="244"/>
      <point x="247" y="233" type="curve" smooth="yes"/>
      <point x="278" y="212"/>
      <point x="293" y="184"/>
      <point x="293" y="147" type="curve" smooth="yes"/>
      <point x="293" y="115"/>
      <point x="282" y="89"/>
      <point x="260" y="68" type="curve" smooth="yes"/>
      <point x="238" y="47"/>
      <point x="212" y="37"/>
      <point x="183" y="37" type="curve" smooth="yes"/>
      <point x="115" y="37"/>
      <point x="68" y="83"/>
      <point x="68" y="151" type="curve"/>
    </contour>
  </outline>
</glyph>
<glyph name="T" format="1">
  <advance width="317"/>
  <unicode hex="0054"/>
  <outline>
    <contour>
      <point x="183" y="-1" type="line" name="hr00"/>
      <point x="183" y="498" type="line"/>
      <point x="309" y="498" type="line"/>
      <point x="309" y="546" type="line"/>
      <point x="4" y="546" type="line"/>
      <point x="4" y="498" type="line"/>
      <point x="130" y="498" type="line"/>
      <point x="130" y="-1" type="line"/>
    </contour>
  </outline>
</glyph>
<glyph name="U" format="1">
  <advance width="485"/>
  <unicode hex="0055"/>
  <outline>
    <contour>
      <point x="55" y="205" type="line" smooth="yes" name="hr00"/>
      <point x="55" y="160"/>
      <point x="62" y="121"/>
      <point x="76" y="90" type="curve" smooth="yes"/>
      <point x="93" y="54"/>
      <point x="118" y="26"/>
      <point x="154" y="8" type="curve" smooth="yes"/>
      <point x="180" y="-5"/>
      <point x="210" y="-10"/>
      <point x="241" y="-10" type="curve" smooth="yes"/>
      <point x="272" y="-10"/>
      <point x="302" y="-5"/>
      <point x="330" y="9" type="curve" smooth="yes"/>
      <point x="366" y="27"/>
      <point x="392" y="55"/>
      <point x="407" y="90" type="curve" smooth="yes"/>
      <point x="421" y="122"/>
      <point x="427" y="158"/>
      <point x="427" y="205" type="curve" smooth="yes"/>
      <point x="427" y="546" type="line"/>
      <point x="375" y="546" type="line"/>
      <point x="375" y="205" type="line" smooth="yes"/>
      <point x="375" y="161"/>
      <point x="368" y="129"/>
      <point x="355" y="105" type="curve" smooth="yes"/>
      <point x="340" y="79"/>
      <point x="320" y="60"/>
      <point x="294" y="48" type="curve" smooth="yes"/>
      <point x="279" y="41"/>
      <point x="262" y="37"/>
      <point x="241" y="37" type="curve" smooth="yes"/>
      <point x="221" y="37"/>
      <point x="203" y="41"/>
      <point x="187" y="48" type="curve" smooth="yes"/>
      <point x="162" y="60"/>
      <point x="142" y="79"/>
      <point x="127" y="106" type="curve" smooth="yes"/>
      <point x="115" y="128"/>
      <point x="109" y="161"/>
      <point x="109" y="205" type="curve" smooth="yes"/>
      <point x="109" y="546" type="line"/>
      <point x="55" y="546" type="line"/>
    </contour>
  </outline>
</glyph>
<glyph name="V" format="1">
  <advance width="520"/>
  <unicode hex="0056"/>
  <outline>
    <contour>
      <point x="282" y="-1" type="line" name="hr00"/>
      <point x="510" y="546" type="line"/>
      <point x="452" y="546" type="line"/>
      <point x="258" y="64" type="line"/>
      <point x="64" y="546" type="line"/>
      <point x="4" y="546" type="line"/>
      <point x="230" y="-1" type="line"/>
    </contour>
  </outline>
</glyph>
<glyph name="W" format="1">
  <advance width="711"/>
  <unicode hex="0057"/>
  <outline>
    <contour>
      <point x="232" y="-1" type="line" name="hr00"/>
      <point x="354" y="449" type="line"/>
      <point x="475" y="-1" type="line"/>
      <point x="544" y="-1" type="line"/>
      <point x="701" y="546" type="line"/>
      <point x="646" y="546" type="line"/>
      <point x="511" y="67" type="line"/>
      <point x="378" y="546" type="line"/>
      <point x="328" y="546" type="line"/>
      <point x="196" y="66" type="line"/>
      <point x="61" y="546" type="line"/>
      <point x="6" y="546" type="line"/>
      <point x="161" y="-1" type="line"/>
    </contour>
  </outline>
</glyph>
<glyph name="X" format="1">
  <advance width="450"/>
  <unicode hex="0058"/>
  <outline>
    <contour>
      <point x="67" y="-1" type="line" name="hr00"/>
      <point x="225" y="232" type="line"/>
      <point x="379" y="-1" type="line"/>
      <point x="442" y="-1" type="line"/>
      <point x="255" y="278" type="line"/>
      <point x="432" y="546" type="line"/>
      <point x="370" y="546" type="line"/>
      <point x="225" y="326" type="line"/>
      <point x="78" y="546" type="line"/>
      <point x="14" y="546" type="line"/>
      <point x="190" y="278" type="line"/>
      <point x="4" y="-1" type="line"/>
    </contour>
  </outline>
</glyph>
<glyph name="Y" format="1">
  <advance width="437"/>
  <unicode hex="0059"/>
  <outline>
    <contour>
      <point x="244" y="7" type="line" name="hr00"/>
      <point x="244" y="190" type="line"/>
      <point x="437" y="555" type="line"/>
      <point x="377" y="555" type="line"/>
      <point x="216" y="246" type="line"/>
      <point x="61" y="555" type="line"/>
      <point x="0" y="555" type="line"/>
      <point x="190" y="190" type="line"/>
      <point x="190" y="7" type="line"/>
    </contour>
  </outline>
</glyph>
<glyph name="Z" format="1">
  <advance width="356"/>
  <unicode hex="005A"/>
  <outline>
    <contour>
      <point x="348" y="-1" type="line" name="hr00"/>
      <point x="348" y="47" type="line"/>
      <point x="71" y="47" type="line"/>
      <point x="339" y="497" type="line"/>
      <point x="339" y="546" type="line"/>
      <point x="17" y="546" type="line"/>
      <point x="17" y="498" type="line"/>
      <point x="279" y="498" type="line"/>
      <point x="9" y="48" type="line"/>
      <point x="9" y="-1" type="line"/>
    </contour>
  </outline>
</glyph>
<glyph name="bracketleft" format="1">
  <advance width="190"/>
  <unicode hex="005B"/>
  <outline>
    <contour>
      <point x="45" y="-87" type="line" name="hr00"/>
      <point x="174" y="-87" type="line"/>
      <point x="174" y="-54" type="line"/>
      <point x="92" y="-54" type="line"/>
      <point x="92" y="-56" type="line"/>
      <point x="92" y="564" type="line"/>
      <point x="174" y="564" type="line"/>
      <point x="174" y="595" type="line"/>
      <point x="45" y="595" type="line"/>
      <point x="45" y="593" type="line"/>
      <point x="45" y="-85" type="line"/>
    </contour>
  </outline>
</glyph>
<glyph name="backslash" format="1">
  <advance width="190"/>
  <unicode hex="005C"/>
  <outline>
    <contour>
      <point x="188" y="-38" type="line" name="hr00"/>
      <point x="52" y="595" type="line"/>
      <point x="8" y="595" type="line"/>
      <point x="145" y="-38" type="line"/>
    </contour>
  </outline>
</glyph>
<glyph name="bracketright" format="1">
  <advance width="190"/>
  <unicode hex="005D"/>
  <outline>
    <contour>
      <point x="148" y="595" type="line" name="hr00"/>
      <point x="24" y="595" type="line"/>
      <point x="24" y="564" type="line"/>
      <point x="101" y="564" type="line"/>
      <point x="101" y="567" type="line"/>
      <point x="101" y="-56" type="line"/>
      <point x="101" y="-54" type="line"/>
      <point x="24" y="-54" type="line"/>
      <point x="24" y="-87" type="line"/>
      <point x="148" y="-87" type="line"/>
      <point x="148" y="-85" type="line"/>
    </contour>
  </outline>
</glyph>
<glyph name="asciicircum" format="1">
  <advance width="862"/>
  <unicode hex="005E"/>
  <outline>
    <contour>
      <point x="394" y="582" type="line" name="hr00"/>
      <point x="212" y="394" type="line"/>
      <point x="275" y="394" type="line"/>
      <point x="415" y="533" type="line"/>
      <point x="556" y="394" type="line"/>
      <point x="618" y="394" type="line"/>
      <point x="437" y="582" type="line"/>
    </contour>
  </outline>
</glyph>
<glyph name="underscore" format="1">
  <advance width="431"/>
  <unicode hex="005F"/>
  <outline>
    <contour>
      <point x="436" y="-217" type="line" name="hr00"/>
      <point x="436" y="-169" type="line"/>
      <point x="0" y="-169" type="line"/>
      <point x="0" y="-217" type="line"/>
    </contour>
  </outline>
</glyph>
<glyph name="grave" format="1">
  <advance width="350"/>
  <unicode hex="0060"/>
  <outline>
    <contour>
      <point x="208" y="462" type="line" name="hr00"/>
      <point x="155" y="593" type="line"/>
      <point x="94" y="593" type="line"/>
      <point x="162" y="462" type="line"/>
    </contour>
  </outline>
</glyph>
<glyph name="a" format="1">
  <advance width="504"/>
  <unicode hex="0061"/>
  <outline>
    <contour>
      <point x="80" y="209" type="curve" smooth="yes" name="hr00"/>
      <point x="80" y="259"/>
      <point x="96" y="299"/>
      <point x="128" y="330" type="curve" smooth="yes"/>
      <point x="161" y="361"/>
      <point x="200" y="377"/>
      <point x="247" y="377" type="curve" smooth="yes"/>
      <point x="292" y="377"/>
      <point x="331" y="360"/>
      <point x="362" y="327" type="curve" smooth="yes"/>
      <point x="393" y="294"/>
      <point x="409" y="255"/>
      <point x="409" y="210" type="curve" smooth="yes"/>
      <point x="409" y="163"/>
      <point x="393" y="123"/>
      <point x="361" y="91" type="curve" smooth="yes"/>
      <point x="330" y="60"/>
      <point x="292" y="44"/>
      <point x="247" y="44" type="curve" smooth="yes"/>
      <point x="198" y="44"/>
      <point x="157" y="60"/>
      <point x="126" y="91" type="curve" smooth="yes"/>
      <point x="95" y="123"/>
      <point x="80" y="162"/>
    </contour>
    <contour>
      <point x="406" y="413" type="line"/>
      <point x="405" y="340" type="line"/>
      <point x="384" y="373"/>
      <point x="358" y="395"/>
      <point x="327" y="408" type="curve" smooth="yes"/>
      <point x="302" y="418"/>
      <point x="275" y="423"/>
      <point x="247" y="423" type="curve" smooth="yes"/>
      <point x="182" y="423"/>
      <point x="131" y="400"/>
      <point x="89" y="357" type="curve" smooth="yes"/>
      <point x="50" y="316"/>
      <point x="29" y="268"/>
      <point x="29" y="211" type="curve" smooth="yes"/>
      <point x="29" y="152"/>
      <point x="49" y="102"/>
      <point x="90" y="61" type="curve" smooth="yes"/>
      <point x="131" y="20"/>
      <point x="184" y="-1"/>
      <point x="247" y="-1" type="curve" smooth="yes"/>
      <point x="273" y="-1"/>
      <point x="299" y="4"/>
      <point x="326" y="14" type="curve" smooth="yes"/>
      <point x="359" y="27"/>
      <point x="385" y="49"/>
      <point x="406" y="80" type="curve"/>
      <point x="406" y="8" type="line"/>
      <point x="458" y="8" type="line"/>
      <point x="458" y="413" type="line"/>
    </contour>
  </outline>
</glyph>
<glyph name="b" format="1">
  <advance width="504"/>
  <unicode hex="0062"/>
  <outline>
    <contour>
      <point x="427" y="209" type="curve" smooth="yes" name="hr00"/>
      <point x="427" y="162"/>
      <point x="411" y="123"/>
      <point x="380" y="91" type="curve" smooth="yes"/>
      <point x="349" y="60"/>
      <point x="309" y="44"/>
      <point x="260" y="44" type="curve" smooth="yes"/>
      <point x="216" y="44"/>
      <point x="178" y="60"/>
      <point x="146" y="91" type="curve" smooth="yes"/>
      <point x="114" y="123"/>
      <point x="98" y="163"/>
      <point x="98" y="210" type="curve" smooth="yes"/>
      <point x="98" y="255"/>
      <point x="113" y="294"/>
      <point x="144" y="327" type="curve" smooth="yes"/>
      <point x="175" y="360"/>
      <point x="214" y="377"/>
      <point x="260" y="377" type="curve" smooth="yes"/>
      <point x="306" y="377"/>
      <point x="345" y="361"/>
      <point x="378" y="330" type="curve" smooth="yes"/>
      <point x="411" y="299"/>
      <point x="427" y="259"/>
    </contour>
    <contour>
      <point x="101" y="8" type="line"/>
      <point x="103" y="80" type="line"/>
      <point x="124" y="49"/>
      <point x="150" y="27"/>
      <point x="183" y="14" type="curve" smooth="yes"/>
      <point x="208" y="4"/>
      <point x="234" y="-1"/>
      <point x="260" y="-1" type="curve" smooth="yes"/>
      <point x="324" y="-1"/>
      <point x="376" y="19"/>
      <point x="417" y="60" type="curve" smooth="yes"/>
      <point x="458" y="101"/>
      <point x="479" y="152"/>
      <point x="479" y="211" type="curve" smooth="yes"/>
      <point x="479" y="268"/>
      <point x="458" y="316"/>
      <point x="419" y="357" type="curve" smooth="yes"/>
      <point x="377" y="400"/>
      <point x="325" y="423"/>
      <point x="260" y="423" type="curve" smooth="yes"/>
      <point x="234" y="423"/>
      <point x="208" y="417"/>
      <point x="182" y="406" type="curve" smooth="yes"/>
      <point x="150" y="393"/>
      <point x="123" y="371"/>
      <point x="101" y="340" type="curve"/>
      <point x="101" y="556" type="line"/>
      <point x="50" y="556" type="line"/>
      <point x="50" y="8" type="line"/>
    </contour>
  </outline>
</glyph>
<glyph name="c" format="1">
  <advance width="478"/>
  <unicode hex="0063"/>
  <outline>
    <contour>
      <point x="392" y="125" type="line" name="hr00"/>
      <point x="380" y="103"/>
      <point x="364" y="85"/>
      <point x="345" y="72" type="curve" smooth="yes"/>
      <point x="318" y="53"/>
      <point x="286" y="43"/>
      <point x="247" y="43" type="curve" smooth="yes"/>
      <point x="200" y="43"/>
      <point x="160" y="59"/>
      <point x="128" y="91" type="curve" smooth="yes"/>
      <point x="96" y="124"/>
      <point x="80" y="163"/>
      <point x="80" y="210" type="curve" smooth="yes"/>
      <point x="80" y="260"/>
      <point x="98" y="301"/>
      <point x="134" y="333" type="curve" smooth="yes"/>
      <point x="167" y="362"/>
      <point x="204" y="376"/>
      <point x="247" y="376" type="curve" smooth="yes"/>
      <point x="276" y="376"/>
      <point x="302" y="369"/>
      <point x="327" y="355" type="curve" smooth="yes"/>
      <point x="355" y="340"/>
      <point x="377" y="319"/>
      <point x="392" y="291" type="curve"/>
      <point x="447" y="291" type="line"/>
      <point x="430" y="334"/>
      <point x="400" y="368"/>
      <point x="359" y="392" type="curve" smooth="yes"/>
      <point x="324" y="412"/>
      <point x="287" y="422"/>
      <point x="247" y="422" type="curve" smooth="yes"/>
      <point x="187" y="422"/>
      <point x="136" y="401"/>
      <point x="93" y="358" type="curve" smooth="yes"/>
      <point x="50" y="316"/>
      <point x="29" y="266"/>
      <point x="29" y="209" type="curve" smooth="yes"/>
      <point x="29" y="150"/>
      <point x="50" y="100"/>
      <point x="91" y="59" type="curve" smooth="yes"/>
      <point x="132" y="18"/>
      <point x="184" y="-2"/>
      <point x="247" y="-2" type="curve" smooth="yes"/>
      <point x="300" y="-2"/>
      <point x="346" y="13"/>
      <point x="383" y="43" type="curve" smooth="yes"/>
      <point x="409" y="64"/>
      <point x="430" y="92"/>
      <point x="447" y="125" type="curve"/>
    </contour>
  </outline>
</glyph>
<glyph name="d" format="1">
  <advance width="506"/>
  <unicode hex="0064"/>
  <outline>
    <contour>
      <point x="79" y="208" type="curve" smooth="yes" name="hr00"/>
      <point x="79" y="258"/>
      <point x="95" y="298"/>
      <point x="127" y="329" type="curve" smooth="yes"/>
      <point x="160" y="360"/>
      <point x="199" y="376"/>
      <point x="246" y="376" type="curve" smooth="yes"/>
      <point x="291" y="376"/>
      <point x="330" y="359"/>
      <point x="361" y="326" type="curve" smooth="yes"/>
      <point x="392" y="293"/>
      <point x="408" y="254"/>
      <point x="408" y="209" type="curve" smooth="yes"/>
      <point x="408" y="162"/>
      <point x="392" y="122"/>
      <point x="360" y="90" type="curve" smooth="yes"/>
      <point x="329" y="59"/>
      <point x="291" y="43"/>
      <point x="246" y="43" type="curve" smooth="yes"/>
      <point x="197" y="43"/>
      <point x="156" y="59"/>
      <point x="125" y="91" type="curve" smooth="yes"/>
      <point x="94" y="123"/>
      <point x="79" y="162"/>
    </contour>
    <contour>
      <point x="405" y="555" type="line"/>
      <point x="404" y="340" type="line"/>
      <point x="383" y="371"/>
      <point x="357" y="393"/>
      <point x="326" y="406" type="curve" smooth="yes"/>
      <point x="301" y="417"/>
      <point x="274" y="422"/>
      <point x="246" y="422" type="curve" smooth="yes"/>
      <point x="181" y="422"/>
      <point x="129" y="400"/>
      <point x="88" y="356" type="curve" smooth="yes"/>
      <point x="48" y="315"/>
      <point x="28" y="267"/>
      <point x="28" y="210" type="curve" smooth="yes"/>
      <point x="28" y="151"/>
      <point x="48" y="101"/>
      <point x="89" y="60" type="curve" smooth="yes"/>
      <point x="130" y="19"/>
      <point x="183" y="-2"/>
      <point x="246" y="-2" type="curve" smooth="yes"/>
      <point x="271" y="-2"/>
      <point x="298" y="3"/>
      <point x="326" y="14" type="curve" smooth="yes"/>
      <point x="358" y="27"/>
      <point x="384" y="48"/>
      <point x="405" y="79" type="curve"/>
      <point x="405" y="7" type="line"/>
      <point x="457" y="7" type="line"/>
      <point x="457" y="555" type="line"/>
    </contour>
  </outline>
</glyph>
<glyph name="e" format="1">
  <advance width="480"/>
  <unicode hex="0065"/>
  <outline>
    <contour>
      <point x="79" y="238" type="line" name="hr00"/>
      <point x="86" y="283"/>
      <point x="107" y="318"/>
      <point x="140" y="344" type="curve" smooth="yes"/>
      <point x="169" y="366"/>
      <point x="202" y="377"/>
      <point x="237" y="377" type="curve" smooth="yes"/>
      <point x="274" y="377"/>
      <point x="307" y="366"/>
      <point x="336" y="344" type="curve" smooth="yes"/>
      <point x="369" y="319"/>
      <point x="390" y="283"/>
      <point x="397" y="238" type="curve"/>
    </contour>
    <contour>
      <point x="450" y="206" type="line" smooth="yes"/>
      <point x="453" y="242"/>
      <point x="439" y="285"/>
      <point x="418" y="320" type="curve" smooth="yes"/>
      <point x="401" y="348"/>
      <point x="379" y="372"/>
      <point x="350" y="391" type="curve" smooth="yes"/>
      <point x="316" y="412"/>
      <point x="278" y="423"/>
      <point x="237" y="423" type="curve" smooth="yes"/>
      <point x="179" y="423"/>
      <point x="129" y="402"/>
      <point x="88" y="360" type="curve" smooth="yes"/>
      <point x="47" y="318"/>
      <point x="27" y="268"/>
      <point x="27" y="210" type="curve" smooth="yes"/>
      <point x="27" y="151"/>
      <point x="48" y="101"/>
      <point x="89" y="60" type="curve" smooth="yes"/>
      <point x="130" y="19"/>
      <point x="180" y="-1"/>
      <point x="237" y="-1" type="curve" smooth="yes"/>
      <point x="284" y="-1"/>
      <point x="325" y="12"/>
      <point x="361" y="38" type="curve" smooth="yes"/>
      <point x="398" y="65"/>
      <point x="423" y="99"/>
      <point x="436" y="140" type="curve"/>
      <point x="383" y="140" type="line"/>
      <point x="373" y="112"/>
      <point x="356" y="89"/>
      <point x="332" y="72" type="curve" smooth="yes"/>
      <point x="304" y="53"/>
      <point x="272" y="44"/>
      <point x="237" y="44" type="curve" smooth="yes"/>
      <point x="198" y="44"/>
      <point x="162" y="59"/>
      <point x="129" y="88" type="curve" smooth="yes"/>
      <point x="96" y="118"/>
      <point x="80" y="153"/>
      <point x="80" y="192" type="curve"/>
      <point x="449" y="192" type="line"/>
    </contour>
  </outline>
</glyph>
<glyph name="f" format="1">
  <advance width="231"/>
  <unicode hex="0066"/>
  <outline>
    <contour>
      <point x="126" y="-2" type="line" name="hr00"/>
      <point x="126" y="356" type="line"/>
      <point x="229" y="356" type="line"/>
      <point x="229" y="402" type="line"/>
      <point x="126" y="402" type="line"/>
      <point x="126" y="406" type="line" smooth="yes"/>
      <point x="126" y="435"/>
      <point x="131" y="456"/>
      <point x="140" y="471" type="curve" smooth="yes"/>
      <point x="156" y="496"/>
      <point x="186" y="508"/>
      <point x="229" y="508" type="curve"/>
      <point x="229" y="555" type="line"/>
      <point x="165" y="555"/>
      <point x="121" y="536"/>
      <point x="96" y="499" type="curve" smooth="yes"/>
      <point x="82" y="478"/>
      <point x="75" y="445"/>
      <point x="75" y="402" type="curve"/>
      <point x="12" y="402" type="line"/>
      <point x="12" y="356" type="line"/>
      <point x="75" y="356" type="line"/>
      <point x="75" y="-2" type="line"/>
    </contour>
  </outline>
</glyph>
<glyph name="g" format="1">
  <advance width="498"/>
  <unicode hex="0067"/>
  <outline>
    <contour>
      <point x="77" y="211" type="curve" smooth="yes" name="hr00"/>
      <point x="77" y="256"/>
      <point x="92" y="295"/>
      <point x="123" y="328" type="curve" smooth="yes"/>
      <point x="154" y="361"/>
      <point x="192" y="378"/>
      <point x="237" y="378" type="curve" smooth="yes"/>
      <point x="282" y="378"/>
      <point x="320" y="361"/>
      <point x="351" y="328" type="curve" smooth="yes"/>
      <point x="382" y="295"/>
      <point x="398" y="256"/>
      <point x="398" y="211" type="curve" smooth="yes"/>
      <point x="398" y="171"/>
      <point x="385" y="134"/>
      <point x="358" y="101" type="curve" smooth="yes"/>
      <point x="327" y="64"/>
      <point x="287" y="45"/>
      <point x="237" y="45" type="curve" smooth="yes"/>
      <point x="192" y="45"/>
      <point x="154" y="61"/>
      <point x="123" y="94" type="curve" smooth="yes"/>
      <point x="92" y="127"/>
      <point x="77" y="166"/>
    </contour>
    <contour>
      <point x="396" y="414" type="line"/>
      <point x="394" y="339" type="line"/>
      <point x="373" y="373"/>
      <point x="345" y="397"/>
      <point x="312" y="410" type="curve" smooth="yes"/>
      <point x="289" y="419"/>
      <point x="264" y="424"/>
      <point x="237" y="424" type="curve" smooth="yes"/>
      <point x="182" y="424"/>
      <point x="135" y="403"/>
      <point x="93" y="363" type="curve" smooth="yes"/>
      <point x="49" y="321"/>
      <point x="26" y="270"/>
      <point x="26" y="209" type="curve" smooth="yes"/>
      <point x="26" y="147"/>
      <point x="48" y="96"/>
      <point x="93" y="56" type="curve" smooth="yes"/>
      <point x="134" y="19"/>
      <point x="182" y="0"/>
      <point x="237" y="0" type="curve" smooth="yes"/>
      <point x="270" y="0"/>
      <point x="300" y="5"/>
      <point x="327" y="18" type="curve" smooth="yes"/>
      <point x="356" y="32"/>
      <point x="379" y="56"/>
      <point x="396" y="85" type="curve"/>
      <point x="396" y="47" type="line" smooth="yes"/>
      <point x="396" y="-5"/>
      <point x="380" y="-44"/>
      <point x="348" y="-71" type="curve" smooth="yes"/>
      <point x="321" y="-94"/>
      <point x="288" y="-105"/>
      <point x="249" y="-105" type="curve" smooth="yes"/>
      <point x="205" y="-105"/>
      <point x="169" y="-92"/>
      <point x="140" y="-67" type="curve" smooth="yes"/>
      <point x="121" y="-50"/>
      <point x="107" y="-28"/>
      <point x="96" y="-2" type="curve"/>
      <point x="42" y="-2" type="line"/>
      <point x="58" y="-57"/>
      <point x="90" y="-98"/>
      <point x="139" y="-124" type="curve" smooth="yes"/>
      <point x="171" y="-142"/>
      <point x="208" y="-151"/>
      <point x="250" y="-151" type="curve" smooth="yes"/>
      <point x="311" y="-151"/>
      <point x="377" y="-122"/>
      <point x="410" y="-77" type="curve" smooth="yes"/>
      <point x="427" y="-54"/>
      <point x="437" y="-28"/>
      <point x="442" y="1" type="curve" smooth="yes"/>
      <point x="445" y="16"/>
      <point x="447" y="40"/>
      <point x="447" y="71" type="curve" smooth="yes"/>
      <point x="447" y="414" type="line"/>
    </contour>
  </outline>
</glyph>
<glyph name="h" format="1">
  <advance width="452"/>
  <unicode hex="0068"/>
  <outline>
    <contour>
      <point x="96" y="-2" type="line" name="hr00"/>
      <point x="96" y="224" type="line" smooth="yes"/>
      <point x="96" y="272"/>
      <point x="111" y="309"/>
      <point x="134" y="332" type="curve" smooth="yes"/>
      <point x="161" y="357"/>
      <point x="193" y="367"/>
      <point x="222" y="367" type="curve" smooth="yes"/>
      <point x="250" y="367"/>
      <point x="287" y="355"/>
      <point x="311" y="331" type="curve" smooth="yes"/>
      <point x="335" y="308"/>
      <point x="350" y="273"/>
      <point x="350" y="221" type="curve" smooth="yes"/>
      <point x="350" y="-2" type="line"/>
      <point x="401" y="-2" type="line"/>
      <point x="401" y="221" type="line" smooth="yes"/>
      <point x="401" y="284"/>
      <point x="382" y="331"/>
      <point x="350" y="363" type="curve" smooth="yes"/>
      <point x="312" y="399"/>
      <point x="277" y="413"/>
      <point x="222" y="413" type="curve" smooth="yes"/>
      <point x="191" y="413"/>
      <point x="164" y="406"/>
      <point x="139" y="391" type="curve" smooth="yes"/>
      <point x="122" y="380"/>
      <point x="108" y="365"/>
      <point x="96" y="348" type="curve"/>
      <point x="96" y="546" type="line"/>
      <point x="45" y="546" type="line"/>
      <point x="45" y="-2" type="line"/>
    </contour>
  </outline>
</glyph>
<glyph name="i" format="1">
  <advance width="148"/>
  <unicode hex="0069"/>
  <outline>
    <contour>
      <point x="98" y="454" type="line" name="hr00"/>
      <point x="98" y="547" type="line"/>
      <point x="47" y="547" type="line"/>
      <point x="47" y="454" type="line"/>
    </contour>
    <contour>
      <point x="98" y="0" type="line"/>
      <point x="98" y="405" type="line"/>
      <point x="47" y="405" type="line"/>
      <point x="47" y="0" type="line"/>
    </contour>
  </outline>
</glyph>
<glyph name="j" format="1">
  <advance width="150"/>
  <unicode hex="006A"/>
  <outline>
    <contour>
      <point x="102" y="453" type="line" name="hr00"/>
      <point x="102" y="546" type="line"/>
      <point x="51" y="546" type="line"/>
      <point x="51" y="453" type="line"/>
    </contour>
    <contour>
      <point x="51" y="403" type="line"/>
      <point x="51" y="26" type="line" smooth="yes"/>
      <point x="51" y="-13"/>
      <point x="46" y="-41"/>
      <point x="35" y="-60" type="curve" smooth="yes"/>
      <point x="22" y="-83"/>
      <point x="0" y="-94"/>
      <point x="-31" y="-94" type="curve"/>
      <point x="-31" y="-144" type="line"/>
      <point x="-15" y="-144"/>
      <point x="-2" y="-143"/>
      <point x="9" y="-140" type="curve" smooth="yes"/>
      <point x="26" y="-135"/>
      <point x="43" y="-126"/>
      <point x="58" y="-113" type="curve" smooth="yes"/>
      <point x="79" y="-94"/>
      <point x="92" y="-72"/>
      <point x="97" y="-46" type="curve" smooth="yes"/>
      <point x="100" y="-31"/>
      <point x="102" y="-7"/>
      <point x="102" y="26" type="curve" smooth="yes"/>
      <point x="102" y="403" type="line"/>
    </contour>
  </outline>
</glyph>
<glyph name="k" format="1">
  <advance width="372"/>
  <unicode hex="006B"/>
  <outline>
    <contour>
      <point x="102" y="-1" type="line" name="hr00"/>
      <point x="102" y="75" type="line"/>
      <point x="167" y="160" type="line"/>
      <point x="302" y="-1" type="line"/>
      <point x="367" y="-1" type="line"/>
      <point x="199" y="199" type="line"/>
      <point x="358" y="403" type="line"/>
      <point x="294" y="403" type="line"/>
      <point x="102" y="155" type="line"/>
      <point x="102" y="546" type="line"/>
      <point x="51" y="546" type="line"/>
      <point x="51" y="-1" type="line"/>
    </contour>
  </outline>
</glyph>
<glyph name="l" format="1">
  <advance width="148"/>
  <unicode hex="006C"/>
  <outline>
    <contour>
      <point x="98" y="-1" type="line" name="hr00"/>
      <point x="98" y="546" type="line"/>
      <point x="47" y="546" type="line"/>
      <point x="47" y="-1" type="line"/>
    </contour>
  </outline>
</glyph>
<glyph name="m" format="1">
  <advance width="694"/>
  <unicode hex="006D"/>
  <outline>
    <contour>
      <point x="47" y="402" type="line" name="hr00"/>
      <point x="47" y="-2" type="line"/>
      <point x="98" y="-2" type="line"/>
      <point x="98" y="232" type="line" smooth="yes"/>
      <point x="98" y="319"/>
      <point x="140" y="367"/>
      <point x="208" y="367" type="curve" smooth="yes"/>
      <point x="280" y="367"/>
      <point x="321" y="319"/>
      <point x="321" y="232" type="curve" smooth="yes"/>
      <point x="321" y="-2" type="line"/>
      <point x="371" y="-2" type="line"/>
      <point x="371" y="232" type="line" smooth="yes"/>
      <point x="371" y="319"/>
      <point x="413" y="367"/>
      <point x="481" y="367" type="curve" smooth="yes"/>
      <point x="554" y="367"/>
      <point x="593" y="319"/>
      <point x="593" y="232" type="curve" smooth="yes"/>
      <point x="593" y="-2" type="line"/>
      <point x="644" y="-2" type="line"/>
      <point x="644" y="238" type="line" smooth="yes"/>
      <point x="644" y="345"/>
      <point x="578" y="413"/>
      <point x="481" y="413" type="curve" smooth="yes"/>
      <point x="423" y="413"/>
      <point x="378" y="387"/>
      <point x="345" y="334" type="curve"/>
      <point x="316" y="385"/>
      <point x="268" y="413"/>
      <point x="208" y="413" type="curve" smooth="yes"/>
      <point x="159" y="413"/>
      <point x="122" y="393"/>
      <point x="98" y="354" type="curve"/>
      <point x="98" y="402" type="line"/>
    </contour>
  </outline>
</glyph>
<glyph name="n" format="1">
  <advance width="451"/>
  <unicode hex="006E"/>
  <outline>
    <contour>
      <point x="98" y="-1" type="line" name="hr00"/>
      <point x="98" y="225" type="line" smooth="yes"/>
      <point x="98" y="273"/>
      <point x="113" y="310"/>
      <point x="136" y="333" type="curve" smooth="yes"/>
      <point x="163" y="358"/>
      <point x="195" y="368"/>
      <point x="224" y="368" type="curve" smooth="yes"/>
      <point x="286" y="368"/>
      <point x="352" y="323"/>
      <point x="352" y="222" type="curve" smooth="yes"/>
      <point x="352" y="-1" type="line"/>
      <point x="403" y="-1" type="line"/>
      <point x="403" y="222" type="line" smooth="yes"/>
      <point x="403" y="283"/>
      <point x="384" y="333"/>
      <point x="352" y="363" type="curve" smooth="yes"/>
      <point x="314" y="399"/>
      <point x="279" y="414"/>
      <point x="224" y="414" type="curve" smooth="yes"/>
      <point x="193" y="414"/>
      <point x="166" y="406"/>
      <point x="141" y="391" type="curve" smooth="yes"/>
      <point x="124" y="381"/>
      <point x="110" y="367"/>
      <point x="98" y="349" type="curve"/>
      <point x="98" y="403" type="line"/>
      <point x="47" y="403" type="line"/>
      <point x="47" y="-1" type="line"/>
    </contour>
  </outline>
</glyph>
<glyph name="o" format="1">
  <advance width="483"/>
  <unicode hex="006F"/>
  <outline>
    <contour>
      <point x="80" y="208" type="curve" smooth="yes" name="hr00"/>
      <point x="80" y="259"/>
      <point x="97" y="301"/>
      <point x="132" y="334" type="curve" smooth="yes"/>
      <point x="164" y="363"/>
      <point x="200" y="377"/>
      <point x="240" y="377" type="curve" smooth="yes"/>
      <point x="279" y="377"/>
      <point x="316" y="362"/>
      <point x="349" y="333" type="curve" smooth="yes"/>
      <point x="384" y="302"/>
      <point x="401" y="262"/>
      <point x="401" y="213" type="curve" smooth="yes"/>
      <point x="401" y="162"/>
      <point x="385" y="119"/>
      <point x="351" y="87" type="curve" smooth="yes"/>
      <point x="321" y="57"/>
      <point x="283" y="44"/>
      <point x="240" y="44" type="curve" smooth="yes"/>
      <point x="197" y="44"/>
      <point x="160" y="60"/>
      <point x="128" y="91" type="curve" smooth="yes"/>
      <point x="96" y="123"/>
      <point x="80" y="162"/>
    </contour>
    <contour>
      <point x="29" y="207" type="curve" smooth="yes"/>
      <point x="29" y="152"/>
      <point x="50" y="103"/>
      <point x="91" y="61" type="curve" smooth="yes"/>
      <point x="132" y="20"/>
      <point x="182" y="-1"/>
      <point x="239" y="-1" type="curve" smooth="yes"/>
      <point x="299" y="-1"/>
      <point x="349" y="20"/>
      <point x="390" y="62" type="curve" smooth="yes"/>
      <point x="431" y="105"/>
      <point x="452" y="154"/>
      <point x="452" y="211" type="curve" smooth="yes"/>
      <point x="452" y="267"/>
      <point x="431" y="316"/>
      <point x="390" y="359" type="curve" smooth="yes"/>
      <point x="349" y="402"/>
      <point x="298" y="423"/>
      <point x="239" y="423" type="curve" smooth="yes"/>
      <point x="184" y="423"/>
      <point x="136" y="403"/>
      <point x="95" y="363" type="curve" smooth="yes"/>
      <point x="51" y="322"/>
      <point x="29" y="270"/>
    </contour>
  </outline>
</glyph>
<glyph name="p" format="1">
  <advance width="504"/>
  <unicode hex="0070"/>
  <outline>
    <contour>
      <point x="422" y="209" type="curve" smooth="yes" name="hr00"/>
      <point x="422" y="162"/>
      <point x="406" y="123"/>
      <point x="375" y="91" type="curve" smooth="yes"/>
      <point x="344" y="60"/>
      <point x="304" y="44"/>
      <point x="255" y="44" type="curve" smooth="yes"/>
      <point x="211" y="44"/>
      <point x="173" y="60"/>
      <point x="141" y="91" type="curve" smooth="yes"/>
      <point x="109" y="123"/>
      <point x="93" y="163"/>
      <point x="93" y="210" type="curve" smooth="yes"/>
      <point x="93" y="255"/>
      <point x="108" y="294"/>
      <point x="139" y="327" type="curve" smooth="yes"/>
      <point x="170" y="360"/>
      <point x="209" y="377"/>
      <point x="255" y="377" type="curve" smooth="yes"/>
      <point x="301" y="377"/>
      <point x="340" y="361"/>
      <point x="373" y="330" type="curve" smooth="yes"/>
      <point x="406" y="299"/>
      <point x="422" y="259"/>
    </contour>
    <contour>
      <point x="96" y="-134" type="line"/>
      <point x="98" y="80" type="line"/>
      <point x="119" y="49"/>
      <point x="145" y="27"/>
      <point x="178" y="14" type="curve" smooth="yes"/>
      <point x="203" y="4"/>
      <point x="229" y="-1"/>
      <point x="255" y="-1" type="curve" smooth="yes"/>
      <point x="319" y="-1"/>
      <point x="371" y="19"/>
      <point x="412" y="60" type="curve" smooth="yes"/>
      <point x="453" y="101"/>
      <point x="474" y="152"/>
      <point x="474" y="211" type="curve" smooth="yes"/>
      <point x="474" y="268"/>
      <point x="453" y="316"/>
      <point x="414" y="357" type="curve" smooth="yes"/>
      <point x="372" y="400"/>
      <point x="320" y="423"/>
      <point x="255" y="423" type="curve" smooth="yes"/>
      <point x="228" y="423"/>
      <point x="202" y="418"/>
      <point x="177" y="407" type="curve" smooth="yes"/>
      <point x="146" y="394"/>
      <point x="119" y="371"/>
      <point x="96" y="340" type="curve"/>
      <point x="96" y="413" type="line"/>
      <point x="45" y="413" type="line"/>
      <point x="45" y="-134" type="line"/>
    </contour>
  </outline>
</glyph>
<glyph name="q" format="1">
  <advance width="504"/>
  <unicode hex="0071"/>
  <outline>
    <contour>
      <point x="77" y="209" type="curve" smooth="yes" name="hr00"/>
      <point x="77" y="259"/>
      <point x="93" y="299"/>
      <point x="125" y="330" type="curve" smooth="yes"/>
      <point x="158" y="361"/>
      <point x="197" y="377"/>
      <point x="244" y="377" type="curve" smooth="yes"/>
      <point x="289" y="377"/>
      <point x="328" y="360"/>
      <point x="359" y="327" type="curve" smooth="yes"/>
      <point x="390" y="294"/>
      <point x="406" y="255"/>
      <point x="406" y="210" type="curve" smooth="yes"/>
      <point x="406" y="163"/>
      <point x="390" y="123"/>
      <point x="358" y="91" type="curve" smooth="yes"/>
      <point x="327" y="60"/>
      <point x="289" y="44"/>
      <point x="244" y="44" type="curve" smooth="yes"/>
      <point x="195" y="44"/>
      <point x="154" y="60"/>
      <point x="123" y="91" type="curve" smooth="yes"/>
      <point x="92" y="123"/>
      <point x="77" y="162"/>
    </contour>
    <contour>
      <point x="403" y="413" type="line"/>
      <point x="402" y="340" type="line"/>
      <point x="382" y="371"/>
      <point x="356" y="394"/>
      <point x="324" y="407" type="curve" smooth="yes"/>
      <point x="299" y="418"/>
      <point x="272" y="423"/>
      <point x="244" y="423" type="curve" smooth="yes"/>
      <point x="179" y="423"/>
      <point x="128" y="400"/>
      <point x="86" y="357" type="curve" smooth="yes"/>
      <point x="47" y="316"/>
      <point x="26" y="268"/>
      <point x="26" y="211" type="curve" smooth="yes"/>
      <point x="26" y="152"/>
      <point x="46" y="102"/>
      <point x="87" y="61" type="curve" smooth="yes"/>
      <point x="128" y="20"/>
      <point x="181" y="-1"/>
      <point x="244" y="-1" type="curve" smooth="yes"/>
      <point x="270" y="-1"/>
      <point x="296" y="4"/>
      <point x="323" y="14" type="curve" smooth="yes"/>
      <point x="356" y="27"/>
      <point x="382" y="49"/>
      <point x="403" y="80" type="curve"/>
      <point x="403" y="-134" type="line"/>
      <point x="455" y="-134" type="line"/>
      <point x="455" y="413" type="line"/>
    </contour>
  </outline>
</glyph>
<glyph name="r" format="1">
  <advance width="222"/>
  <unicode hex="0072"/>
  <outline>
    <contour>
      <point x="98" y="-1" type="line" name="hr00"/>
      <point x="98" y="236" type="line" smooth="yes"/>
      <point x="98" y="267"/>
      <point x="108" y="295"/>
      <point x="127" y="320" type="curve" smooth="yes"/>
      <point x="146" y="344"/>
      <point x="178" y="360"/>
      <point x="214" y="360" type="curve"/>
      <point x="214" y="414" type="line"/>
      <point x="189" y="414"/>
      <point x="168" y="411"/>
      <point x="149" y="401" type="curve" smooth="yes"/>
      <point x="127" y="390"/>
      <point x="110" y="370"/>
      <point x="98" y="343" type="curve"/>
      <point x="98" y="403" type="line"/>
      <point x="47" y="403" type="line"/>
      <point x="47" y="-1" type="line"/>
    </contour>
  </outline>
</glyph>
<glyph name="s" format="1">
  <advance width="288"/>
  <unicode hex="0073"/>
  <outline>
    <contour>
      <point x="17" y="123" type="line" smooth="yes" name="hr00"/>
      <point x="17" y="82"/>
      <point x="30" y="49"/>
      <point x="58" y="26" type="curve" smooth="yes"/>
      <point x="80" y="7"/>
      <point x="109" y="-1"/>
      <point x="141" y="-1" type="curve" smooth="yes"/>
      <point x="182" y="-1"/>
      <point x="215" y="10"/>
      <point x="237" y="34" type="curve" smooth="yes"/>
      <point x="259" y="57"/>
      <point x="269" y="86"/>
      <point x="269" y="123" type="curve" smooth="yes"/>
      <point x="269" y="160"/>
      <point x="254" y="188"/>
      <point x="227" y="211" type="curve" smooth="yes"/>
      <point x="211" y="224"/>
      <point x="187" y="237"/>
      <point x="154" y="248" type="curve" smooth="yes"/>
      <point x="133" y="255"/>
      <point x="117" y="263"/>
      <point x="106" y="270" type="curve" smooth="yes"/>
      <point x="89" y="281"/>
      <point x="80" y="296"/>
      <point x="80" y="315" type="curve" smooth="yes"/>
      <point x="80" y="347"/>
      <point x="105" y="377"/>
      <point x="141" y="377" type="curve" smooth="yes"/>
      <point x="156" y="377"/>
      <point x="170" y="372"/>
      <point x="183" y="363" type="curve"/>
      <point x="196" y="352"/>
      <point x="203" y="335"/>
      <point x="203" y="313" type="curve"/>
      <point x="254" y="315" type="line"/>
      <point x="254" y="378"/>
      <point x="204" y="423"/>
      <point x="143" y="423" type="curve" smooth="yes"/>
      <point x="71" y="423"/>
      <point x="30" y="371"/>
      <point x="30" y="310" type="curve" smooth="yes"/>
      <point x="30" y="277"/>
      <point x="43" y="251"/>
      <point x="68" y="230" type="curve" smooth="yes"/>
      <point x="81" y="219"/>
      <point x="104" y="210"/>
      <point x="135" y="198" type="curve" smooth="yes"/>
      <point x="164" y="187"/>
      <point x="181" y="178"/>
      <point x="188" y="174" type="curve"/>
      <point x="207" y="160"/>
      <point x="217" y="141"/>
      <point x="217" y="117" type="curve" smooth="yes"/>
      <point x="217" y="73"/>
      <point x="189" y="44"/>
      <point x="141" y="44" type="curve" smooth="yes"/>
      <point x="124" y="44"/>
      <point x="109" y="48"/>
      <point x="96" y="57" type="curve" smooth="yes"/>
      <point x="77" y="70"/>
      <point x="68" y="93"/>
      <point x="68" y="126" type="curve"/>
      <point x="17" y="126" type="line"/>
    </contour>
  </outline>
</glyph>
<glyph name="t" format="1">
  <advance width="250"/>
  <unicode hex="0074"/>
  <outline>
    <contour>
      <point x="147" y="-1" type="line" name="hr00"/>
      <point x="147" y="357" type="line"/>
      <point x="243" y="357" type="line"/>
      <point x="243" y="403" type="line"/>
      <point x="147" y="403" type="line"/>
      <point x="147" y="546" type="line"/>
      <point x="96" y="546" type="line"/>
      <point x="96" y="403" type="line"/>
      <point x="10" y="403" type="line"/>
      <point x="10" y="357" type="line"/>
      <point x="96" y="357" type="line"/>
      <point x="96" y="-1" type="line"/>
    </contour>
  </outline>
</glyph>
<glyph name="u" format="1">
  <advance width="450"/>
  <unicode hex="0075"/>
  <outline>
    <contour>
      <point x="348" y="413" type="line" name="hr00"/>
      <point x="348" y="199" type="line" smooth="yes"/>
      <point x="348" y="166"/>
      <point x="344" y="139"/>
      <point x="335" y="120" type="curve" smooth="yes"/>
      <point x="312" y="70"/>
      <point x="268" y="39"/>
      <point x="220" y="44" type="curve"/>
      <point x="202" y="44"/>
      <point x="186" y="46"/>
      <point x="171" y="52" type="curve" smooth="yes"/>
      <point x="154" y="58"/>
      <point x="138" y="69"/>
      <point x="124" y="82" type="curve"/>
      <point x="104" y="107"/>
      <point x="96" y="141"/>
      <point x="96" y="190" type="curve" smooth="yes"/>
      <point x="96" y="413" type="line"/>
      <point x="45" y="413" type="line"/>
      <point x="45" y="190" type="line" smooth="yes"/>
      <point x="45" y="112"/>
      <point x="70" y="48"/>
      <point x="127" y="20" type="curve" smooth="yes"/>
      <point x="154" y="7"/>
      <point x="185" y="-1"/>
      <point x="220" y="-1" type="curve" smooth="yes"/>
      <point x="253" y="-1"/>
      <point x="282" y="7"/>
      <point x="307" y="23" type="curve" smooth="yes"/>
      <point x="326" y="36"/>
      <point x="340" y="53"/>
      <point x="351" y="72" type="curve"/>
      <point x="351" y="8" type="line"/>
      <point x="399" y="8" type="line"/>
      <point x="399" y="413" type="line"/>
    </contour>
  </outline>
</glyph>
<glyph name="v" format="1">
  <advance width="410"/>
  <unicode hex="0076"/>
  <outline>
    <contour>
      <point x="230" y="-1" type="line" name="hr00"/>
      <point x="402" y="403" type="line"/>
      <point x="348" y="403" type="line"/>
      <point x="203" y="61" type="line"/>
      <point x="58" y="403" type="line"/>
      <point x="4" y="403" type="line"/>
      <point x="175" y="-1" type="line"/>
    </contour>
  </outline>
</glyph>
<glyph name="w" format="1">
  <advance width="614"/>
  <unicode hex="0077"/>
  <outline>
    <contour>
      <point x="219" y="-2" type="line" name="hr00"/>
      <point x="307" y="268" type="line"/>
      <point x="393" y="-2" type="line"/>
      <point x="452" y="-2" type="line"/>
      <point x="607" y="402" type="line"/>
      <point x="555" y="402" type="line"/>
      <point x="423" y="62" type="line"/>
      <point x="329" y="354" type="line"/>
      <point x="284" y="354" type="line"/>
      <point x="191" y="62" type="line"/>
      <point x="62" y="402" type="line"/>
      <point x="9" y="402" type="line"/>
      <point x="164" y="-2" type="line"/>
    </contour>
  </outline>
</glyph>
<glyph name="x" format="1">
  <advance width="356"/>
  <unicode hex="0078"/>
  <outline>
    <contour>
      <point x="70" y="-2" type="line" name="hr00"/>
      <point x="178" y="160" type="line"/>
      <point x="286" y="-2" type="line"/>
      <point x="346" y="-2" type="line"/>
      <point x="207" y="203" type="line"/>
      <point x="346" y="402" type="line"/>
      <point x="284" y="402" type="line"/>
      <point x="178" y="246" type="line"/>
      <point x="70" y="402" type="line"/>
      <point x="9" y="402" type="line"/>
      <point x="147" y="203" type="line"/>
      <point x="9" y="-2" type="line"/>
    </contour>
  </outline>
</glyph>
<glyph name="y" format="1">
  <advance width="397"/>
  <unicode hex="0079"/>
  <outline>
    <contour>
      <point x="150" y="-153" type="line" name="hr00"/>
      <point x="385" y="394" type="line"/>
      <point x="332" y="394" type="line"/>
      <point x="193" y="69" type="line"/>
      <point x="64" y="394" type="line"/>
      <point x="10" y="394" type="line"/>
      <point x="169" y="2" type="line"/>
      <point x="97" y="-153" type="line"/>
    </contour>
  </outline>
</glyph>
<glyph name="z" format="1">
  <advance width="313"/>
  <unicode hex="007A"/>
  <outline>
    <contour>
      <point x="304" y="-1" type="line" name="hr00"/>
      <point x="304" y="44" type="line"/>
      <point x="68" y="44" type="line"/>
      <point x="291" y="356" type="line"/>
      <point x="291" y="403" type="line"/>
      <point x="13" y="403" type="line"/>
      <point x="13" y="357" type="line"/>
      <point x="229" y="357" type="line"/>
      <point x="5" y="44" type="line"/>
      <point x="5" y="-1" type="line"/>
    </contour>
  </outline>
</glyph>
<glyph name="braceleft" format="1">
  <advance width="382"/>
  <unicode hex="007B"/>
  <outline>
    <contour>
      <point x="301" y="-166" type="line" name="hr00"/>
      <point x="229" y="-171"/>
      <point x="207" y="-144"/>
      <point x="207" y="-63" type="curve" smooth="yes"/>
      <point x="207" y="48" type="line" smooth="yes"/>
      <point x="207" y="112"/>
      <point x="199" y="157"/>
      <point x="182" y="184" type="curve" smooth="yes"/>
      <point x="169" y="203"/>
      <point x="149" y="219"/>
      <point x="120" y="232" type="curve"/>
      <point x="120" y="225" type="line"/>
      <point x="149" y="238"/>
      <point x="169" y="253"/>
      <point x="182" y="272" type="curve" smooth="yes"/>
      <point x="199" y="299"/>
      <point x="207" y="345"/>
      <point x="207" y="408" type="curve" smooth="yes"/>
      <point x="207" y="520" type="line" smooth="yes"/>
      <point x="207" y="600"/>
      <point x="229" y="627"/>
      <point x="301" y="622" type="curve"/>
      <point x="301" y="659" type="line"/>
      <point x="249" y="659"/>
      <point x="214" y="649"/>
      <point x="195" y="629" type="curve" smooth="yes"/>
      <point x="177" y="610"/>
      <point x="168" y="573"/>
      <point x="168" y="520" type="curve" smooth="yes"/>
      <point x="168" y="408" type="line" smooth="yes"/>
      <point x="168" y="308"/>
      <point x="147" y="271"/>
      <point x="83" y="255" type="curve"/>
      <point x="83" y="201" type="line"/>
      <point x="147" y="186"/>
      <point x="168" y="148"/>
      <point x="168" y="48" type="curve" smooth="yes"/>
      <point x="168" y="-63" type="line" smooth="yes"/>
      <point x="168" y="-117"/>
      <point x="177" y="-154"/>
      <point x="195" y="-173" type="curve" smooth="yes"/>
      <point x="214" y="-192"/>
      <point x="249" y="-202"/>
      <point x="301" y="-202" type="curve"/>
    </contour>
  </outline>
</glyph>
<glyph name="bar" format="1">
  <advance width="431"/>
  <unicode hex="007C"/>
  <outline>
    <contour>
      <point x="241" y="-217" type="line" name="hr00"/>
      <point x="241" y="649" type="line"/>
      <point x="193" y="649" type="line"/>
      <point x="193" y="-217" type="line"/>
    </contour>
  </outline>
</glyph>
<glyph name="braceright" format="1">
  <advance width="382"/>
  <unicode hex="007D"/>
  <outline>
    <contour>
      <point x="83" y="-202" type="line" name="hr00"/>
      <point x="134" y="-202"/>
      <point x="169" y="-192"/>
      <point x="188" y="-172" type="curve" smooth="yes"/>
      <point x="206" y="-153"/>
      <point x="215" y="-117"/>
      <point x="215" y="-63" type="curve" smooth="yes"/>
      <point x="215" y="48" type="line" smooth="yes"/>
      <point x="215" y="148"/>
      <point x="236" y="186"/>
      <point x="300" y="201" type="curve"/>
      <point x="300" y="255" type="line"/>
      <point x="236" y="271"/>
      <point x="215" y="308"/>
      <point x="215" y="408" type="curve" smooth="yes"/>
      <point x="215" y="520" type="line" smooth="yes"/>
      <point x="215" y="573"/>
      <point x="205" y="610"/>
      <point x="187" y="629" type="curve" smooth="yes"/>
      <point x="168" y="649"/>
      <point x="134" y="659"/>
      <point x="83" y="659" type="curve"/>
      <point x="83" y="622" type="line"/>
      <point x="154" y="627"/>
      <point x="176" y="600"/>
      <point x="176" y="520" type="curve" smooth="yes"/>
      <point x="176" y="408" type="line" smooth="yes"/>
      <point x="176" y="345"/>
      <point x="184" y="299"/>
      <point x="201" y="272" type="curve" smooth="yes"/>
      <point x="214" y="253"/>
      <point x="234" y="239"/>
      <point x="259" y="228" type="curve"/>
      <point x="259" y="230" type="line"/>
      <point x="234" y="219"/>
      <point x="214" y="203"/>
      <point x="201" y="184" type="curve" smooth="yes"/>
      <point x="184" y="157"/>
      <point x="176" y="112"/>
      <point x="176" y="48" type="curve" smooth="yes"/>
      <point x="176" y="-63" type="line" smooth="yes"/>
      <point x="176" y="-144"/>
      <point x="154" y="-171"/>
      <point x="83" y="-166" type="curve"/>
    </contour>
  </outline>
</glyph>
<glyph name="asciitilde" format="1">
  <advance width="862"/>
  <unicode hex="007E"/>
  <outline>
    <contour>
      <point x="213" y="177" type="line" name="hr00"/>
      <point x="232" y="225"/>
      <point x="267" y="249"/>
      <point x="308" y="249" type="curve" smooth="yes"/>
      <point x="329" y="249"/>
      <point x="365" y="241"/>
      <point x="424" y="218" type="curve" smooth="yes"/>
      <point x="481" y="196"/>
      <point x="527" y="185"/>
      <point x="558" y="185" type="curve" smooth="yes"/>
      <point x="615" y="185"/>
      <point x="669" y="222"/>
      <point x="698" y="285" type="curve"/>
      <point x="654" y="308" type="line"/>
      <point x="633" y="260"/>
      <point x="598" y="236"/>
      <point x="558" y="236" type="curve" smooth="yes"/>
      <point x="535" y="236"/>
      <point x="500" y="244"/>
      <point x="441" y="267" type="curve" smooth="yes"/>
      <point x="384" y="289"/>
      <point x="337" y="300"/>
      <point x="308" y="300" type="curve" smooth="yes"/>
      <point x="249" y="300"/>
      <point x="196" y="263"/>
      <point x="167" y="200" type="curve"/>
    </contour>
  </outline>
</glyph>
<glyph name="cent" format="1">
  <advance width="626"/>
  <unicode hex="00A2"/>
  <outline>
    <contour>
      <point x="318" y="457" type="line" name="hr00"/>
      <point x="180" y="108" type="line"/>
      <point x="164" y="127"/>
      <point x="151" y="150"/>
      <point x="141" y="178" type="curve" smooth="yes"/>
      <point x="131" y="206"/>
      <point x="126" y="236"/>
      <point x="126" y="269" type="curve" smooth="yes"/>
      <point x="126" y="327"/>
      <point x="138" y="374"/>
      <point x="165" y="410" type="curve" smooth="yes"/>
      <point x="191" y="445"/>
      <point x="228" y="462"/>
      <point x="272" y="462" type="curve" smooth="yes"/>
      <point x="283" y="462"/>
      <point x="298" y="460"/>
      <point x="318" y="455" type="curve"/>
    </contour>
    <contour>
      <point x="70" y="269" type="curve" smooth="yes"/>
      <point x="70" y="224"/>
      <point x="79" y="182"/>
      <point x="95" y="145" type="curve" smooth="yes"/>
      <point x="111" y="108"/>
      <point x="133" y="78"/>
      <point x="162" y="56" type="curve"/>
      <point x="116" y="-61" type="line"/>
      <point x="168" y="-61" type="line"/>
      <point x="206" y="36" type="line"/>
      <point x="227" y="29"/>
      <point x="249" y="26"/>
      <point x="272" y="26" type="curve" smooth="yes"/>
      <point x="328" y="26"/>
      <point x="374" y="41"/>
      <point x="409" y="71" type="curve" smooth="yes"/>
      <point x="446" y="102"/>
      <point x="466" y="144"/>
      <point x="469" y="197" type="curve"/>
      <point x="413" y="197" type="line"/>
      <point x="409" y="159"/>
      <point x="394" y="130"/>
      <point x="369" y="109" type="curve" smooth="yes"/>
      <point x="343" y="86"/>
      <point x="311" y="75"/>
      <point x="272" y="75" type="curve" smooth="yes"/>
      <point x="259" y="75"/>
      <point x="243" y="78"/>
      <point x="226" y="83" type="curve"/>
      <point x="362" y="434" type="line"/>
      <point x="374" y="423"/>
      <point x="384" y="409"/>
      <point x="393" y="394" type="curve"/>
      <point x="400" y="379"/>
      <point x="405" y="363"/>
      <point x="407" y="348" type="curve"/>
      <point x="465" y="348" type="line"/>
      <point x="463" y="376"/>
      <point x="454" y="401"/>
      <point x="438" y="424" type="curve" smooth="yes"/>
      <point x="423" y="447"/>
      <point x="404" y="467"/>
      <point x="379" y="483" type="curve"/>
      <point x="429" y="610" type="line"/>
      <point x="377" y="610" type="line"/>
      <point x="334" y="503" type="line"/>
      <point x="317" y="508"/>
      <point x="296" y="510"/>
      <point x="272" y="510" type="curve" smooth="yes"/>
      <point x="211" y="510"/>
      <point x="161" y="488"/>
      <point x="124" y="444" type="curve" smooth="yes"/>
      <point x="88" y="400"/>
      <point x="70" y="342"/>
    </contour>
  </outline>
</glyph>
<glyph name="copyright" format="1">
  <advance width="717"/>
  <unicode hex="00A9"/>
  <outline>
    <contour>
      <point x="365" y="618" type="curve" smooth="yes" name="hr00"/>
      <point x="281" y="618"/>
      <point x="204" y="586"/>
      <point x="145" y="526" type="curve" smooth="yes"/>
      <point x="85" y="465"/>
      <point x="51" y="387"/>
      <point x="51" y="303" type="curve" smooth="yes"/>
      <point x="51" y="220"/>
      <point x="83" y="144"/>
      <point x="144" y="83" type="curve" smooth="yes"/>
      <point x="205" y="22"/>
      <point x="282" y="-11"/>
      <point x="365" y="-11" type="curve" smooth="yes"/>
      <point x="448" y="-11"/>
      <point x="526" y="22"/>
      <point x="588" y="84" type="curve" smooth="yes"/>
      <point x="648" y="144"/>
      <point x="680" y="218"/>
      <point x="680" y="303" type="curve" smooth="yes"/>
      <point x="680" y="388"/>
      <point x="648" y="466"/>
      <point x="588" y="525" type="curve" smooth="yes"/>
      <point x="527" y="585"/>
      <point x="449" y="618"/>
    </contour>
    <contour>
      <point x="635" y="303" type="curve" smooth="yes"/>
      <point x="635" y="230"/>
      <point x="608" y="164"/>
      <point x="558" y="114" type="curve" smooth="yes"/>
      <point x="506" y="62"/>
      <point x="437" y="33"/>
      <point x="365" y="33" type="curve" smooth="yes"/>
      <point x="293" y="33"/>
      <point x="226" y="61"/>
      <point x="174" y="113" type="curve" smooth="yes"/>
      <point x="122" y="165"/>
      <point x="95" y="231"/>
      <point x="95" y="303" type="curve" smooth="yes"/>
      <point x="95" y="375"/>
      <point x="122" y="444"/>
      <point x="175" y="497" type="curve" smooth="yes"/>
      <point x="224" y="547"/>
      <point x="292" y="574"/>
      <point x="365" y="574" type="curve" smooth="yes"/>
      <point x="438" y="574"/>
      <point x="507" y="547"/>
      <point x="558" y="495" type="curve" smooth="yes"/>
      <point x="608" y="444"/>
      <point x="635" y="378"/>
    </contour>
    <contour>
      <point x="513" y="379" type="line"/>
      <point x="504" y="458"/>
      <point x="447" y="502"/>
      <point x="368" y="502" type="curve" smooth="yes"/>
      <point x="317" y="502"/>
      <point x="275" y="484"/>
      <point x="244" y="448" type="curve" smooth="yes"/>
      <point x="213" y="412"/>
      <point x="197" y="365"/>
      <point x="197" y="306" type="curve" smooth="yes"/>
      <point x="197" y="183"/>
      <point x="261" y="106"/>
      <point x="364" y="106" type="curve" smooth="yes"/>
      <point x="447" y="106"/>
      <point x="510" y="154"/>
      <point x="517" y="237" type="curve"/>
      <point x="460" y="237" type="line"/>
      <point x="449" y="184"/>
      <point x="414" y="156"/>
      <point x="366" y="156" type="curve" smooth="yes"/>
      <point x="302" y="156"/>
      <point x="260" y="211"/>
      <point x="260" y="302" type="curve" smooth="yes"/>
      <point x="260" y="398"/>
      <point x="301" y="452"/>
      <point x="366" y="452" type="curve" smooth="yes"/>
      <point x="411" y="452"/>
      <point x="443" y="430"/>
      <point x="456" y="379" type="curve"/>
    </contour>
  </outline>
</glyph>
<glyph name="registered" format="1">
  <advance width="717"/>
  <unicode hex="00AE"/>
  <outline>
    <contour>
      <point x="365" y="618" type="curve" smooth="yes" name="hr00"/>
      <point x="281" y="618"/>
      <point x="204" y="586"/>
      <point x="145" y="526" type="curve" smooth="yes"/>
      <point x="85" y="465"/>
      <point x="51" y="387"/>
      <point x="51" y="303" type="curve" smooth="yes"/>
      <point x="51" y="220"/>
      <point x="83" y="144"/>
      <point x="144" y="83" type="curve" smooth="yes"/>
      <point x="205" y="22"/>
      <point x="282" y="-11"/>
      <point x="365" y="-11" type="curve" smooth="yes"/>
      <point x="448" y="-11"/>
      <point x="526" y="22"/>
      <point x="588" y="84" type="curve" smooth="yes"/>
      <point x="648" y="144"/>
      <point x="680" y="218"/>
      <point x="680" y="303" type="curve" smooth="yes"/>
      <point x="680" y="388"/>
      <point x="648" y="466"/>
      <point x="588" y="525" type="curve" smooth="yes"/>
      <point x="527" y="585"/>
      <point x="449" y="618"/>
    </contour>
    <contour>
      <point x="635" y="303" type="curve" smooth="yes"/>
      <point x="635" y="230"/>
      <point x="608" y="164"/>
      <point x="558" y="114" type="curve" smooth="yes"/>
      <point x="506" y="62"/>
      <point x="437" y="33"/>
      <point x="365" y="33" type="curve" smooth="yes"/>
      <point x="293" y="33"/>
      <point x="226" y="61"/>
      <point x="174" y="113" type="curve" smooth="yes"/>
      <point x="122" y="165"/>
      <point x="95" y="231"/>
      <point x="95" y="303" type="curve" smooth="yes"/>
      <point x="95" y="375"/>
      <point x="122" y="444"/>
      <point x="175" y="497" type="curve" smooth="yes"/>
      <point x="224" y="547"/>
      <point x="292" y="574"/>
      <point x="365" y="574" type="curve" smooth="yes"/>
      <point x="438" y="574"/>
      <point x="507" y="547"/>
      <point x="558" y="495" type="curve" smooth="yes"/>
      <point x="608" y="444"/>
      <point x="635" y="378"/>
    </contour>
    <contour>
      <point x="238" y="493" type="line"/>
      <point x="238" y="123" type="line"/>
      <point x="300" y="123" type="line"/>
      <point x="300" y="282" type="line"/>
      <point x="380" y="282" type="line"/>
      <point x="457" y="123" type="line"/>
      <point x="526" y="123" type="line"/>
      <point x="446" y="290" type="line"/>
      <point x="487" y="294"/>
      <point x="528" y="333"/>
      <point x="528" y="389" type="curve" smooth="yes"/>
      <point x="528" y="461"/>
      <point x="478" y="493"/>
      <point x="374" y="493" type="curve" smooth="yes"/>
    </contour>
    <contour>
      <point x="365" y="446" type="line" smooth="yes"/>
      <point x="436" y="446"/>
      <point x="465" y="427"/>
      <point x="465" y="390" type="curve" smooth="yes"/>
      <point x="465" y="343"/>
      <point x="442" y="329"/>
      <point x="365" y="329" type="curve" smooth="yes"/>
      <point x="300" y="329" type="line"/>
      <point x="300" y="446" type="line"/>
    </contour>
  </outline>
</glyph>
<glyph name="onequarter" format="1">
  <advance width="721"/>
  <unicode hex="00BC"/>
  <outline>
    <contour>
      <point x="203" y="246" type="line" name="hr00"/>
      <point x="203" y="606" type="line"/>
      <point x="149" y="606" type="line"/>
      <point x="144" y="554"/>
      <point x="120" y="540"/>
      <point x="63" y="540" type="curve" smooth="yes"/>
      <point x="50" y="540" type="line"/>
      <point x="50" y="497" type="line"/>
      <point x="66" y="497" type="line" smooth="yes"/>
      <point x="90" y="497"/>
      <point x="113" y="499"/>
      <point x="136" y="503" type="curve" smooth="yes"/>
      <point x="159" y="508"/>
      <point x="162" y="510"/>
      <point x="144" y="510" type="curve"/>
      <point x="144" y="246" type="line"/>
    </contour>
    <contour>
      <point x="206" y="-29" type="line"/>
      <point x="607" y="614" type="line"/>
      <point x="536" y="614" type="line"/>
      <point x="134" y="-29" type="line"/>
    </contour>
    <contour>
      <point x="674" y="-11" type="line"/>
      <point x="674" y="72" type="line"/>
      <point x="724" y="72" type="line"/>
      <point x="724" y="122" type="line"/>
      <point x="674" y="122" type="line"/>
      <point x="674" y="339" type="line"/>
      <point x="619" y="339" type="line"/>
      <point x="451" y="115" type="line"/>
      <point x="451" y="72" type="line"/>
      <point x="616" y="72" type="line"/>
      <point x="616" y="-11" type="line"/>
    </contour>
    <contour>
      <point x="519" y="122" type="line"/>
      <point x="616" y="253" type="line"/>
      <point x="616" y="122" type="line"/>
    </contour>
  </outline>
</glyph>
<glyph name="onehalf" format="1">
  <advance width="721"/>
  <unicode hex="00BD"/>
  <outline>
    <contour>
      <point x="203" y="246" type="line" name="hr00"/>
      <point x="203" y="606" type="line"/>
      <point x="149" y="606" type="line"/>
      <point x="144" y="554"/>
      <point x="120" y="540"/>
      <point x="63" y="540" type="curve" smooth="yes"/>
      <point x="50" y="540" type="line"/>
      <point x="50" y="497" type="line"/>
      <point x="66" y="497" type="line" smooth="yes"/>
      <point x="90" y="497"/>
      <point x="113" y="499"/>
      <point x="136" y="503" type="curve" smooth="yes"/>
      <point x="159" y="508"/>
      <point x="162" y="510"/>
      <point x="144" y="510" type="curve"/>
      <point x="144" y="246" type="line"/>
    </contour>
    <contour>
      <point x="206" y="-29" type="line"/>
      <point x="607" y="614" type="line"/>
      <point x="536" y="614" type="line"/>
      <point x="134" y="-29" type="line"/>
    </contour>
    <contour>
      <point x="719" y="-11" type="line"/>
      <point x="719" y="38" type="line"/>
      <point x="510" y="38" type="line"/>
      <point x="511" y="47"/>
      <point x="529" y="73"/>
      <point x="584" y="101" type="curve" smooth="yes"/>
      <point x="613" y="116" type="line" smooth="yes"/>
      <point x="650" y="135"/>
      <point x="674" y="150"/>
      <point x="686" y="163" type="curve"/>
      <point x="710" y="184"/>
      <point x="720" y="210"/>
      <point x="720" y="239" type="curve" smooth="yes"/>
      <point x="720" y="307"/>
      <point x="670" y="348"/>
      <point x="594" y="348" type="curve" smooth="yes"/>
      <point x="511" y="348"/>
      <point x="462" y="308"/>
      <point x="459" y="215" type="curve"/>
      <point x="517" y="215" type="line"/>
      <point x="518" y="276"/>
      <point x="544" y="299"/>
      <point x="593" y="299" type="curve" smooth="yes"/>
      <point x="637" y="299"/>
      <point x="661" y="276"/>
      <point x="661" y="239" type="curve" smooth="yes"/>
      <point x="661" y="220"/>
      <point x="654" y="209"/>
      <point x="642" y="194" type="curve"/>
      <point x="633" y="187"/>
      <point x="614" y="175"/>
      <point x="584" y="160" type="curve" smooth="yes"/>
      <point x="569" y="152"/>
      <point x="557" y="146"/>
      <point x="549" y="141" type="curve" smooth="yes"/>
      <point x="480" y="104"/>
      <point x="450" y="65"/>
      <point x="450" y="10" type="curve" smooth="yes"/>
      <point x="450" y="-11" type="line"/>
    </contour>
  </outline>
</glyph>
<glyph name="threequarters" format="1">
  <advance width="720"/>
  <unicode hex="00BE"/>
  <outline>
    <contour>
      <point x="18" y="354" type="line" smooth="yes" name="hr00"/>
      <point x="18" y="281"/>
      <point x="69" y="237"/>
      <point x="152" y="237" type="curve" smooth="yes"/>
      <point x="236" y="237"/>
      <point x="287" y="280"/>
      <point x="287" y="349" type="curve" smooth="yes"/>
      <point x="287" y="374"/>
      <point x="280" y="394"/>
      <point x="267" y="411" type="curve" smooth="yes"/>
      <point x="254" y="428"/>
      <point x="247" y="437"/>
      <point x="244" y="437" type="curve" smooth="yes"/>
      <point x="243" y="437"/>
      <point x="248" y="444"/>
      <point x="258" y="457" type="curve" smooth="yes"/>
      <point x="269" y="471"/>
      <point x="274" y="488"/>
      <point x="274" y="508" type="curve" smooth="yes"/>
      <point x="274" y="568"/>
      <point x="228" y="606"/>
      <point x="155" y="606" type="curve" smooth="yes"/>
      <point x="79" y="606"/>
      <point x="34" y="568"/>
      <point x="29" y="484" type="curve"/>
      <point x="87" y="484" type="line"/>
      <point x="88" y="539"/>
      <point x="112" y="557"/>
      <point x="155" y="557" type="curve" smooth="yes"/>
      <point x="194" y="557"/>
      <point x="216" y="537"/>
      <point x="216" y="508" type="curve" smooth="yes"/>
      <point x="216" y="473"/>
      <point x="192" y="455"/>
      <point x="140" y="455" type="curve" smooth="yes"/>
      <point x="115" y="455" type="line"/>
      <point x="115" y="406" type="line"/>
      <point x="134" y="409"/>
      <point x="134" y="408"/>
      <point x="142" y="408" type="curve" smooth="yes"/>
      <point x="202" y="408"/>
      <point x="227" y="389"/>
      <point x="227" y="349" type="curve" smooth="yes"/>
      <point x="227" y="308"/>
      <point x="200" y="286"/>
      <point x="151" y="286" type="curve" smooth="yes"/>
      <point x="104" y="286"/>
      <point x="79" y="307"/>
      <point x="78" y="366" type="curve"/>
      <point x="18" y="366" type="line"/>
    </contour>
    <contour>
      <point x="205" y="-29" type="line"/>
      <point x="608" y="614" type="line"/>
      <point x="536" y="614" type="line"/>
      <point x="134" y="-29" type="line"/>
    </contour>
    <contour>
      <point x="673" y="-11" type="line"/>
      <point x="673" y="72" type="line"/>
      <point x="724" y="72" type="line"/>
      <point x="724" y="122" type="line"/>
      <point x="673" y="122" type="line"/>
      <point x="673" y="339" type="line"/>
      <point x="618" y="339" type="line"/>
      <point x="451" y="115" type="line"/>
      <point x="451" y="72" type="line"/>
      <point x="616" y="72" type="line"/>
      <point x="616" y="-11" type="line"/>
    </contour>
    <contour>
      <point x="519" y="122" type="line"/>
      <point x="616" y="253" type="line"/>
      <point x="616" y="122" type="line"/>
    </contour>
  </outline>
</glyph>
<glyph name="divide" format="1">
  <advance width="583"/>
  <unicode hex="00F7"/>
  <outline>
    <contour>
      <point x="232" y="355" type="curve" smooth="yes" name="hr00"/>
      <point x="232" y="340"/>
      <point x="238" y="327"/>
      <point x="250" y="316" type="curve" smooth="yes"/>
      <point x="262" y="305"/>
      <point x="276" y="300"/>
      <point x="292" y="300" type="curve" smooth="yes"/>
      <point x="309" y="300"/>
      <point x="323" y="307"/>
      <point x="334" y="320" type="curve"/>
      <point x="347" y="331"/>
      <point x="354" y="344"/>
      <point x="354" y="361" type="curve" smooth="yes"/>
      <point x="354" y="377"/>
      <point x="347" y="390"/>
      <point x="334" y="401" type="curve" smooth="yes"/>
      <point x="323" y="411"/>
      <point x="309" y="416"/>
      <point x="292" y="416" type="curve" smooth="yes"/>
      <point x="276" y="416"/>
      <point x="262" y="410"/>
      <point x="250" y="398" type="curve" smooth="yes"/>
      <point x="238" y="387"/>
      <point x="232" y="373"/>
    </contour>
    <contour>
      <point x="70" y="172" type="line"/>
      <point x="518" y="172" type="line"/>
      <point x="518" y="243" type="line"/>
      <point x="70" y="243" type="line"/>
      <point x="70" y="175" type="line"/>
    </contour>
    <contour>
      <point x="232" y="54" type="curve" smooth="yes"/>
      <point x="232" y="39"/>
      <point x="238" y="25"/>
      <point x="250" y="14" type="curve" smooth="yes"/>
      <point x="262" y="3"/>
      <point x="276" y="-2"/>
      <point x="292" y="-2" type="curve" smooth="yes"/>
      <point x="309" y="-2"/>
      <point x="323" y="4"/>
      <point x="334" y="16" type="curve"/>
      <point x="347" y="27"/>
      <point x="354" y="42"/>
      <point x="354" y="59" type="curve" smooth="yes"/>
      <point x="354" y="75"/>
      <point x="347" y="88"/>
      <point x="334" y="99" type="curve" smooth="yes"/>
      <point x="323" y="109"/>
      <point x="309" y="114"/>
      <point x="292" y="114" type="curve" smooth="yes"/>
      <point x="276" y="114"/>
      <point x="262" y="108"/>
      <point x="250" y="97" type="curve" smooth="yes"/>
      <point x="238" y="85"/>
      <point x="232" y="71"/>
    </contour>
  </outline>
</glyph>
<glyph name="uni0950" format="1">
  <advance width="717"/>
  <unicode hex="0950"/>
  <outline>
    <contour>
      <point x="327" y="624" type="line" name="hr00"/>
      <point x="375" y="574" type="line"/>
      <point x="424" y="621" type="line"/>
      <point x="375" y="670" type="line"/>
    </contour>
    <contour>
      <point x="245" y="583" type="line"/>
      <point x="288" y="517"/>
      <point x="340" y="484"/>
      <point x="400" y="484" type="curve" smooth="yes"/>
      <point x="439" y="484"/>
      <point x="479" y="505"/>
      <point x="519" y="548" type="curve"/>
      <point x="457" y="600" type="line"/>
      <point x="431" y="565"/>
      <point x="401" y="547"/>
      <point x="366" y="547" type="curve" smooth="yes"/>
      <point x="330" y="547"/>
      <point x="299" y="565"/>
      <point x="272" y="600" type="curve"/>
    </contour>
    <contour>
      <point x="481" y="364" type="curve"/>
      <point x="496" y="395"/>
      <point x="520" y="410"/>
      <point x="555" y="410" type="curve" smooth="yes"/>
      <point x="606" y="410"/>
      <point x="641" y="359"/>
      <point x="641" y="287" type="curve" smooth="yes"/>
      <point x="641" y="211"/>
      <point x="601" y="155"/>
      <point x="549" y="155" type="curve" smooth="yes"/>
      <point x="518" y="155"/>
      <point x="503" y="180"/>
      <point x="503" y="231" type="curve" smooth="yes"/>
      <point x="503" y="257" type="line"/>
      <point x="503" y="308" type="line" smooth="yes"/>
      <point x="503" y="338"/>
      <point x="496" y="357"/>
    </contour>
    <contour>
      <point x="34" y="311" type="line"/>
      <point x="41" y="221"/>
      <point x="70" y="146"/>
      <point x="119" y="86" type="curve" smooth="yes"/>
      <point x="168" y="27"/>
      <point x="226" y="-3"/>
      <point x="291" y="-3" type="curve" smooth="yes"/>
      <point x="375" y="-3"/>
      <point x="428" y="49"/>
      <point x="428" y="125" type="curve" smooth="yes"/>
      <point x="428" y="172"/>
      <point x="410" y="220"/>
      <point x="374" y="269" type="curve"/>
      <point x="399" y="286"/>
      <point x="420" y="294"/>
      <point x="437" y="294" type="curve" smooth="yes"/>
      <point x="456" y="294"/>
      <point x="466" y="275"/>
      <point x="466" y="238" type="curve" smooth="yes"/>
      <point x="466" y="206" type="line" smooth="yes"/>
      <point x="466" y="119"/>
      <point x="489" y="87"/>
      <point x="545" y="87" type="curve" smooth="yes"/>
      <point x="626" y="87"/>
      <point x="678" y="167"/>
      <point x="678" y="292" type="curve" smooth="yes"/>
      <point x="678" y="416"/>
      <point x="639" y="478"/>
      <point x="563" y="478" type="curve" smooth="yes"/>
      <point x="504" y="478"/>
      <point x="468" y="443"/>
      <point x="456" y="374" type="curve"/>
      <point x="451" y="375"/>
      <point x="446" y="375"/>
      <point x="443" y="375" type="curve" smooth="yes"/>
      <point x="408" y="375"/>
      <point x="371" y="357"/>
      <point x="334" y="321" type="curve"/>
      <point x="325" y="330" type="line"/>
      <point x="331" y="344"/>
      <point x="334" y="360"/>
      <point x="334" y="377" type="curve" smooth="yes"/>
      <point x="334" y="460"/>
      <point x="278" y="516"/>
      <point x="201" y="516" type="curve" smooth="yes"/>
      <point x="171" y="516"/>
      <point x="141" y="509"/>
      <point x="112" y="494" type="curve"/>
      <point x="143" y="420" type="line"/>
      <point x="178" y="438"/>
      <point x="210" y="447"/>
      <point x="239" y="447" type="curve" smooth="yes"/>
      <point x="278" y="447"/>
      <point x="297" y="431"/>
      <point x="297" y="399" type="curve" smooth="yes"/>
      <point x="297" y="356"/>
      <point x="263" y="324"/>
      <point x="196" y="305" type="curve"/>
      <point x="228" y="229" type="line"/>
      <point x="259" y="244"/>
      <point x="285" y="265"/>
      <point x="306" y="294" type="curve"/>
      <point x="346" y="253"/>
      <point x="366" y="208"/>
      <point x="366" y="157" type="curve" smooth="yes"/>
      <point x="366" y="104"/>
      <point x="324" y="60"/>
      <point x="272" y="60" type="curve" smooth="yes"/>
      <point x="222" y="60"/>
      <point x="178" y="84"/>
      <point x="139" y="131" type="curve" smooth="yes"/>
      <point x="100" y="178"/>
      <point x="75" y="242"/>
      <point x="63" y="321" type="curve"/>
    </contour>
  </outline>
</glyph>
<glyph name="uni0951" format="1">
  <advance width="0"/>
  <unicode hex="0951"/>
  <outline>
    <contour>
      <point x="-184" y="1270" type="line" name="hr00"/>
      <point x="-245" y="1270" type="line"/>
      <point x="-245" y="867" type="line"/>
      <point x="-184" y="867" type="line"/>
    </contour>
  </outline>
</glyph>
<glyph name="uni0952" format="1">
  <advance width="0"/>
  <unicode hex="0952"/>
  <outline>
    <contour>
      <point x="-47" y="-336" type="line" name="hr00"/>
      <point x="-606" y="-336" type="line"/>
      <point x="-606" y="-392" type="line"/>
      <point x="-47" y="-392" type="line"/>
    </contour>
  </outline>
</glyph>
<glyph name="uni0964" format="1">
  <advance width="236"/>
  <unicode hex="0964"/>
  <outline>
    <contour>
      <point x="157" y="456" type="line" name="hr00"/>
      <point x="77" y="456" type="line"/>
      <point x="77" y="-23" type="line"/>
      <point x="157" y="-23" type="line"/>
    </contour>
  </outline>
</glyph>
<glyph name="uni0965" format="1">
  <advance width="424"/>
  <unicode hex="0965"/>
  <outline>
    <contour>
      <point x="338" y="456" type="line" name="hr00"/>
      <point x="258" y="456" type="line"/>
      <point x="258" y="-23" type="line"/>
      <point x="338" y="-23" type="line"/>
    </contour>
    <contour>
      <point x="159" y="460" type="line"/>
      <point x="79" y="460" type="line"/>
      <point x="79" y="-21" type="line"/>
      <point x="159" y="-21" type="line"/>
    </contour>
  </outline>
</glyph>
<glyph name="uni0C01" format="1">
  <advance width="335"/>
  <unicode hex="0C01"/>
  <outline>
    <contour>
      <point x="252" y="37" type="curve" smooth="yes" name="hr00"/>
      <point x="203" y="37"/>
      <point x="160" y="55"/>
      <point x="125" y="90" type="curve" smooth="yes"/>
      <point x="90" y="126"/>
      <point x="73" y="168"/>
      <point x="73" y="215" type="curve" smooth="yes"/>
      <point x="73" y="263"/>
      <point x="90" y="303"/>
      <point x="123" y="336" type="curve" smooth="yes"/>
      <point x="157" y="369"/>
      <point x="198" y="386"/>
      <point x="247" y="386" type="curve" smooth="yes"/>
      <point x="271" y="386"/>
      <point x="283" y="394"/>
      <point x="283" y="411" type="curve" smooth="yes"/>
      <point x="283" y="428"/>
      <point x="271" y="436"/>
      <point x="246" y="436" type="curve" smooth="yes"/>
      <point x="185" y="436"/>
      <point x="132" y="415"/>
      <point x="88" y="373" type="curve" smooth="yes"/>
      <point x="44" y="331"/>
      <point x="22" y="278"/>
      <point x="22" y="215" type="curve" smooth="yes"/>
      <point x="22" y="152"/>
      <point x="44" y="99"/>
      <point x="88" y="54" type="curve" smooth="yes"/>
      <point x="133" y="9"/>
      <point x="187" y="-13"/>
      <point x="250" y="-13" type="curve" smooth="yes"/>
      <point x="272" y="-13"/>
      <point x="283" y="-4"/>
      <point x="283" y="15" type="curve" smooth="yes"/>
      <point x="283" y="30"/>
      <point x="273" y="37"/>
    </contour>
  </outline>
</glyph>
<glyph name="uni0C02" format="1">
  <advance width="535"/>
  <unicode hex="0C02"/>
  <outline>
    <contour>
      <point x="431" y="208" type="curve" smooth="yes" name="hr00"/>
      <point x="431" y="159"/>
      <point x="414" y="118"/>
      <point x="381" y="85" type="curve" smooth="yes"/>
      <point x="348" y="53"/>
      <point x="305" y="37"/>
      <point x="252" y="37" type="curve" smooth="yes"/>
      <point x="203" y="37"/>
      <point x="160" y="55"/>
      <point x="125" y="90" type="curve" smooth="yes"/>
      <point x="90" y="126"/>
      <point x="73" y="168"/>
      <point x="73" y="215" type="curve" smooth="yes"/>
      <point x="73" y="263"/>
      <point x="90" y="303"/>
      <point x="123" y="336" type="curve" smooth="yes"/>
      <point x="157" y="369"/>
      <point x="198" y="386"/>
      <point x="247" y="386" type="curve" smooth="yes"/>
      <point x="355" y="386"/>
      <point x="431" y="317"/>
    </contour>
    <contour>
      <point x="481" y="207" type="curve" smooth="yes"/>
      <point x="481" y="272"/>
      <point x="459" y="326"/>
      <point x="414" y="370" type="curve" smooth="yes"/>
      <point x="370" y="413"/>
      <point x="314" y="436"/>
      <point x="246" y="436" type="curve" smooth="yes"/>
      <point x="185" y="436"/>
      <point x="132" y="415"/>
      <point x="88" y="373" type="curve" smooth="yes"/>
      <point x="44" y="331"/>
      <point x="22" y="278"/>
      <point x="22" y="215" type="curve" smooth="yes"/>
      <point x="22" y="152"/>
      <point x="44" y="99"/>
      <point x="88" y="54" type="curve" smooth="yes"/>
      <point x="133" y="9"/>
      <point x="187" y="-13"/>
      <point x="250" y="-13" type="curve" smooth="yes"/>
      <point x="318" y="-13"/>
      <point x="373" y="8"/>
      <point x="416" y="50" type="curve" smooth="yes"/>
      <point x="459" y="92"/>
      <point x="481" y="144"/>
    </contour>
  </outline>
</glyph>
<glyph name="uni0C03" format="1">
  <advance width="270"/>
  <unicode hex="0C03"/>
  <outline>
    <contour>
      <point x="171" y="90" type="curve" smooth="yes" name="hr00"/>
      <point x="171" y="55"/>
      <point x="152" y="37"/>
      <point x="121" y="37" type="curve" smooth="yes"/>
      <point x="93" y="37"/>
      <point x="69" y="61"/>
      <point x="69" y="90" type="curve" smooth="yes"/>
      <point x="69" y="111"/>
      <point x="92" y="136"/>
      <point x="121" y="136" type="curve" smooth="yes"/>
      <point x="146" y="136"/>
      <point x="171" y="118"/>
    </contour>
    <contour>
      <point x="170" y="339" type="curve" smooth="yes"/>
      <point x="170" y="310"/>
      <point x="149" y="290"/>
      <point x="121" y="290" type="curve" smooth="yes"/>
      <point x="93" y="290"/>
      <point x="69" y="310"/>
      <point x="69" y="339" type="curve" smooth="yes"/>
      <point x="69" y="373"/>
      <point x="86" y="390"/>
      <point x="121" y="390" type="curve" smooth="yes"/>
      <point x="150" y="390"/>
      <point x="170" y="367"/>
    </contour>
    <contour>
      <point x="217" y="90" type="curve" smooth="yes"/>
      <point x="217" y="141"/>
      <point x="174" y="180"/>
      <point x="121" y="180" type="curve" smooth="yes"/>
      <point x="62" y="180"/>
      <point x="22" y="145"/>
      <point x="22" y="90" type="curve" smooth="yes"/>
      <point x="22" y="27"/>
      <point x="60" y="-10"/>
      <point x="121" y="-10" type="curve" smooth="yes"/>
      <point x="180" y="-10"/>
      <point x="217" y="34"/>
    </contour>
    <contour>
      <point x="217" y="338" type="curve" smooth="yes"/>
      <point x="217" y="390"/>
      <point x="176" y="436"/>
      <point x="121" y="436" type="curve" smooth="yes"/>
      <point x="62" y="436"/>
      <point x="22" y="390"/>
      <point x="22" y="338" type="curve" smooth="yes"/>
      <point x="22" y="278"/>
      <point x="65" y="240"/>
      <point x="121" y="240" type="curve" smooth="yes"/>
      <point x="176" y="240"/>
      <point x="217" y="286"/>
    </contour>
  </outline>
</glyph>
<glyph name="uni0C05" format="1">
  <advance width="651"/>
  <unicode hex="0C05"/>
  <outline>
    <contour>
      <point x="598" y="247" type="curve" smooth="yes" name="hr00"/>
      <point x="598" y="304"/>
      <point x="583" y="350"/>
      <point x="554" y="384" type="curve" smooth="yes"/>
      <point x="525" y="419"/>
      <point x="492" y="436"/>
      <point x="453" y="436" type="curve" smooth="yes"/>
      <point x="382" y="436"/>
      <point x="333" y="381"/>
      <point x="333" y="309" type="curve" smooth="yes"/>
      <point x="333" y="280"/>
      <point x="339" y="253"/>
      <point x="354" y="226" type="curve" smooth="yes"/>
      <point x="368" y="200"/>
      <point x="383" y="184"/>
      <point x="396" y="178" type="curve"/>
      <point x="174" y="178" type="line" smooth="yes"/>
      <point x="159" y="178"/>
      <point x="150" y="175"/>
      <point x="148" y="169" type="curve"/>
      <point x="148" y="148" type="line" smooth="yes"/>
      <point x="148" y="136"/>
      <point x="157" y="130"/>
      <point x="176" y="130" type="curve" smooth="yes"/>
      <point x="442" y="130" type="line" smooth="yes"/>
      <point x="467" y="130"/>
      <point x="479" y="141"/>
      <point x="479" y="164" type="curve" smooth="yes"/>
      <point x="479" y="177"/>
      <point x="469" y="191"/>
      <point x="448" y="205" type="curve" smooth="yes"/>
      <point x="407" y="232"/>
      <point x="387" y="267"/>
      <point x="387" y="309" type="curve" smooth="yes"/>
      <point x="387" y="357"/>
      <point x="415" y="384"/>
      <point x="458" y="384" type="curve" smooth="yes"/>
      <point x="511" y="384"/>
      <point x="550" y="327"/>
      <point x="550" y="254" type="curve" smooth="yes"/>
      <point x="550" y="114"/>
      <point x="454" y="37"/>
      <point x="297" y="37" type="curve" smooth="yes"/>
      <point x="222" y="37"/>
      <point x="161" y="59"/>
      <point x="114" y="103" type="curve" smooth="yes"/>
      <point x="73" y="142"/>
      <point x="53" y="188"/>
      <point x="53" y="240" type="curve" smooth="yes"/>
      <point x="53" y="260"/>
      <point x="59" y="292"/>
      <point x="64" y="301" type="curve"/>
      <point x="66" y="278"/>
      <point x="78" y="256"/>
      <point x="100" y="236" type="curve" smooth="yes"/>
      <point x="122" y="216"/>
      <point x="148" y="206"/>
      <point x="179" y="206" type="curve" smooth="yes"/>
      <point x="243" y="206"/>
      <point x="294" y="249"/>
      <point x="294" y="322" type="curve" smooth="yes"/>
      <point x="294" y="394"/>
      <point x="246" y="437"/>
      <point x="182" y="437" type="curve" smooth="yes"/>
      <point x="132" y="437"/>
      <point x="90" y="418"/>
      <point x="56" y="379" type="curve" smooth="yes"/>
      <point x="22" y="341"/>
      <point x="5" y="290"/>
      <point x="5" y="226" type="curve" smooth="yes"/>
      <point x="5" y="159"/>
      <point x="32" y="102"/>
      <point x="85" y="56" type="curve" smooth="yes"/>
      <point x="139" y="9"/>
      <point x="211" y="-13"/>
      <point x="302" y="-13" type="curve" smooth="yes"/>
      <point x="381" y="-13"/>
      <point x="449" y="8"/>
      <point x="505" y="51" type="curve" smooth="yes"/>
      <point x="567" y="99"/>
      <point x="598" y="164"/>
    </contour>
    <contour>
      <point x="245" y="316" type="curve" smooth="yes"/>
      <point x="245" y="276"/>
      <point x="216" y="254"/>
      <point x="177" y="254" type="curve" smooth="yes"/>
      <point x="136" y="254"/>
      <point x="111" y="282"/>
      <point x="111" y="322" type="curve" smooth="yes"/>
      <point x="111" y="350"/>
      <point x="135" y="385"/>
      <point x="179" y="385" type="curve" smooth="yes"/>
      <point x="215" y="385"/>
      <point x="245" y="359"/>
    </contour>
  </outline>
</glyph>
<glyph name="uni0C06" format="1">
  <advance width="654"/>
  <unicode hex="0C06"/>
  <outline>
    <contour>
      <point x="549" y="314" type="curve" smooth="yes" name="hr00"/>
      <point x="549" y="289"/>
      <point x="538" y="273"/>
      <point x="523" y="249" type="curve"/>
      <point x="504" y="254"/>
      <point x="484" y="261"/>
      <point x="462" y="268" type="curve" smooth="yes"/>
      <point x="426" y="279"/>
      <point x="408" y="298"/>
      <point x="408" y="326" type="curve" smooth="yes"/>
      <point x="408" y="366"/>
      <point x="432" y="386"/>
      <point x="479" y="386" type="curve" smooth="yes"/>
      <point x="526" y="386"/>
      <point x="549" y="362"/>
    </contour>
    <contour>
      <point x="245" y="322" type="curve" smooth="yes"/>
      <point x="245" y="283"/>
      <point x="219" y="256"/>
      <point x="176" y="256" type="curve" smooth="yes"/>
      <point x="135" y="256"/>
      <point x="111" y="293"/>
      <point x="111" y="325" type="curve" smooth="yes"/>
      <point x="111" y="360"/>
      <point x="142" y="390"/>
      <point x="179" y="390" type="curve" smooth="yes"/>
      <point x="215" y="390"/>
      <point x="245" y="362"/>
    </contour>
    <contour>
      <point x="600" y="321" type="curve" smooth="yes"/>
      <point x="600" y="388"/>
      <point x="555" y="440"/>
      <point x="482" y="440" type="curve" smooth="yes"/>
      <point x="403" y="440"/>
      <point x="350" y="400"/>
      <point x="350" y="331" type="curve" smooth="yes"/>
      <point x="350" y="301"/>
      <point x="360" y="276"/>
      <point x="379" y="257" type="curve" smooth="yes"/>
      <point x="401" y="233"/>
      <point x="435" y="217"/>
      <point x="482" y="210" type="curve"/>
      <point x="462" y="186"/>
      <point x="437" y="182"/>
      <point x="396" y="182" type="curve" smooth="yes"/>
      <point x="174" y="182" type="line" smooth="yes"/>
      <point x="157" y="182"/>
      <point x="149" y="173"/>
      <point x="149" y="154" type="curve" smooth="yes"/>
      <point x="149" y="139"/>
      <point x="159" y="132"/>
      <point x="179" y="132" type="curve" smooth="yes"/>
      <point x="402" y="132" type="line" smooth="yes"/>
      <point x="450" y="132"/>
      <point x="504" y="160"/>
      <point x="529" y="184" type="curve"/>
      <point x="535" y="177"/>
      <point x="538" y="164"/>
      <point x="538" y="144" type="curve" smooth="yes"/>
      <point x="538" y="114"/>
      <point x="523" y="90"/>
      <point x="492" y="72" type="curve" smooth="yes"/>
      <point x="454" y="49"/>
      <point x="398" y="37"/>
      <point x="323" y="37" type="curve" smooth="yes"/>
      <point x="240" y="37"/>
      <point x="175" y="57"/>
      <point x="126" y="96" type="curve" smooth="yes"/>
      <point x="77" y="135"/>
      <point x="53" y="186"/>
      <point x="53" y="247" type="curve" smooth="yes"/>
      <point x="53" y="255"/>
      <point x="54" y="267"/>
      <point x="57" y="282" type="curve" smooth="yes"/>
      <point x="60" y="298"/>
      <point x="61" y="307"/>
      <point x="61" y="308" type="curve" smooth="yes"/>
      <point x="68" y="277"/>
      <point x="82" y="251"/>
      <point x="107" y="232" type="curve" smooth="yes"/>
      <point x="127" y="216"/>
      <point x="152" y="209"/>
      <point x="179" y="209" type="curve" smooth="yes"/>
      <point x="246" y="209"/>
      <point x="294" y="254"/>
      <point x="294" y="326" type="curve" smooth="yes"/>
      <point x="294" y="393"/>
      <point x="247" y="443"/>
      <point x="179" y="443" type="curve" smooth="yes"/>
      <point x="128" y="443"/>
      <point x="87" y="423"/>
      <point x="54" y="383" type="curve" smooth="yes"/>
      <point x="21" y="343"/>
      <point x="5" y="292"/>
      <point x="5" y="231" type="curve" smooth="yes"/>
      <point x="5" y="164"/>
      <point x="30" y="109"/>
      <point x="80" y="64" type="curve" smooth="yes"/>
      <point x="137" y="13"/>
      <point x="217" y="-13"/>
      <point x="320" y="-13" type="curve" smooth="yes"/>
      <point x="414" y="-13"/>
      <point x="484" y="4"/>
      <point x="531" y="37" type="curve" smooth="yes"/>
      <point x="573" y="66"/>
      <point x="594" y="103"/>
      <point x="594" y="148" type="curve" smooth="yes"/>
      <point x="594" y="179"/>
      <point x="585" y="203"/>
      <point x="566" y="222" type="curve"/>
      <point x="589" y="250"/>
      <point x="600" y="276"/>
    </contour>
  </outline>
</glyph>
<glyph name="uni0C07" format="1">
  <advance width="618"/>
  <unicode hex="0C07"/>
  <outline>
    <contour>
      <point x="433" y="124" type="curve" name="hr00"/>
      <point x="396" y="75"/>
      <point x="324" y="36"/>
      <point x="235" y="36" type="curve" smooth="yes"/>
      <point x="196" y="36"/>
      <point x="161" y="42"/>
      <point x="129" y="56" type="curve" smooth="yes"/>
      <point x="98" y="69"/>
      <point x="82" y="88"/>
      <point x="82" y="110" type="curve" smooth="yes"/>
      <point x="82" y="154"/>
      <point x="140" y="174"/>
      <point x="245" y="174" type="curve" smooth="yes"/>
      <point x="278" y="174"/>
      <point x="313" y="168"/>
      <point x="348" y="159" type="curve" smooth="yes"/>
      <point x="384" y="149"/>
      <point x="412" y="138"/>
    </contour>
    <contour>
      <point x="565" y="-13" type="curve" smooth="yes"/>
      <point x="565" y="27"/>
      <point x="535" y="87"/>
      <point x="496" y="134" type="curve"/>
      <point x="511" y="175"/>
      <point x="518" y="213"/>
      <point x="518" y="248" type="curve" smooth="yes"/>
      <point x="518" y="360"/>
      <point x="463" y="440"/>
      <point x="366" y="440" type="curve" smooth="yes"/>
      <point x="336" y="440"/>
      <point x="310" y="431"/>
      <point x="287" y="413" type="curve" smooth="yes"/>
      <point x="265" y="395"/>
      <point x="252" y="376"/>
      <point x="249" y="355" type="curve"/>
      <point x="234" y="402"/>
      <point x="195" y="437"/>
      <point x="134" y="437" type="curve" smooth="yes"/>
      <point x="61" y="437"/>
      <point x="5" y="387"/>
      <point x="5" y="306" type="curve" smooth="yes"/>
      <point x="5" y="268"/>
      <point x="16" y="249"/>
      <point x="37" y="249" type="curve" smooth="yes"/>
      <point x="55" y="249"/>
      <point x="64" y="256"/>
      <point x="64" y="270" type="curve"/>
      <point x="59" y="314" type="line"/>
      <point x="59" y="363"/>
      <point x="94" y="387"/>
      <point x="137" y="387" type="curve" smooth="yes"/>
      <point x="156" y="387"/>
      <point x="173" y="381"/>
      <point x="187" y="367" type="curve" smooth="yes"/>
      <point x="208" y="346"/>
      <point x="215" y="306"/>
      <point x="226" y="287" type="curve" smooth="yes"/>
      <point x="231" y="278"/>
      <point x="239" y="274"/>
      <point x="250" y="274" type="curve" smooth="yes"/>
      <point x="263" y="274"/>
      <point x="270" y="280"/>
      <point x="274" y="293" type="curve" smooth="yes"/>
      <point x="282" y="324"/>
      <point x="293" y="347"/>
      <point x="304" y="360" type="curve" smooth="yes"/>
      <point x="319" y="378"/>
      <point x="343" y="387"/>
      <point x="374" y="387" type="curve" smooth="yes"/>
      <point x="425" y="387"/>
      <point x="465" y="342"/>
      <point x="465" y="254" type="curve" smooth="yes"/>
      <point x="465" y="221"/>
      <point x="461" y="191"/>
      <point x="453" y="168" type="curve"/>
      <point x="412" y="196"/>
      <point x="333" y="222"/>
      <point x="246" y="222" type="curve" smooth="yes"/>
      <point x="95" y="222"/>
      <point x="30" y="192"/>
      <point x="30" y="113" type="curve" smooth="yes"/>
      <point x="30" y="74"/>
      <point x="52" y="41"/>
      <point x="97" y="17" type="curve" smooth="yes"/>
      <point x="137" y="-4"/>
      <point x="182" y="-13"/>
      <point x="231" y="-13" type="curve" smooth="yes"/>
      <point x="347" y="-13"/>
      <point x="424" y="28"/>
      <point x="471" y="92" type="curve"/>
      <point x="487" y="70"/>
      <point x="496" y="57"/>
      <point x="497" y="54" type="curve"/>
      <point x="507" y="39"/>
      <point x="512" y="21"/>
      <point x="512" y="0" type="curve" smooth="yes"/>
      <point x="512" y="-27"/>
      <point x="522" y="-41"/>
      <point x="541" y="-41" type="curve" smooth="yes"/>
      <point x="557" y="-41"/>
      <point x="565" y="-32"/>
    </contour>
  </outline>
</glyph>
<glyph name="uni0C08" format="1">
  <advance width="898"/>
  <unicode hex="0C08"/>
  <outline>
    <contour>
      <point x="519" y="210" type="line" name="hr00"/>
      <point x="519" y="162"/>
      <point x="502" y="121"/>
      <point x="467" y="87" type="curve" smooth="yes"/>
      <point x="432" y="53"/>
      <point x="386" y="36"/>
      <point x="328" y="36" type="curve" smooth="yes"/>
      <point x="277" y="36"/>
      <point x="233" y="53"/>
      <point x="197" y="87" type="curve" smooth="yes"/>
      <point x="162" y="121"/>
      <point x="144" y="162"/>
      <point x="144" y="210" type="curve"/>
    </contour>
    <contour>
      <point x="798" y="132" type="curve" smooth="yes"/>
      <point x="798" y="96"/>
      <point x="765" y="63"/>
      <point x="734" y="63" type="curve" smooth="yes"/>
      <point x="691" y="63"/>
      <point x="662" y="89"/>
      <point x="662" y="132" type="curve" smooth="yes"/>
      <point x="662" y="179"/>
      <point x="694" y="200"/>
      <point x="734" y="200" type="curve" smooth="yes"/>
      <point x="777" y="200"/>
      <point x="798" y="177"/>
    </contour>
    <contour>
      <point x="149" y="259" type="line"/>
      <point x="159" y="298"/>
      <point x="181" y="330"/>
      <point x="214" y="356" type="curve" smooth="yes"/>
      <point x="248" y="382"/>
      <point x="286" y="395"/>
      <point x="329" y="395" type="curve" smooth="yes"/>
      <point x="422" y="395"/>
      <point x="496" y="340"/>
      <point x="513" y="259" type="curve"/>
    </contour>
    <contour>
      <point x="845" y="136" type="curve" smooth="yes"/>
      <point x="845" y="175"/>
      <point x="830" y="207"/>
      <point x="799" y="232" type="curve"/>
      <point x="824" y="255"/>
      <point x="837" y="286"/>
      <point x="837" y="325" type="curve" smooth="yes"/>
      <point x="837" y="349"/>
      <point x="826" y="371"/>
      <point x="805" y="392" type="curve" smooth="yes"/>
      <point x="784" y="413"/>
      <point x="760" y="424"/>
      <point x="731" y="424" type="curve" smooth="yes"/>
      <point x="667" y="424"/>
      <point x="622" y="374"/>
      <point x="622" y="322" type="curve" smooth="yes"/>
      <point x="622" y="294"/>
      <point x="629" y="292"/>
      <point x="649" y="292" type="curve" smooth="yes"/>
      <point x="666" y="292"/>
      <point x="674" y="299"/>
      <point x="674" y="314" type="curve" smooth="yes"/>
      <point x="674" y="355"/>
      <point x="692" y="376"/>
      <point x="728" y="376" type="curve" smooth="yes"/>
      <point x="771" y="376"/>
      <point x="789" y="350"/>
      <point x="789" y="314" type="curve" smooth="yes"/>
      <point x="789" y="282"/>
      <point x="772" y="259"/>
      <point x="731" y="259" type="curve" smooth="yes"/>
      <point x="561" y="259" type="line"/>
      <point x="545" y="351"/>
      <point x="470" y="421"/>
      <point x="375" y="434" type="curve"/>
      <point x="430" y="479"/>
      <point x="461" y="504"/>
      <point x="468" y="511" type="curve"/>
      <point x="523" y="557"/>
      <point x="552" y="583"/>
      <point x="552" y="591" type="curve" smooth="yes"/>
      <point x="552" y="610"/>
      <point x="537" y="623"/>
      <point x="526" y="623" type="curve" smooth="yes"/>
      <point x="518" y="623"/>
      <point x="454" y="563"/>
      <point x="325" y="446" type="curve"/>
      <point x="315" y="446" type="line"/>
      <point x="309" y="449"/>
      <point x="285" y="471"/>
      <point x="245" y="514" type="curve" smooth="yes"/>
      <point x="229" y="530"/>
      <point x="219" y="540"/>
      <point x="213" y="540" type="curve" smooth="yes"/>
      <point x="202" y="540"/>
      <point x="185" y="527"/>
      <point x="185" y="516" type="curve" smooth="yes"/>
      <point x="185" y="509"/>
      <point x="195" y="497"/>
      <point x="216" y="476" type="curve" smooth="yes"/>
      <point x="227" y="465"/>
      <point x="241" y="450"/>
      <point x="262" y="431" type="curve"/>
      <point x="183" y="411"/>
      <point x="116" y="343"/>
      <point x="100" y="259" type="curve"/>
      <point x="29" y="259" type="line" smooth="yes"/>
      <point x="13" y="259"/>
      <point x="5" y="252"/>
      <point x="5" y="237" type="curve" smooth="yes"/>
      <point x="5" y="217"/>
      <point x="18" y="210"/>
      <point x="39" y="210" type="curve" smooth="yes"/>
      <point x="96" y="210" type="line"/>
      <point x="96" y="150"/>
      <point x="117" y="98"/>
      <point x="162" y="53" type="curve" smooth="yes"/>
      <point x="207" y="8"/>
      <point x="260" y="-13"/>
      <point x="323" y="-13" type="curve" smooth="yes"/>
      <point x="393" y="-13"/>
      <point x="451" y="8"/>
      <point x="496" y="50" type="curve" smooth="yes"/>
      <point x="542" y="93"/>
      <point x="565" y="146"/>
      <point x="565" y="210" type="curve"/>
      <point x="648" y="210" type="line"/>
      <point x="640" y="204"/>
      <point x="632" y="192"/>
      <point x="625" y="174" type="curve" smooth="yes"/>
      <point x="618" y="156"/>
      <point x="614" y="141"/>
      <point x="614" y="128" type="curve" smooth="yes"/>
      <point x="614" y="64"/>
      <point x="668" y="21"/>
      <point x="733" y="21" type="curve" smooth="yes"/>
      <point x="800" y="21"/>
      <point x="845" y="68"/>
    </contour>
  </outline>
</glyph>
<glyph name="uni0C09" format="1">
  <advance width="664"/>
  <unicode hex="0C09"/>
  <outline>
    <contour>
      <point x="557" y="171" type="curve" smooth="yes" name="hr00"/>
      <point x="557" y="146"/>
      <point x="535" y="126"/>
      <point x="507" y="126" type="curve" smooth="yes"/>
      <point x="473" y="126"/>
      <point x="456" y="141"/>
      <point x="456" y="171" type="curve" smooth="yes"/>
      <point x="456" y="200"/>
      <point x="476" y="222"/>
      <point x="507" y="222" type="curve" smooth="yes"/>
      <point x="535" y="222"/>
      <point x="557" y="200"/>
    </contour>
    <contour>
      <point x="611" y="144" type="curve" smooth="yes"/>
      <point x="611" y="216"/>
      <point x="575" y="268"/>
      <point x="507" y="268" type="curve" smooth="yes"/>
      <point x="450" y="268"/>
      <point x="411" y="231"/>
      <point x="411" y="171" type="curve" smooth="yes"/>
      <point x="411" y="119"/>
      <point x="455" y="85"/>
      <point x="503" y="85" type="curve" smooth="yes"/>
      <point x="532" y="85"/>
      <point x="541" y="89"/>
      <point x="552" y="93" type="curve"/>
      <point x="541" y="57"/>
      <point x="514" y="36"/>
      <point x="471" y="36" type="curve" smooth="yes"/>
      <point x="415" y="36"/>
      <point x="385" y="62"/>
      <point x="374" y="99" type="curve" smooth="yes"/>
      <point x="371" y="111"/>
      <point x="368" y="124"/>
      <point x="366" y="139" type="curve" smooth="yes"/>
      <point x="365" y="154"/>
      <point x="357" y="161"/>
      <point x="343" y="161" type="curve" smooth="yes"/>
      <point x="316" y="161"/>
      <point x="322" y="141"/>
      <point x="315" y="101" type="curve"/>
      <point x="303" y="66"/>
      <point x="275" y="37"/>
      <point x="230" y="37" type="curve" smooth="yes"/>
      <point x="170" y="37"/>
      <point x="127" y="94"/>
      <point x="127" y="171" type="curve" smooth="yes"/>
      <point x="127" y="200"/>
      <point x="127" y="221"/>
      <point x="135" y="238" type="curve"/>
      <point x="384" y="238" type="line" smooth="yes"/>
      <point x="407" y="238"/>
      <point x="419" y="243"/>
      <point x="419" y="254" type="curve" smooth="yes"/>
      <point x="419" y="274"/>
      <point x="408" y="284"/>
      <point x="387" y="284" type="curve" smooth="yes"/>
      <point x="154" y="284" type="line"/>
      <point x="199" y="349"/>
      <point x="264" y="385"/>
      <point x="348" y="385" type="curve" smooth="yes"/>
      <point x="431" y="385"/>
      <point x="479" y="350"/>
      <point x="514" y="314" type="curve"/>
      <point x="533" y="314"/>
      <point x="543" y="322"/>
      <point x="543" y="338" type="curve" smooth="yes"/>
      <point x="543" y="357"/>
      <point x="524" y="378"/>
      <point x="485" y="401" type="curve" smooth="yes"/>
      <point x="447" y="424"/>
      <point x="404" y="436"/>
      <point x="356" y="436" type="curve"/>
      <point x="369" y="465"/>
      <point x="377" y="483"/>
      <point x="379" y="489" type="curve" smooth="yes"/>
      <point x="386" y="510"/>
      <point x="389" y="526"/>
      <point x="389" y="539" type="curve" smooth="yes"/>
      <point x="389" y="559"/>
      <point x="373" y="580"/>
      <point x="345" y="580" type="curve" smooth="yes"/>
      <point x="314" y="580"/>
      <point x="298" y="563"/>
      <point x="298" y="530" type="curve" smooth="yes"/>
      <point x="298" y="521"/>
      <point x="302" y="506"/>
      <point x="309" y="485" type="curve" smooth="yes"/>
      <point x="316" y="464"/>
      <point x="324" y="448"/>
      <point x="331" y="436" type="curve"/>
      <point x="224" y="436"/>
      <point x="142" y="379"/>
      <point x="97" y="284" type="curve"/>
      <point x="31" y="284" type="line" smooth="yes"/>
      <point x="14" y="284"/>
      <point x="5" y="276"/>
      <point x="5" y="260" type="curve" smooth="yes"/>
      <point x="5" y="245"/>
      <point x="17" y="238"/>
      <point x="41" y="238" type="curve" smooth="yes"/>
      <point x="81" y="238" type="line"/>
      <point x="73" y="215"/>
      <point x="71" y="206"/>
      <point x="71" y="169" type="curve" smooth="yes"/>
      <point x="71" y="113"/>
      <point x="86" y="69"/>
      <point x="116" y="36" type="curve" smooth="yes"/>
      <point x="147" y="3"/>
      <point x="185" y="-13"/>
      <point x="230" y="-13" type="curve" smooth="yes"/>
      <point x="281" y="-13"/>
      <point x="319" y="9"/>
      <point x="344" y="54" type="curve"/>
      <point x="369" y="8"/>
      <point x="412" y="-15"/>
      <point x="471" y="-15" type="curve" smooth="yes"/>
      <point x="510" y="-15"/>
      <point x="540" y="-2"/>
      <point x="566" y="22" type="curve" smooth="yes"/>
      <point x="595" y="50"/>
      <point x="611" y="89"/>
    </contour>
  </outline>
</glyph>
<glyph name="uni0C0A" format="1">
  <advance width="962"/>
  <unicode hex="0C0A"/>
  <outline>
    <contour>
      <point x="550" y="94" type="curve" name="hr00"/>
      <point x="550" y="82"/>
      <point x="541" y="69"/>
      <point x="524" y="56" type="curve" smooth="yes"/>
      <point x="507" y="43"/>
      <point x="488" y="36"/>
      <point x="468" y="36" type="curve" smooth="yes"/>
      <point x="415" y="36"/>
      <point x="385" y="62"/>
      <point x="376" y="99" type="curve"/>
      <point x="373" y="105"/>
      <point x="371" y="117"/>
      <point x="368" y="135" type="curve" smooth="yes"/>
      <point x="365" y="154"/>
      <point x="357" y="163"/>
      <point x="343" y="163" type="curve" smooth="yes"/>
      <point x="314" y="163"/>
      <point x="318" y="140"/>
      <point x="309" y="103" type="curve" smooth="yes"/>
      <point x="301" y="66"/>
      <point x="271" y="40"/>
      <point x="226" y="40" type="curve" smooth="yes"/>
      <point x="169" y="40"/>
      <point x="126" y="91"/>
      <point x="126" y="183" type="curve" smooth="yes"/>
      <point x="126" y="204"/>
      <point x="128" y="220"/>
      <point x="131" y="229" type="curve"/>
      <point x="430" y="229" type="line"/>
      <point x="417" y="214"/>
      <point x="411" y="193"/>
      <point x="411" y="166" type="curve" smooth="yes"/>
      <point x="411" y="113"/>
      <point x="450" y="83"/>
      <point x="498" y="83" type="curve" smooth="yes"/>
      <point x="521" y="83"/>
      <point x="539" y="89"/>
    </contour>
    <contour>
      <point x="857" y="147" type="curve" smooth="yes"/>
      <point x="857" y="114"/>
      <point x="824" y="80"/>
      <point x="787" y="80" type="curve" smooth="yes"/>
      <point x="750" y="80"/>
      <point x="722" y="114"/>
      <point x="722" y="147" type="curve" smooth="yes"/>
      <point x="722" y="183"/>
      <point x="752" y="214"/>
      <point x="787" y="214" type="curve" smooth="yes"/>
      <point x="826" y="214"/>
      <point x="857" y="178"/>
    </contour>
    <contour>
      <point x="556" y="175" type="curve" smooth="yes"/>
      <point x="556" y="147"/>
      <point x="532" y="126"/>
      <point x="505" y="126" type="curve" smooth="yes"/>
      <point x="476" y="126"/>
      <point x="454" y="145"/>
      <point x="454" y="172" type="curve" smooth="yes"/>
      <point x="454" y="201"/>
      <point x="476" y="224"/>
      <point x="505" y="224" type="curve" smooth="yes"/>
      <point x="534" y="224"/>
      <point x="556" y="200"/>
    </contour>
    <contour>
      <point x="908" y="148" type="curve" smooth="yes"/>
      <point x="908" y="185"/>
      <point x="888" y="227"/>
      <point x="859" y="243" type="curve"/>
      <point x="888" y="268"/>
      <point x="898" y="295"/>
      <point x="898" y="338" type="curve" smooth="yes"/>
      <point x="898" y="398"/>
      <point x="855" y="439"/>
      <point x="787" y="439" type="curve" smooth="yes"/>
      <point x="754" y="439"/>
      <point x="728" y="428"/>
      <point x="709" y="405" type="curve" smooth="yes"/>
      <point x="690" y="383"/>
      <point x="680" y="358"/>
      <point x="680" y="331" type="curve" smooth="yes"/>
      <point x="680" y="316"/>
      <point x="690" y="308"/>
      <point x="710" y="308" type="curve" smooth="yes"/>
      <point x="721" y="308"/>
      <point x="729" y="312"/>
      <point x="734" y="320" type="curve"/>
      <point x="736" y="346" type="line"/>
      <point x="740" y="359"/>
      <point x="744" y="369"/>
      <point x="749" y="375" type="curve"/>
      <point x="760" y="385"/>
      <point x="774" y="390"/>
      <point x="791" y="390" type="curve" smooth="yes"/>
      <point x="828" y="390"/>
      <point x="850" y="359"/>
      <point x="850" y="326" type="curve" smooth="yes"/>
      <point x="850" y="299"/>
      <point x="837" y="278"/>
      <point x="810" y="278" type="curve" smooth="yes"/>
      <point x="149" y="278" type="line"/>
      <point x="188" y="348"/>
      <point x="254" y="383"/>
      <point x="348" y="383" type="curve" smooth="yes"/>
      <point x="388" y="383"/>
      <point x="422" y="375"/>
      <point x="451" y="361" type="curve" smooth="yes"/>
      <point x="476" y="349"/>
      <point x="496" y="335"/>
      <point x="513" y="318" type="curve"/>
      <point x="533" y="318"/>
      <point x="543" y="325"/>
      <point x="543" y="340" type="curve" smooth="yes"/>
      <point x="543" y="355"/>
      <point x="530" y="371"/>
      <point x="504" y="389" type="curve" smooth="yes"/>
      <point x="479" y="407"/>
      <point x="447" y="419"/>
      <point x="410" y="426" type="curve"/>
      <point x="429" y="467" type="line" smooth="yes"/>
      <point x="442" y="494"/>
      <point x="449" y="515"/>
      <point x="449" y="529" type="curve" smooth="yes"/>
      <point x="449" y="553"/>
      <point x="432" y="572"/>
      <point x="405" y="572" type="curve" smooth="yes"/>
      <point x="370" y="572"/>
      <point x="353" y="556"/>
      <point x="353" y="523" type="curve" smooth="yes"/>
      <point x="353" y="510"/>
      <point x="368" y="464"/>
      <point x="383" y="432" type="curve"/>
      <point x="345" y="434" type="line"/>
      <point x="298" y="431" type="line"/>
      <point x="312" y="470"/>
      <point x="320" y="493"/>
      <point x="322" y="502" type="curve" smooth="yes"/>
      <point x="324" y="511"/>
      <point x="325" y="520"/>
      <point x="325" y="529" type="curve" smooth="yes"/>
      <point x="325" y="552"/>
      <point x="310" y="572"/>
      <point x="283" y="572" type="curve" smooth="yes"/>
      <point x="250" y="572"/>
      <point x="233" y="556"/>
      <point x="233" y="523" type="curve" smooth="yes"/>
      <point x="233" y="503"/>
      <point x="251" y="457"/>
      <point x="272" y="425" type="curve"/>
      <point x="191" y="408"/>
      <point x="131" y="359"/>
      <point x="92" y="278" type="curve"/>
      <point x="31" y="278" type="line" smooth="yes"/>
      <point x="14" y="278"/>
      <point x="5" y="270"/>
      <point x="5" y="254" type="curve" smooth="yes"/>
      <point x="5" y="237"/>
      <point x="13" y="229"/>
      <point x="29" y="229" type="curve" smooth="yes"/>
      <point x="80" y="229" type="line"/>
      <point x="74" y="211"/>
      <point x="71" y="192"/>
      <point x="71" y="172" type="curve" smooth="yes"/>
      <point x="71" y="115"/>
      <point x="86" y="69"/>
      <point x="115" y="36" type="curve" smooth="yes"/>
      <point x="145" y="3"/>
      <point x="182" y="-13"/>
      <point x="226" y="-13" type="curve" smooth="yes"/>
      <point x="281" y="-13"/>
      <point x="320" y="10"/>
      <point x="344" y="56" type="curve"/>
      <point x="367" y="11"/>
      <point x="399" y="-13"/>
      <point x="464" y="-13" type="curve" smooth="yes"/>
      <point x="503" y="-13"/>
      <point x="535" y="-4"/>
      <point x="559" y="17" type="curve" smooth="yes"/>
      <point x="591" y="44"/>
      <point x="606" y="86"/>
      <point x="606" y="140" type="curve" smooth="yes"/>
      <point x="606" y="179"/>
      <point x="597" y="209"/>
      <point x="579" y="229" type="curve"/>
      <point x="708" y="229" type="line"/>
      <point x="692" y="214"/>
      <point x="672" y="177"/>
      <point x="672" y="140" type="curve" smooth="yes"/>
      <point x="672" y="76"/>
      <point x="726" y="32"/>
      <point x="791" y="32" type="curve" smooth="yes"/>
      <point x="823" y="32"/>
      <point x="850" y="43"/>
      <point x="873" y="66" type="curve" smooth="yes"/>
      <point x="896" y="89"/>
      <point x="908" y="116"/>
    </contour>
  </outline>
</glyph>
<glyph name="uni0C0C" format="1">
  <advance width="611"/>
  <unicode hex="0C0C"/>
  <outline>
    <contour>
      <point x="550" y="248" type="curve" smooth="yes" name="hr00"/>
      <point x="550" y="286"/>
      <point x="536" y="316"/>
      <point x="508" y="338" type="curve" smooth="yes"/>
      <point x="480" y="361"/>
      <point x="449" y="372"/>
      <point x="414" y="372" type="curve" smooth="yes"/>
      <point x="371" y="372"/>
      <point x="339" y="365"/>
      <point x="318" y="352" type="curve" smooth="yes"/>
      <point x="308" y="346"/>
      <point x="293" y="331"/>
      <point x="273" y="308" type="curve"/>
      <point x="261" y="345"/>
      <point x="214" y="376"/>
      <point x="154" y="376" type="curve" smooth="yes"/>
      <point x="66" y="376"/>
      <point x="5" y="333"/>
      <point x="5" y="244" type="curve" smooth="yes"/>
      <point x="5" y="203"/>
      <point x="14" y="183"/>
      <point x="31" y="183" type="curve" smooth="yes"/>
      <point x="44" y="183"/>
      <point x="60" y="190"/>
      <point x="60" y="206" type="curve" smooth="yes"/>
      <point x="60" y="209"/>
      <point x="53" y="229"/>
      <point x="53" y="246" type="curve" smooth="yes"/>
      <point x="53" y="301"/>
      <point x="85" y="329"/>
      <point x="148" y="329" type="curve" smooth="yes"/>
      <point x="205" y="329"/>
      <point x="248" y="296"/>
      <point x="248" y="233" type="curve" smooth="yes"/>
      <point x="248" y="207"/>
      <point x="257" y="194"/>
      <point x="275" y="194" type="curve" smooth="yes"/>
      <point x="294" y="194"/>
      <point x="304" y="205"/>
      <point x="304" y="226" type="curve" smooth="yes"/>
      <point x="304" y="286"/>
      <point x="345" y="324"/>
      <point x="406" y="324" type="curve" smooth="yes"/>
      <point x="462" y="324"/>
      <point x="503" y="296"/>
      <point x="503" y="244" type="curve" smooth="yes"/>
      <point x="503" y="220"/>
      <point x="497" y="200"/>
      <point x="484" y="185" type="curve"/>
      <point x="479" y="173"/>
      <point x="439" y="148"/>
      <point x="407" y="127" type="curve" smooth="yes"/>
      <point x="341" y="83" type="line" smooth="yes"/>
      <point x="314" y="65"/>
      <point x="292" y="47"/>
      <point x="276" y="28" type="curve" smooth="yes"/>
      <point x="250" y="-5"/>
      <point x="237" y="-39"/>
      <point x="237" y="-74" type="curve" smooth="yes"/>
      <point x="237" y="-111"/>
      <point x="252" y="-146"/>
      <point x="281" y="-181" type="curve" smooth="yes"/>
      <point x="311" y="-216"/>
      <point x="344" y="-233"/>
      <point x="381" y="-233" type="curve" smooth="yes"/>
      <point x="426" y="-233"/>
      <point x="465" y="-219"/>
      <point x="498" y="-192" type="curve" smooth="yes"/>
      <point x="538" y="-158"/>
      <point x="558" y="-112"/>
      <point x="558" y="-53" type="curve" smooth="yes"/>
      <point x="558" y="-34"/>
      <point x="554" y="-14"/>
      <point x="551" y="13" type="curve" smooth="yes"/>
      <point x="549" y="26"/>
      <point x="541" y="33"/>
      <point x="526" y="33" type="curve" smooth="yes"/>
      <point x="502" y="33"/>
      <point x="493" y="21"/>
      <point x="502" y="-3" type="curve" smooth="yes"/>
      <point x="508" y="-20"/>
      <point x="512" y="-38"/>
      <point x="512" y="-55" type="curve" smooth="yes"/>
      <point x="512" y="-94"/>
      <point x="499" y="-125"/>
      <point x="473" y="-150" type="curve" smooth="yes"/>
      <point x="448" y="-175"/>
      <point x="420" y="-187"/>
      <point x="390" y="-187" type="curve" smooth="yes"/>
      <point x="368" y="-187"/>
      <point x="345" y="-174"/>
      <point x="322" y="-148" type="curve" smooth="yes"/>
      <point x="299" y="-123"/>
      <point x="288" y="-96"/>
      <point x="288" y="-68" type="curve" smooth="yes"/>
      <point x="288" y="-34"/>
      <point x="314" y="3"/>
      <point x="365" y="43" type="curve"/>
      <point x="488" y="123" type="line" smooth="yes"/>
      <point x="536" y="154"/>
      <point x="550" y="193"/>
    </contour>
  </outline>
</glyph>
<glyph name="uni0C0E" format="1">
  <advance width="612"/>
  <unicode hex="0C0E"/>
  <outline>
    <contour>
      <point x="223" y="115" type="curve" smooth="yes" name="hr00"/>
      <point x="223" y="67"/>
      <point x="185" y="32"/>
      <point x="137" y="32" type="curve" smooth="yes"/>
      <point x="90" y="32"/>
      <point x="52" y="66"/>
      <point x="52" y="113" type="curve" smooth="yes"/>
      <point x="52" y="166"/>
      <point x="87" y="206"/>
      <point x="134" y="206" type="curve" smooth="yes"/>
      <point x="195" y="206"/>
      <point x="223" y="166"/>
    </contour>
    <contour>
      <point x="559" y="243" type="curve" smooth="yes"/>
      <point x="559" y="295"/>
      <point x="549" y="348"/>
      <point x="530" y="402" type="curve" smooth="yes"/>
      <point x="511" y="456"/>
      <point x="485" y="499"/>
      <point x="450" y="530" type="curve" smooth="yes"/>
      <point x="403" y="573"/>
      <point x="343" y="594"/>
      <point x="269" y="594" type="curve" smooth="yes"/>
      <point x="238" y="594"/>
      <point x="222" y="584"/>
      <point x="222" y="564" type="curve" smooth="yes"/>
      <point x="222" y="549"/>
      <point x="231" y="541"/>
      <point x="250" y="541" type="curve"/>
      <point x="269" y="544"/>
      <point x="285" y="546"/>
      <point x="304" y="546" type="curve" smooth="yes"/>
      <point x="324" y="546"/>
      <point x="347" y="540"/>
      <point x="375" y="526" type="curve" smooth="yes"/>
      <point x="414" y="507"/>
      <point x="447" y="472"/>
      <point x="473" y="419" type="curve" smooth="yes"/>
      <point x="499" y="366"/>
      <point x="512" y="304"/>
      <point x="512" y="233" type="curve" smooth="yes"/>
      <point x="512" y="162"/>
      <point x="497" y="108"/>
      <point x="467" y="72" type="curve" smooth="yes"/>
      <point x="445" y="45"/>
      <point x="416" y="32"/>
      <point x="379" y="32" type="curve" smooth="yes"/>
      <point x="348" y="32"/>
      <point x="310" y="55"/>
      <point x="297" y="83" type="curve"/>
      <point x="291" y="100"/>
      <point x="284" y="116"/>
      <point x="277" y="133" type="curve" smooth="yes"/>
      <point x="267" y="159"/>
      <point x="258" y="179"/>
      <point x="249" y="192" type="curve" smooth="yes"/>
      <point x="224" y="227"/>
      <point x="190" y="253"/>
      <point x="145" y="253" type="curve" smooth="yes"/>
      <point x="103" y="253"/>
      <point x="69" y="239"/>
      <point x="43" y="212" type="curve" smooth="yes"/>
      <point x="18" y="185"/>
      <point x="5" y="154"/>
      <point x="5" y="117" type="curve" smooth="yes"/>
      <point x="5" y="41"/>
      <point x="63" y="-13"/>
      <point x="144" y="-13" type="curve" smooth="yes"/>
      <point x="167" y="-13"/>
      <point x="190" y="-6"/>
      <point x="212" y="9" type="curve" smooth="yes"/>
      <point x="235" y="24"/>
      <point x="249" y="41"/>
      <point x="254" y="59" type="curve"/>
      <point x="278" y="8"/>
      <point x="318" y="-17"/>
      <point x="374" y="-17" type="curve" smooth="yes"/>
      <point x="494" y="-17"/>
      <point x="559" y="80"/>
    </contour>
  </outline>
</glyph>
<glyph name="uni0C10" format="1">
  <advance width="600"/>
  <unicode hex="0C10"/>
  <outline>
    <contour>
      <point x="220" y="117" type="curve" smooth="yes" name="hr00"/>
      <point x="220" y="66"/>
      <point x="184" y="37"/>
      <point x="137" y="37" type="curve" smooth="yes"/>
      <point x="92" y="37"/>
      <point x="54" y="76"/>
      <point x="54" y="117" type="curve" smooth="yes"/>
      <point x="54" y="165"/>
      <point x="90" y="203"/>
      <point x="137" y="203" type="curve" smooth="yes"/>
      <point x="184" y="203"/>
      <point x="220" y="165"/>
    </contour>
    <contour>
      <point x="546" y="220" type="curve" smooth="yes"/>
      <point x="546" y="356"/>
      <point x="481" y="443"/>
      <point x="381" y="443" type="curve" smooth="yes"/>
      <point x="310" y="443"/>
      <point x="269" y="409"/>
      <point x="252" y="360" type="curve"/>
      <point x="232" y="415"/>
      <point x="194" y="440"/>
      <point x="137" y="440" type="curve" smooth="yes"/>
      <point x="64" y="440"/>
      <point x="6" y="390"/>
      <point x="6" y="305" type="curve" smooth="yes"/>
      <point x="6" y="271"/>
      <point x="16" y="254"/>
      <point x="37" y="254" type="curve" smooth="yes"/>
      <point x="56" y="254"/>
      <point x="66" y="262"/>
      <point x="65" y="278" type="curve" smooth="yes"/>
      <point x="65" y="293"/>
      <point x="59" y="299"/>
      <point x="59" y="314" type="curve" smooth="yes"/>
      <point x="59" y="353"/>
      <point x="90" y="391"/>
      <point x="137" y="391" type="curve" smooth="yes"/>
      <point x="170" y="391"/>
      <point x="196" y="370"/>
      <point x="211" y="339" type="curve"/>
      <point x="214" y="326"/>
      <point x="218" y="313"/>
      <point x="223" y="298" type="curve" smooth="yes"/>
      <point x="228" y="283"/>
      <point x="237" y="276"/>
      <point x="252" y="276" type="curve" smooth="yes"/>
      <point x="265" y="276"/>
      <point x="274" y="284"/>
      <point x="279" y="301" type="curve" smooth="yes"/>
      <point x="288" y="329"/>
      <point x="298" y="349"/>
      <point x="310" y="362" type="curve" smooth="yes"/>
      <point x="326" y="381"/>
      <point x="350" y="391"/>
      <point x="381" y="391" type="curve" smooth="yes"/>
      <point x="454" y="391"/>
      <point x="500" y="318"/>
      <point x="500" y="221" type="curve" smooth="yes"/>
      <point x="500" y="108"/>
      <point x="443" y="40"/>
      <point x="374" y="40" type="curve" smooth="yes"/>
      <point x="350" y="40"/>
      <point x="329" y="48"/>
      <point x="312" y="64" type="curve" smooth="yes"/>
      <point x="292" y="83"/>
      <point x="279" y="122"/>
      <point x="267" y="151" type="curve" smooth="yes"/>
      <point x="259" y="170"/>
      <point x="254" y="183"/>
      <point x="249" y="192" type="curve" smooth="yes"/>
      <point x="225" y="231"/>
      <point x="188" y="251"/>
      <point x="139" y="251" type="curve" smooth="yes"/>
      <point x="102" y="251"/>
      <point x="70" y="238"/>
      <point x="44" y="213" type="curve" smooth="yes"/>
      <point x="18" y="188"/>
      <point x="5" y="158"/>
      <point x="5" y="122" type="curve" smooth="yes"/>
      <point x="5" y="83"/>
      <point x="17" y="51"/>
      <point x="43" y="25" type="curve" smooth="yes"/>
      <point x="69" y="-1"/>
      <point x="100" y="-13"/>
      <point x="137" y="-13" type="curve" smooth="yes"/>
      <point x="198" y="-13"/>
      <point x="225" y="11"/>
      <point x="258" y="56" type="curve"/>
      <point x="273" y="19"/>
      <point x="322" y="-13"/>
      <point x="367" y="-13" type="curve" smooth="yes"/>
      <point x="420" y="-13"/>
      <point x="463" y="8"/>
      <point x="496" y="50" type="curve" smooth="yes"/>
      <point x="529" y="92"/>
      <point x="546" y="149"/>
    </contour>
  </outline>
</glyph>
<glyph name="uni0C12" format="1">
  <advance width="603"/>
  <unicode hex="0C12"/>
  <outline>
    <contour>
      <point x="550" y="115" type="curve" smooth="yes" name="hr00"/>
      <point x="550" y="156"/>
      <point x="542" y="177"/>
      <point x="525" y="177" type="curve" smooth="yes"/>
      <point x="516" y="177"/>
      <point x="496" y="170"/>
      <point x="496" y="154" type="curve" smooth="yes"/>
      <point x="496" y="150"/>
      <point x="503" y="129"/>
      <point x="503" y="113" type="curve" smooth="yes"/>
      <point x="503" y="58"/>
      <point x="471" y="30"/>
      <point x="408" y="30" type="curve" smooth="yes"/>
      <point x="349" y="30"/>
      <point x="310" y="62"/>
      <point x="310" y="125" type="curve" smooth="yes"/>
      <point x="310" y="151"/>
      <point x="300" y="164"/>
      <point x="281" y="164" type="curve" smooth="yes"/>
      <point x="262" y="164"/>
      <point x="252" y="153"/>
      <point x="252" y="132" type="curve" smooth="yes"/>
      <point x="252" y="75"/>
      <point x="213" y="36"/>
      <point x="149" y="36" type="curve" smooth="yes"/>
      <point x="93" y="36"/>
      <point x="53" y="64"/>
      <point x="53" y="115" type="curve" smooth="yes"/>
      <point x="53" y="140"/>
      <point x="58" y="160"/>
      <point x="67" y="174" type="curve"/>
      <point x="76" y="194"/>
      <point x="104" y="206"/>
      <point x="164" y="219" type="curve" smooth="yes"/>
      <point x="216" y="230" type="line"/>
      <point x="237" y="239"/>
      <point x="253" y="250"/>
      <point x="262" y="261" type="curve"/>
      <point x="277" y="276"/>
      <point x="285" y="297"/>
      <point x="285" y="325" type="curve" smooth="yes"/>
      <point x="285" y="394"/>
      <point x="232" y="443"/>
      <point x="151" y="443" type="curve" smooth="yes"/>
      <point x="66" y="443"/>
      <point x="11" y="385"/>
      <point x="11" y="302" type="curve" smooth="yes"/>
      <point x="11" y="282"/>
      <point x="21" y="274"/>
      <point x="37" y="274" type="curve" smooth="yes"/>
      <point x="53" y="274"/>
      <point x="61" y="286"/>
      <point x="61" y="309" type="curve" smooth="yes"/>
      <point x="61" y="357"/>
      <point x="90" y="395"/>
      <point x="150" y="395" type="curve" smooth="yes"/>
      <point x="195" y="395"/>
      <point x="237" y="374"/>
      <point x="237" y="321" type="curve" smooth="yes"/>
      <point x="237" y="296"/>
      <point x="215" y="278"/>
      <point x="172" y="266" type="curve" smooth="yes"/>
      <point x="110" y="249"/>
      <point x="75" y="237"/>
      <point x="67" y="233" type="curve"/>
      <point x="18" y="202"/>
      <point x="5" y="167"/>
      <point x="5" y="110" type="curve" smooth="yes"/>
      <point x="5" y="73"/>
      <point x="20" y="41"/>
      <point x="50" y="17" type="curve" smooth="yes"/>
      <point x="76" y="-4"/>
      <point x="107" y="-13"/>
      <point x="142" y="-13" type="curve" smooth="yes"/>
      <point x="184" y="-13"/>
      <point x="216" y="-6"/>
      <point x="238" y="7" type="curve" smooth="yes"/>
      <point x="248" y="13"/>
      <point x="263" y="28"/>
      <point x="282" y="51" type="curve"/>
      <point x="295" y="14"/>
      <point x="343" y="-17"/>
      <point x="402" y="-17" type="curve" smooth="yes"/>
      <point x="446" y="-17"/>
      <point x="481" y="-7"/>
      <point x="506" y="13" type="curve" smooth="yes"/>
      <point x="535" y="36"/>
      <point x="550" y="70"/>
    </contour>
  </outline>
</glyph>
